<svg width="6" height="6" viewBox="0 0 6 6" fill="none" xmlns="http://www.w3.org/2000/svg">
<g clip-path="url(#clip0_0_323)">
<path d="M5.46405 3.66311L2.83122 5.19348L0.653625 3.84375C0.653625 3.84375 0.535665 3.71765 0.535665 3.37791C0.535665 3.26424 0.568878 3.26691 0.608198 3.23574C0.726157 3.1421 0.963577 3.27709 1.04136 3.32595C1.14518 3.39098 2.80518 4.35062 2.80518 4.35062L5.46405 2.89793" stroke="#696969" stroke-width="0.264052" stroke-miterlimit="10" stroke-linecap="round" stroke-linejoin="round"/>
<path d="M5.18713 3.04882C5.18713 3.04882 5.04131 3.45187 5.2737 3.73954" stroke="#696969" stroke-width="0.264052" stroke-miterlimit="10" stroke-linecap="round" stroke-linejoin="round"/>
<path d="M5.46405 2.85866L2.83122 4.38903L0.653625 3.03919C0.653625 3.03919 0.535665 2.91309 0.535665 2.57346C0.535665 2.45978 0.568878 2.46246 0.608198 2.43129M0.608198 2.43129C0.726157 2.33765 0.963577 2.47264 1.04136 2.5215C1.14518 2.58621 2.80518 3.54606 2.80518 3.54606L5.46405 2.09337L3.41823 0.964127L0.608198 2.43129Z" stroke="#696969" stroke-width="0.264052" stroke-miterlimit="10" stroke-linecap="round" stroke-linejoin="round"/>
<path d="M5.18713 2.24445C5.18713 2.24445 5.04131 2.64751 5.2737 2.93528" stroke="#696969" stroke-width="0.264052" stroke-miterlimit="10" stroke-linecap="round" stroke-linejoin="round"/>
</g>
<defs>
<clipPath id="clip0_0_323">
<rect width="5.28105" height="5.28105" fill="white" transform="scale(1.13609)"/>
</clipPath>
</defs>
</svg>
