<svg width="99" height="89" viewBox="0 0 99 89" fill="none" xmlns="http://www.w3.org/2000/svg">
<g clip-path="url(#clip0_1_7961)">
<path d="M0 14.539L76.2925 -8.26685e-05L98.3709 74.4611L22.0785 89.0002L0 14.539Z" fill="#00008B"/>
<path d="M38.1462 7.26947L39.5261 11.9233L29.51 28.5824L47.6978 39.4826L49.1855 44.5001L44.1937 45.4513L25.9099 34.4926L16.1055 50.8041L11.0392 51.7696L9.57309 46.8249L19.399 30.5861L1.59552 19.92L0 14.539L4.61927 13.6587L22.9776 24.6032L32.7819 8.29175L38.1462 7.26947Z" fill="white"/>
<path d="M20.6946 35.4865L22.2472 37.8027L14.1684 51.1733L11.0392 51.7696L10.9746 51.5515L20.6946 35.4865ZM29.6744 32.8533L33.8701 32.6683L48.2152 41.2278L49.1855 44.5001L29.6744 32.8533ZM38.1462 7.26947L28.0674 24.2479L26.8206 21.1052L34.719 7.9226L38.1462 7.26947ZM0.021561 14.6117L18.4759 25.6148L13.9077 25.8708L1.05649 18.1021L0.021561 14.6117Z" fill="#FF0000"/>
<path d="M13.1128 12.0401L24.152 49.2707L36.0727 46.999L25.0335 9.76838L13.1128 12.0401ZM3.79474 27.337L7.2445 38.9716L45.3907 31.702L41.941 20.0675L3.79474 27.337Z" fill="white"/>
<path d="M4.48469 29.664L6.55455 36.6447L44.7008 29.3751L42.6309 22.3944L4.48469 29.664ZM15.4969 11.5858L26.5361 48.8164L33.6886 47.4533L22.6493 10.2227L15.4969 11.5858Z" fill="#FF0000"/>
<path d="M47.4642 67.3825L40.8724 69.4684L43.5372 76.0131L37.2525 72.2326L33.7238 77.8525L32.4746 71.0381L25.3999 71.4951L30.1269 66.7838L24.8517 61.7353L31.9953 62.6787L32.4782 55.9183L36.6636 61.8044L42.5414 58.4256L40.6109 64.8166L47.4748 67.3652L47.4642 67.3825ZM80.9934 62.222L78.0508 63.1823L79.2626 66.1012L76.4364 64.4272L74.8712 66.9534L74.2852 63.9153L71.127 64.1484L73.2219 62.0283L70.8431 59.7927L74.044 60.1815L74.2312 57.1496L76.1258 59.7694L78.7425 58.2412L77.9071 61.1047L80.9934 62.222ZM74.4941 45.4529L74.3358 43.4856L72.4875 42.455L74.3897 41.862L74.6875 39.9461L76.0288 41.5496L78.0604 41.3929L76.9882 42.9801L77.9511 44.7941L75.938 44.1636L74.4941 45.4529ZM59.3752 39.1151L56.4451 40.0115L57.5887 42.9127L54.8177 41.2128L53.2204 43.6837L52.7027 40.6633L49.5763 40.8442L51.6884 38.7823L49.3692 36.5354L52.5383 36.9763L52.7875 33.9941L54.6181 36.6106L57.2372 35.1435L56.359 37.969L59.3752 39.1151ZM84.1565 29.3528L81.1586 30.339L82.4026 33.3132L79.5187 31.6041L77.9217 34.1825L77.3291 31.0688L74.1113 31.3132L76.2529 29.1381L73.827 26.8501L77.0961 27.2566L77.2853 24.1782L79.212 26.8533L81.8797 25.2848L81.0168 28.2149L84.1565 29.3528ZM68.3222 19.5406L65.3369 20.4629L66.5169 23.4339L63.6883 21.699L62.0592 24.222L61.5242 21.1434L58.319 21.324L60.4821 19.2216L58.1158 16.9222L61.3488 17.3663L61.5957 14.3231L63.4585 16.995L66.1286 15.4874L65.2335 18.3622L68.3222 19.5406Z" fill="white"/>
</g>
<defs>
<clipPath id="clip0_1_7961">
<rect width="77.4413" height="77.4413" fill="white" transform="matrix(0.985165 -0.187744 0.2851 0.961517 0 14.539)"/>
</clipPath>
</defs>
</svg>
