<svg width="24" height="18" viewBox="0 0 24 18" fill="none" xmlns="http://www.w3.org/2000/svg">
<g clip-path="url(#clip0_1_8142)">
<path d="M0 0H24V18H0V0Z" fill="#00008B"/>
<path d="M1.40625 0L5.98125 3.39375L10.5375 0H12V1.1625L7.5 4.51875L12 7.85625V9H10.5L6 5.64375L1.51875 9H0V7.875L4.48125 4.5375L0 1.2V0H1.40625Z" fill="white"/>
<path d="M7.95 5.26875L12 8.25V9L6.91875 5.26875H7.95ZM4.5 5.64375L4.6125 6.3L1.0125 9H0L4.5 5.64375ZM12 0V0.05625L7.33125 3.58125L7.36875 2.75625L11.0625 0H12ZM0 0L4.48125 3.3H3.35625L0 0.7875V0Z" fill="#FF0000"/>
<path d="M4.51875 0V9H7.51875V0H4.51875ZM0 3V6H12V3H0Z" fill="white"/>
<path d="M0 3.61875V5.41875H12V3.61875H0ZM5.11875 0V9H6.91875V0H5.11875Z" fill="#FF0000"/>
<path d="M19.7681 14.8738L18.9994 14.9713L19.0819 15.74L18.5269 15.2L17.9756 15.7438L18.0506 14.975L17.2819 14.885L17.9306 14.465L17.5219 13.8088L18.2569 14.0525L18.5156 13.3212L18.7819 14.0488L19.5131 13.7975L19.1119 14.4575L19.7644 14.8738H19.7681ZM19.6294 10.4788L19.7306 9.99125L19.3631 9.65375L19.8581 9.5975L20.0644 9.14375L20.2706 9.5975L20.7656 9.65375L20.3981 9.99125L20.4994 10.4788L20.0644 10.2313L19.6294 10.4788ZM15.7256 8.22875L14.9644 8.31125L15.0319 9.0725L14.4919 8.52875L13.9369 9.0575L14.0269 8.29625L13.2694 8.195L13.9181 7.79L13.5244 7.13375L14.2481 7.38875L14.5181 6.6725L14.7694 7.39625L15.4969 7.16L15.0881 7.80875L15.7294 8.22875H15.7256ZM23.3681 6.99875L22.5844 7.1L22.6706 7.88375L22.1044 7.3325L21.5419 7.8875L21.6206 7.1L20.8369 7.01L21.5006 6.57875L21.0844 5.9075L21.8344 6.15875L22.0969 5.41625L22.3669 6.15875L23.1131 5.9L22.7006 6.575L23.3681 6.99875ZM19.7644 3.8675L18.9881 3.95375L19.0594 4.73375L18.5081 4.17875L17.9419 4.71875L18.0319 3.9425L17.2556 3.8375L17.9194 3.425L17.5181 2.75375L18.2569 3.0125L18.5306 2.28125L18.7856 3.02L19.5281 2.77625L19.1119 3.43625L19.7644 3.8675ZM8.78062 14.4613L7.06313 14.6638L7.23563 16.385L6.00563 15.17L4.76813 16.3775L4.95187 14.6563L3.23438 14.4388L4.69313 13.5087L3.79313 12.0312L5.42813 12.5938L6.02062 10.9663L6.60188 12.5975L8.24063 12.0463L7.32938 13.5163L8.78438 14.4575L8.78062 14.4613Z" fill="white"/>
</g>
<defs>
<clipPath id="clip0_1_8142">
<rect width="24" height="18" rx="2" fill="white"/>
</clipPath>
</defs>
</svg>
