<svg width="13" height="13" viewBox="0 0 13 13" fill="none" xmlns="http://www.w3.org/2000/svg">
<g clip-path="url(#clip0_1_7374)">
<path d="M8.8972 2.30137C8.98086 2.50369 9.14143 2.66451 9.34361 2.74847L10.0526 3.04215C10.2549 3.12596 10.4157 3.28671 10.4995 3.48905C10.5833 3.69139 10.5833 3.91873 10.4995 4.12106L10.206 4.82955C10.1222 5.03198 10.1221 5.25955 10.2063 5.46188L10.4992 6.17016C10.5408 6.27037 10.5622 6.37779 10.5622 6.48628C10.5622 6.59476 10.5408 6.70219 10.4993 6.80242C10.4578 6.90264 10.397 6.99371 10.3202 7.07041C10.2435 7.14711 10.1524 7.20793 10.0522 7.24942L9.34373 7.54288C9.14142 7.62654 8.98061 7.78712 8.89665 7.98931L8.60299 8.69831C8.51918 8.90064 8.35843 9.0614 8.1561 9.14521C7.95377 9.22902 7.72644 9.22902 7.52411 9.14521L6.81565 8.85174C6.61331 8.76814 6.38606 8.76831 6.18385 8.85222L5.47488 9.14547C5.27267 9.22909 5.04553 9.22902 4.84336 9.14528C4.6412 9.06154 4.48054 8.90097 4.39668 8.69885L4.10292 7.98964C4.01927 7.78732 3.8587 7.6265 3.65651 7.54254L2.94754 7.24887C2.7453 7.16509 2.5846 7.00444 2.50076 6.80222C2.41692 6.6 2.41681 6.37276 2.50044 6.17046L2.7939 5.46197C2.8775 5.25963 2.87733 5.03237 2.79342 4.83015L2.50039 4.12065C2.45884 4.02043 2.43745 3.91301 2.43743 3.80453C2.43742 3.69604 2.45878 3.58862 2.50029 3.48839C2.5418 3.38816 2.60266 3.2971 2.67938 3.2204C2.7561 3.1437 2.84718 3.08287 2.94742 3.04139L3.65588 2.74792C3.85802 2.66434 4.01874 2.50396 4.10275 2.302L4.39642 1.59301C4.48023 1.39067 4.64098 1.22991 4.84331 1.1461C5.04563 1.06229 5.27297 1.06229 5.4753 1.1461L6.18376 1.43957C6.38609 1.52317 6.61335 1.523 6.81555 1.43909L7.52482 1.14656C7.72712 1.0628 7.95441 1.06281 8.1567 1.14661C8.35899 1.2304 8.51972 1.39111 8.60354 1.59339L8.89729 2.3026L8.8972 2.30137Z" fill="#B1060F" fill-opacity="0.7"/>
<path d="M4.2621 8.37395L3.79158 11.9164L6.27693 10.4252C6.35799 10.3766 6.39852 10.3523 6.44179 10.3428C6.48006 10.3344 6.5197 10.3344 6.55797 10.3428C6.60124 10.3523 6.64177 10.3766 6.72283 10.4252L9.20818 11.9164L8.73797 8.37241M8.8972 2.30137C8.98086 2.50369 9.14143 2.66451 9.34361 2.74847L10.0526 3.04215C10.2549 3.12596 10.4157 3.28671 10.4995 3.48905C10.5833 3.69139 10.5833 3.91873 10.4995 4.12106L10.206 4.82955C10.1222 5.03198 10.1221 5.25955 10.2063 5.46188L10.4992 6.17016C10.5408 6.27037 10.5622 6.37779 10.5622 6.48628C10.5622 6.59476 10.5408 6.70219 10.4993 6.80242C10.4578 6.90264 10.397 6.99371 10.3202 7.07041C10.2435 7.14711 10.1524 7.20794 10.0522 7.24942L9.34373 7.54288C9.14142 7.62654 8.98061 7.78712 8.89665 7.98931L8.60299 8.69831C8.51918 8.90064 8.35843 9.0614 8.1561 9.14521C7.95377 9.22902 7.72644 9.22902 7.52411 9.14521L6.81565 8.85174C6.61331 8.76814 6.38606 8.76831 6.18385 8.85222L5.47488 9.14547C5.27266 9.22909 5.04553 9.22902 4.84336 9.14528C4.6412 9.06154 4.48054 8.90097 4.39668 8.69885L4.10292 7.98964C4.01927 7.78732 3.8587 7.6265 3.65651 7.54254L2.94754 7.24887C2.7453 7.16509 2.5846 7.00444 2.50076 6.80222C2.41692 6.6 2.41681 6.37276 2.50044 6.17046L2.7939 5.46197C2.8775 5.25963 2.87733 5.03237 2.79342 4.83015L2.50039 4.12065C2.45884 4.02043 2.43745 3.91301 2.43743 3.80453C2.43742 3.69604 2.45878 3.58862 2.50029 3.48839C2.5418 3.38816 2.60266 3.2971 2.67938 3.2204C2.7561 3.1437 2.84718 3.08287 2.94742 3.04139L3.65588 2.74792C3.85802 2.66434 4.01874 2.50396 4.10275 2.302L4.39642 1.59301C4.48023 1.39067 4.64098 1.22991 4.84331 1.1461C5.04563 1.06229 5.27297 1.06229 5.4753 1.1461L6.18376 1.43957C6.38609 1.52317 6.61335 1.523 6.81555 1.43909L7.52482 1.14656C7.72712 1.0628 7.95441 1.06281 8.1567 1.14661C8.35899 1.2304 8.51972 1.39111 8.60354 1.59339L8.89729 2.3026L8.8972 2.30137Z" stroke="#B1060F" stroke-width="0.605314" stroke-linecap="round" stroke-linejoin="round"/>
</g>
<defs>
<clipPath id="clip0_1_7374">
<rect width="12.1063" height="12.1063" fill="white" transform="scale(1.07381)"/>
</clipPath>
</defs>
</svg>
