<svg width="32" height="32" viewBox="0 0 32 32" fill="none" xmlns="http://www.w3.org/2000/svg">
<path d="M10.4915 20.6133L9.33333 29.3334L15.4512 25.6627C15.6507 25.543 15.7505 25.4831 15.857 25.4597C15.9512 25.439 16.0488 25.439 16.143 25.4597C16.2495 25.4831 16.3493 25.543 16.5488 25.6627L22.6667 29.3334L21.5092 20.6096M21.9012 5.66525C22.1071 6.16328 22.5024 6.55915 23.0001 6.76582L24.7452 7.48873C25.2433 7.69503 25.639 8.09074 25.8453 8.58881C26.0516 9.08687 26.0516 9.64649 25.8453 10.1446L25.1229 11.8886C24.9165 12.3868 24.9162 12.947 25.1236 13.4451L25.8447 15.1885C25.9469 15.4352 25.9996 15.6996 25.9996 15.9667C25.9997 16.2337 25.9471 16.4982 25.8449 16.7449C25.7427 16.9916 25.5929 17.2158 25.4041 17.4046C25.2152 17.5934 24.991 17.7431 24.7443 17.8452L23.0004 18.5676C22.5023 18.7735 22.1065 19.1688 21.8998 19.6665L21.1769 21.4118C20.9707 21.9098 20.575 22.3055 20.0769 22.5119C19.5789 22.7182 19.0193 22.7182 18.5212 22.5119L16.7773 21.7895C16.2792 21.5837 15.7198 21.5841 15.2221 21.7906L13.4769 22.5125C12.9791 22.7183 12.42 22.7182 11.9224 22.512C11.4247 22.3059 11.0293 21.9106 10.8228 21.4131L10.0997 19.6673C9.8938 19.1693 9.49854 18.7734 9.00085 18.5668L7.25566 17.8439C6.75783 17.6377 6.36226 17.2422 6.15588 16.7444C5.94951 16.2466 5.94923 15.6873 6.1551 15.1893L6.87746 13.4453C7.08325 12.9472 7.08283 12.3878 6.8763 11.89L6.15497 10.1435C6.0527 9.89685 6.00004 9.63243 6 9.36538C5.99996 9.09834 6.05253 8.8339 6.15472 8.58718C6.25691 8.34046 6.40671 8.1163 6.59557 7.9275C6.78442 7.7387 7.00862 7.58897 7.25537 7.48685L8.9993 6.76446C9.49687 6.55872 9.89249 6.16395 10.0993 5.6668L10.8222 3.92156C11.0285 3.42349 11.4242 3.02778 11.9222 2.82148C12.4203 2.61517 12.9799 2.61517 13.4779 2.82148L15.2218 3.54386C15.7199 3.74966 16.2793 3.74924 16.7771 3.54269L18.523 2.8226C19.021 2.61641 19.5804 2.61645 20.0784 2.82271C20.5763 3.02898 20.972 3.42458 21.1783 3.92251L21.9014 5.66828L21.9012 5.66525Z" stroke="#B1060F" stroke-width="2" stroke-linecap="round" stroke-linejoin="round"/>
</svg>
