<svg width="6" height="6" viewBox="0 0 6 6" fill="none" xmlns="http://www.w3.org/2000/svg">
<g clip-path="url(#clip0_1_7525)">
<path d="M3.49997 2.24988H2.87496C2.66785 2.24988 2.49996 2.41777 2.49996 2.62488C2.49996 2.83199 2.66785 2.99988 2.87496 2.99988H3.12496C3.33207 2.99988 3.49997 3.16778 3.49997 3.37488C3.49997 3.58199 3.33207 3.74989 3.12496 3.74989H2.49996M2.99996 1.99988V2.24988M2.99996 3.74989V3.99989M4.49997 2.99988H4.50247M1.49995 2.99988H1.50245M0.499949 2.04988L0.499949 3.94989C0.499949 4.22991 0.499949 4.36993 0.554446 4.47689C0.602383 4.57097 0.678874 4.64746 0.772955 4.69539C0.879912 4.74989 1.01993 4.74989 1.29995 4.74989L4.69997 4.74989C4.98 4.74989 5.12001 4.74989 5.22697 4.69539C5.32105 4.64746 5.39754 4.57097 5.44548 4.47689C5.49998 4.36993 5.49998 4.22992 5.49998 3.94989V2.04988C5.49998 1.76985 5.49998 1.62984 5.44548 1.52288C5.39754 1.4288 5.32105 1.35231 5.22697 1.30437C5.12001 1.24987 4.98 1.24987 4.69997 1.24987L1.29995 1.24987C1.01993 1.24987 0.879912 1.24987 0.772955 1.30437C0.678874 1.35231 0.602383 1.4288 0.554446 1.52288C0.499949 1.62984 0.499949 1.76985 0.499949 2.04988ZM4.62497 2.99988C4.62497 3.06892 4.56901 3.12488 4.49997 3.12488C4.43094 3.12488 4.37497 3.06892 4.37497 2.99988C4.37497 2.93085 4.43094 2.87488 4.49997 2.87488C4.56901 2.87488 4.62497 2.93085 4.62497 2.99988ZM1.62496 2.99988C1.62496 3.06892 1.56899 3.12488 1.49995 3.12488C1.43092 3.12488 1.37495 3.06892 1.37495 2.99988C1.37495 2.93085 1.43092 2.87488 1.49995 2.87488C1.56899 2.87488 1.62496 2.93085 1.62496 2.99988Z" stroke="#696969" stroke-width="0.374308" stroke-linecap="round" stroke-linejoin="round"/>
</g>
<defs>
<clipPath id="clip0_1_7525">
<rect width="5.98892" height="5.98892" fill="white" transform="scale(1.00185)"/>
</clipPath>
</defs>
</svg>
