<svg width="4" height="4" viewBox="0 0 4 4" fill="none" xmlns="http://www.w3.org/2000/svg">
<g clip-path="url(#clip0_1_7164)">
<path d="M2.33323 1.50014H1.91658C1.77851 1.50014 1.66659 1.61207 1.66659 1.75013C1.66659 1.8882 1.77851 2.00012 1.91658 2.00012H2.08324C2.2213 2.00012 2.33323 2.11205 2.33323 2.25011C2.33323 2.38818 2.2213 2.5001 2.08324 2.5001H1.66659M1.99991 1.33348V1.50014M1.99991 2.5001V2.66676M2.99986 2.00012H3.00153M0.99995 2.00012H1.00162M0.333312 1.36682L0.333312 2.63343C0.333312 2.82011 0.333312 2.91344 0.369641 2.98474C0.401598 3.04746 0.452589 3.09845 0.515307 3.13041C0.586608 3.16674 0.679946 3.16674 0.866622 3.16674L3.13319 3.16674C3.31987 3.16674 3.41321 3.16674 3.48451 3.13041C3.54723 3.09845 3.59822 3.04746 3.63017 2.98474C3.6665 2.91344 3.6665 2.82011 3.6665 2.63343V1.36682C3.6665 1.18014 3.6665 1.0868 3.63017 1.0155C3.59822 0.952784 3.54723 0.901793 3.48451 0.869836C3.41321 0.833506 3.31987 0.833506 3.13319 0.833506L0.866622 0.833506C0.679946 0.833506 0.586608 0.833506 0.515307 0.869836C0.452589 0.901792 0.401598 0.952784 0.369641 1.0155C0.333312 1.0868 0.333312 1.18014 0.333312 1.36682ZM3.08319 2.00012C3.08319 2.04614 3.04589 2.08345 2.99986 2.08345C2.95384 2.08345 2.91653 2.04614 2.91653 2.00012C2.91653 1.9541 2.95384 1.91679 2.99986 1.91679C3.04589 1.91679 3.08319 1.9541 3.08319 2.00012ZM1.08328 2.00012C1.08328 2.04614 1.04597 2.08345 0.99995 2.08345C0.953928 2.08345 0.91662 2.04614 0.91662 2.00012C0.91662 1.9541 0.953928 1.91679 0.99995 1.91679C1.04597 1.91679 1.08328 1.9541 1.08328 2.00012Z" stroke="#696969" stroke-width="0.235342" stroke-linecap="round" stroke-linejoin="round"/>
</g>
<defs>
<clipPath id="clip0_1_7164">
<rect width="3.76546" height="3.76546" fill="white" transform="scale(1.06224)"/>
</clipPath>
</defs>
</svg>
