<svg width="13" height="13" viewBox="0 0 13 13" fill="none" xmlns="http://www.w3.org/2000/svg">
<path d="M1.6243 4.2241C1.6243 3.31402 1.6243 2.85898 1.80142 2.51137C1.95721 2.20561 2.2058 1.95702 2.51156 1.80123C2.85917 1.62411 3.31421 1.62411 4.22429 1.62411H8.77426C9.68434 1.62411 10.1394 1.62411 10.487 1.80123C10.7927 1.95702 11.0413 2.20561 11.1971 2.51137C11.3742 2.85898 11.3742 3.31402 11.3742 4.2241V8.77407C11.3742 9.68415 11.3742 10.1392 11.1971 10.4868C11.0413 10.7926 10.7927 11.0411 10.487 11.1969C10.1394 11.3741 9.68434 11.3741 8.77426 11.3741H4.22429C3.31421 11.3741 2.85917 11.3741 2.51156 11.1969C2.2058 11.0411 1.95721 10.7926 1.80142 10.4868C1.6243 10.1392 1.6243 9.68415 1.6243 8.77407V4.2241Z" fill="#B1060F" fill-opacity="0.7" stroke="#B1060F" stroke-width="0.938007" stroke-linecap="round" stroke-linejoin="round"/>
<path d="M4.33232 7.04025V9.2069M8.66562 5.95692V9.2069M6.49897 3.79027V9.2069" stroke="white" stroke-width="0.938007" stroke-linecap="round" stroke-linejoin="round"/>
</svg>
