<svg width="6" height="6" viewBox="0 0 6 6" fill="none" xmlns="http://www.w3.org/2000/svg">
<g clip-path="url(#clip0_1_6916)">
<path d="M3.74979 4.74983C3.74979 5.16403 3.41401 5.4998 2.99981 5.4998C2.58561 5.4998 2.24983 5.16403 2.24983 4.74983M3.44892 1.55956C3.55779 1.44709 3.62479 1.29384 3.62479 1.12494C3.62479 0.779768 3.34498 0.499955 2.99981 0.499955C2.65464 0.499955 2.37483 0.779768 2.37483 1.12494C2.37483 1.29384 2.44183 1.44709 2.5507 1.55956M4.49976 2.79989C4.49976 2.45511 4.34173 2.12446 4.06044 1.88067C3.77914 1.63688 3.39762 1.49992 2.99981 1.49992C2.602 1.49992 2.22048 1.63688 1.93918 1.88067C1.65788 2.12446 1.49985 2.45511 1.49985 2.79989C1.49985 3.37032 1.35839 3.7875 1.18188 4.08602C0.980703 4.42624 0.880116 4.59636 0.884088 4.63699C0.888632 4.68348 0.897 4.69815 0.934705 4.72573C0.967662 4.74983 1.13324 4.74983 1.4644 4.74983H4.53522C4.86638 4.74983 5.03196 4.74983 5.06491 4.72573C5.10262 4.69815 5.11098 4.68348 5.11553 4.63699C5.1195 4.59636 5.01891 4.42624 4.81774 4.08602C4.64123 3.7875 4.49976 3.37032 4.49976 2.79989Z" stroke="#A0A0A0" stroke-width="0.448269" stroke-linecap="round" stroke-linejoin="round"/>
</g>
<defs>
<clipPath id="clip0_1_6916">
<rect width="5.37923" height="5.37923" fill="white" transform="scale(1.11537)"/>
</clipPath>
</defs>
</svg>
