<svg width="41" height="41" viewBox="0 0 41 41" fill="none" xmlns="http://www.w3.org/2000/svg">
<path d="M20.4999 35.8749L20.329 35.6185C19.1423 33.8385 18.549 32.9485 17.765 32.3042C17.071 31.7338 16.2714 31.3058 15.4118 31.0448C14.4409 30.7499 13.3712 30.7499 11.2319 30.7499H8.88328C6.96977 30.7499 6.01301 30.7499 5.28215 30.3775C4.63927 30.05 4.11658 29.5273 3.78902 28.8844C3.41663 28.1535 3.41663 27.1968 3.41663 25.2833V10.5916C3.41663 8.67814 3.41663 7.72139 3.78902 6.99053C4.11658 6.34764 4.63927 5.82496 5.28215 5.49739C6.01301 5.125 6.96977 5.125 8.88328 5.125H9.56661C13.3936 5.125 15.3071 5.125 16.7689 5.86979C18.0546 6.52492 19.1 7.57028 19.7551 8.85605C20.4999 10.3178 20.4999 12.2313 20.4999 16.0583M20.4999 35.8749V16.0583M20.4999 35.8749L20.6708 35.6185C21.8575 33.8385 22.4508 32.9485 23.2348 32.3042C23.9288 31.7338 24.7284 31.3058 25.588 31.0448C26.5589 30.7499 27.6286 30.7499 29.7679 30.7499H32.1165C34.03 30.7499 34.9868 30.7499 35.7177 30.3775C36.3605 30.05 36.8832 29.5273 37.2108 28.8844C37.5832 28.1535 37.5832 27.1968 37.5832 25.2833V10.5916C37.5832 8.67814 37.5832 7.72139 37.2108 6.99053C36.8832 6.34764 36.3605 5.82496 35.7177 5.49739C34.9868 5.125 34.03 5.125 32.1165 5.125H31.4332C27.6062 5.125 25.6927 5.125 24.231 5.86979C22.9452 6.52492 21.8998 7.57028 21.2447 8.85605C20.4999 10.3178 20.4999 12.2313 20.4999 16.0583" stroke="#B1060F" stroke-width="2.4171" stroke-linecap="round" stroke-linejoin="round"/>
</svg>
