<svg width="89" height="96" viewBox="0 0 89 96" fill="none" xmlns="http://www.w3.org/2000/svg">
<g clip-path="url(#clip0_1_7928)">
<path d="M19.8097 3.01412L77.1902 1.58467L70.3511 92.5628L12.9706 93.9922L19.8097 3.01412Z" fill="white"/>
<path d="M-7.74569 4.17987L20.9366 3.46534L14.1814 93.3267L-14.5009 94.0412L-7.74569 4.17987ZM78.3171 2.03589L106.999 1.32136L100.244 91.1827L71.5619 91.8972L78.3171 2.03589ZM26.2566 46.6728L23.976 47.5705L33.5753 57.4043C34.1719 59.9821 33.054 60.7632 32.2701 62.1492L43.6337 60.2895L42.4053 72.8456L44.7559 72.6994L45.1687 60.2687L56.3344 61.4621C55.7602 59.8472 55.2072 59.0026 56.036 56.3893L67.113 46.5659L65.3615 45.8913C63.9691 44.6472 66.4542 39.7678 67.0005 36.706C67.0005 36.706 60.7935 39.1555 60.4886 37.9543L59.1647 34.7465L53.1835 41.5524C52.5684 41.7429 52.3361 41.4684 52.2358 40.9103L55.8214 26.859L51.6099 29.469C51.2655 29.6352 50.9447 29.4856 50.7547 29.0699L47.5209 20.5665L42.8582 29.5994C42.5335 29.9228 42.23 29.9654 41.9924 29.7611L38.3391 27.4697L39.5906 41.3129C39.3768 41.8438 38.9202 42.0303 38.4358 41.7446L33.6605 35.2417C32.8871 36.4872 32.2616 38.4999 31.3245 38.9787C30.3914 39.4048 27.4297 38.2173 25.4236 37.7768C25.9107 40.55 27.748 45.1291 26.2553 46.6903L26.2566 46.6728Z" fill="#D52B1E"/>
</g>
<defs>
<clipPath id="clip0_1_7928">
<rect width="80.9977" height="94.1088" fill="white" transform="matrix(1.00114 -0.02494 -0.0750707 0.998629 7.06477 2.0205)"/>
</clipPath>
</defs>
</svg>
