<svg width="6" height="6" viewBox="0 0 6 6" fill="none" xmlns="http://www.w3.org/2000/svg">
<g clip-path="url(#clip0_1_7532)">
<path d="M5.25007 2.49996H0.750046M4.00006 0.499949V1.49995M2.00005 0.499949V1.49995M2.62506 3.49997L3.00006 3.24996V4.49997M2.68756 4.49997H3.31256M1.95005 5.49998H4.05006C4.47011 5.49998 4.68013 5.49998 4.84056 5.41823C4.98168 5.34633 5.09642 5.23159 5.16833 5.09047C5.25007 4.93003 5.25007 4.72001 5.25007 4.29997V2.19996C5.25007 1.77992 5.25007 1.5699 5.16833 1.40946C5.09642 1.26834 4.98168 1.1536 4.84056 1.0817C4.68013 0.999952 4.47011 0.999952 4.05006 0.999952H1.95005C1.53001 0.999952 1.31999 0.999952 1.15956 1.0817C1.01843 1.1536 0.903697 1.26834 0.831791 1.40946C0.750046 1.5699 0.750046 1.77992 0.750046 2.19996V4.29997C0.750046 4.72001 0.750046 4.93003 0.831791 5.09047C0.903697 5.23159 1.01843 5.34633 1.15956 5.41823C1.31999 5.49998 1.53001 5.49998 1.95005 5.49998Z" stroke="#696969" stroke-width="0.374308" stroke-linecap="round" stroke-linejoin="round"/>
</g>
<defs>
<clipPath id="clip0_1_7532">
<rect width="5.98892" height="5.98892" fill="white" transform="scale(1.00185)"/>
</clipPath>
</defs>
</svg>
