<svg width="4" height="4" viewBox="0 0 4 4" fill="none" xmlns="http://www.w3.org/2000/svg">
<g clip-path="url(#clip0_1_7170)">
<path d="M3.49987 1.66678H0.5M2.66657 0.333506V1.00014M1.3333 0.333506V1.00014M1.74995 2.33342L1.99994 2.16676V3.00006M1.79161 3.00006H2.20826M1.29997 3.6667H2.69991C2.97992 3.6667 3.11993 3.6667 3.22688 3.6122C3.32096 3.56427 3.39744 3.48778 3.44538 3.3937C3.49987 3.28675 3.49987 3.14675 3.49987 2.86673V1.46679C3.49987 1.18678 3.49987 1.04677 3.44538 0.939818C3.39744 0.845741 3.32096 0.769254 3.22688 0.72132C3.11993 0.666825 2.97992 0.666825 2.69991 0.666825H1.29997C1.01995 0.666825 0.879944 0.666825 0.772993 0.72132C0.678916 0.769254 0.602429 0.845741 0.554494 0.939818C0.5 1.04677 0.5 1.18678 0.5 1.46679V2.86673C0.5 3.14675 0.5 3.28675 0.554494 3.3937C0.602429 3.48778 0.678916 3.56427 0.772993 3.6122C0.879944 3.6667 1.01995 3.6667 1.29997 3.6667Z" stroke="#696969" stroke-width="0.235342" stroke-linecap="round" stroke-linejoin="round"/>
</g>
<defs>
<clipPath id="clip0_1_7170">
<rect width="3.76546" height="3.76546" fill="white" transform="scale(1.06224)"/>
</clipPath>
</defs>
</svg>
