<svg width="4" height="4" viewBox="0 0 4 4" fill="none" xmlns="http://www.w3.org/2000/svg">
<g clip-path="url(#clip0_1_7229)">
<path d="M2.25481 1.3921C2.15941 1.46012 2.04267 1.50012 1.91658 1.50012C1.59443 1.50012 1.33327 1.23897 1.33327 0.916815C1.33327 0.594662 1.59443 0.333506 1.91658 0.333506C2.1254 0.333506 2.30859 0.443238 2.41164 0.608185M0.99995 3.3479H1.43498C1.4917 3.3479 1.54807 3.35465 1.60306 3.36815L2.06272 3.47985C2.16246 3.50415 2.26636 3.50651 2.36714 3.48694L2.87537 3.38806C3.00962 3.36191 3.13312 3.29762 3.22991 3.20347L3.58949 2.85368C3.69217 2.75396 3.69217 2.59215 3.58949 2.49226C3.49704 2.40232 3.35064 2.3922 3.24604 2.46847L2.82697 2.77421C2.76696 2.81808 2.69393 2.8417 2.61882 2.8417H2.21415L2.47173 2.84169C2.61692 2.84169 2.73452 2.72729 2.73452 2.58606V2.53494C2.73452 2.41767 2.65247 2.31542 2.53556 2.28707L2.138 2.19038C2.0733 2.17469 2.00704 2.16676 1.94043 2.16676C1.77964 2.16676 1.48858 2.29989 1.48858 2.29989L0.99995 2.50423M3.33318 1.08347C3.33318 1.40563 3.07203 1.66678 2.74988 1.66678C2.42772 1.66678 2.16657 1.40563 2.16657 1.08347C2.16657 0.761322 2.42772 0.500166 2.74988 0.500166C3.07203 0.500166 3.33318 0.761322 3.33318 1.08347ZM0.333312 2.43342L0.333312 3.40004C0.333312 3.49338 0.333312 3.54005 0.351477 3.5757C0.367455 3.60706 0.39295 3.63255 0.424309 3.64853C0.45996 3.6667 0.506629 3.6667 0.599967 3.6667H0.733295C0.826633 3.6667 0.873302 3.6667 0.908952 3.64853C0.940311 3.63255 0.965807 3.60706 0.981785 3.5757C0.99995 3.54005 0.99995 3.49338 0.99995 3.40004V2.43342C0.99995 2.34008 0.99995 2.29341 0.981785 2.25776C0.965807 2.2264 0.940311 2.2009 0.908952 2.18493C0.873302 2.16676 0.826633 2.16676 0.733295 2.16676L0.599967 2.16676C0.506629 2.16676 0.45996 2.16676 0.424309 2.18493C0.39295 2.2009 0.367455 2.2264 0.351477 2.25776C0.333312 2.29341 0.333312 2.34008 0.333312 2.43342Z" stroke="#696969" stroke-width="0.235342" stroke-linecap="round" stroke-linejoin="round"/>
</g>
<defs>
<clipPath id="clip0_1_7229">
<rect width="3.76546" height="3.76546" fill="white" transform="scale(1.06224)"/>
</clipPath>
</defs>
</svg>
