<svg width="5" height="5" viewBox="0 0 5 5" fill="none" xmlns="http://www.w3.org/2000/svg">
<g clip-path="url(#clip0_1_7032)">
<path d="M2.70835 1.04185C2.70835 1.27197 2.19535 1.45852 1.56252 1.45852C0.929701 1.45852 0.416696 1.27197 0.416696 1.04185M2.70835 1.04185C2.70835 0.811733 2.19535 0.625186 1.56252 0.625186C0.929701 0.625186 0.416696 0.811733 0.416696 1.04185M2.70835 1.04185V1.97042C2.45387 2.04684 2.29169 2.16246 2.29169 2.29185M0.416696 1.04185V3.54184C0.416696 3.77196 0.929701 3.95851 1.56252 3.95851C1.83953 3.95851 2.09358 3.92276 2.29169 3.86327V2.29185M0.416696 1.87518C0.416696 2.1053 0.929701 2.29185 1.56252 2.29185C1.83953 2.29185 2.09358 2.2561 2.29169 2.19661M0.416696 2.70851C0.416696 2.93863 0.929701 3.12518 1.56252 3.12518C1.83953 3.12518 2.09358 3.08943 2.29169 3.02994M4.58335 2.29185C4.58335 2.52196 4.07034 2.70851 3.43752 2.70851C2.80469 2.70851 2.29169 2.52196 2.29169 2.29185M4.58335 2.29185C4.58335 2.06173 4.07034 1.87518 3.43752 1.87518C2.80469 1.87518 2.29169 2.06173 2.29169 2.29185M4.58335 2.29185V3.95851C4.58335 4.18862 4.07034 4.37517 3.43752 4.37517C2.80469 4.37517 2.29169 4.18862 2.29169 3.95851V2.29185M4.58335 3.12518C4.58335 3.35529 4.07034 3.54184 3.43752 3.54184C2.80469 3.54184 2.29169 3.35529 2.29169 3.12518" stroke="#212121" stroke-width="0.403443" stroke-linecap="round" stroke-linejoin="round"/>
</g>
<defs>
<clipPath id="clip0_1_7032">
<rect width="4.30339" height="4.30339" fill="white" transform="scale(1.16187)"/>
</clipPath>
</defs>
</svg>
