<svg width="6" height="6" viewBox="0 0 6 6" fill="none" xmlns="http://www.w3.org/2000/svg">
<g clip-path="url(#clip0_1_7539)">
<path d="M3.38234 2.08792C3.23923 2.18995 3.06411 2.24996 2.87496 2.24996C2.39171 2.24996 1.99996 1.85821 1.99996 1.37495C1.99996 0.891702 2.39171 0.499949 2.87496 0.499949C3.18821 0.499949 3.46301 0.664554 3.61759 0.911987M1.49995 5.02176H2.15253C2.23762 5.02176 2.32218 5.03189 2.40466 5.05214L3.09419 5.2197C3.2438 5.25614 3.39966 5.25969 3.55083 5.23033L4.31321 5.082C4.51461 5.04277 4.69987 4.94634 4.84506 4.8051L5.38445 4.2804C5.53849 4.13081 5.53849 3.88808 5.38445 3.73823C5.24576 3.60333 5.02616 3.58814 4.86926 3.70254L4.24062 4.16118C4.15059 4.22699 4.04105 4.26243 3.92838 4.26243H3.32134L3.70773 4.26241C3.92552 4.26241 4.10193 4.0908 4.10193 3.87895V3.80225C4.10193 3.62634 3.97886 3.47296 3.80349 3.43043L3.20711 3.2854C3.11006 3.26186 3.01066 3.24996 2.91075 3.24996C2.66954 3.24996 2.23293 3.44967 2.23293 3.44967L1.49995 3.75619M4.99997 1.62496C4.99997 2.10821 4.60822 2.49996 4.12497 2.49996C3.64172 2.49996 3.24996 2.10821 3.24996 1.62496C3.24996 1.1417 3.64172 0.74995 4.12497 0.74995C4.60822 0.74995 4.99997 1.1417 4.99997 1.62496ZM0.499949 3.64997L0.499949 5.09997C0.499949 5.23999 0.499949 5.31 0.527198 5.36347C0.551166 5.41051 0.589411 5.44876 0.636452 5.47273C0.68993 5.49998 0.759937 5.49998 0.899951 5.49998H1.09995C1.23997 5.49998 1.30997 5.49998 1.36345 5.47273C1.41049 5.44876 1.44874 5.41051 1.47271 5.36347C1.49995 5.31 1.49995 5.23999 1.49995 5.09997V3.64997C1.49995 3.50995 1.49995 3.43995 1.47271 3.38647C1.44874 3.33943 1.41049 3.30118 1.36345 3.27721C1.30997 3.24996 1.23997 3.24996 1.09995 3.24996L0.899951 3.24996C0.759937 3.24996 0.68993 3.24996 0.636452 3.27721C0.589411 3.30118 0.551166 3.33943 0.527198 3.38647C0.499949 3.43995 0.499949 3.50995 0.499949 3.64997Z" stroke="#696969" stroke-width="0.374308" stroke-linecap="round" stroke-linejoin="round"/>
</g>
<defs>
<clipPath id="clip0_1_7539">
<rect width="5.98892" height="5.98892" fill="white" transform="scale(1.00185)"/>
</clipPath>
</defs>
</svg>
