<svg width="10" height="10" viewBox="0 0 10 10" fill="none" xmlns="http://www.w3.org/2000/svg">
<g clip-path="url(#clip0_1_7383)">
<path d="M3.74997 9.16657C5.3608 9.16657 6.66663 7.86073 6.66663 6.2499C6.66663 4.63907 5.3608 3.33323 3.74997 3.33323C2.13914 3.33323 0.8333 4.63907 0.8333 6.2499C0.8333 7.86073 2.13914 9.16657 3.74997 9.16657Z" fill="#B1060F" fill-opacity="0.7"/>
<path d="M6.64069 6.64062C8.06677 6.44969 9.16663 5.22824 9.16663 3.7499C9.16663 2.13907 7.8608 0.833233 6.24997 0.833233C4.77162 0.833233 3.55017 1.9331 3.35924 3.35918M6.66663 6.2499C6.66663 7.86073 5.3608 9.16657 3.74997 9.16657C2.13914 9.16657 0.8333 7.86073 0.8333 6.2499C0.8333 4.63907 2.13914 3.33323 3.74997 3.33323C5.3608 3.33323 6.66663 4.63907 6.66663 6.2499Z" stroke="#B1060F" stroke-width="0.4565" stroke-linecap="round" stroke-linejoin="round"/>
</g>
<defs>
<clipPath id="clip0_1_7383">
<rect width="9.13" height="9.13" fill="white" transform="scale(1.09529)"/>
</clipPath>
</defs>
</svg>
