<svg width="32" height="32" viewBox="0 0 32 32" fill="none" xmlns="http://www.w3.org/2000/svg">
<path d="M12 2.66675V5.33341M20 2.66675V5.33341M12 26.6667V29.3334M20 26.6667V29.3334M26.6667 12.0001H29.3333M26.6667 18.6667H29.3333M2.66666 12.0001H5.33332M2.66666 18.6667H5.33332M11.7333 26.6667H20.2667C22.5069 26.6667 23.627 26.6667 24.4826 26.2308C25.2353 25.8473 25.8472 25.2354 26.2307 24.4827C26.6667 23.6271 26.6667 22.507 26.6667 20.2667V11.7334C26.6667 9.4932 26.6667 8.3731 26.2307 7.51745C25.8472 6.7648 25.2353 6.15288 24.4826 5.76939C23.627 5.33341 22.5069 5.33341 20.2667 5.33341H11.7333C9.49311 5.33341 8.37301 5.33341 7.51736 5.76939C6.76471 6.15288 6.15279 6.7648 5.7693 7.51745C5.33332 8.3731 5.33332 9.4932 5.33332 11.7334V20.2667C5.33332 22.507 5.33332 23.6271 5.7693 24.4827C6.15279 25.2354 6.76471 25.8473 7.51736 26.2308C8.37301 26.6667 9.49311 26.6667 11.7333 26.6667ZM14.1333 20.0001H17.8667C18.6134 20.0001 18.9868 20.0001 19.272 19.8548C19.5229 19.7269 19.7268 19.523 19.8547 19.2721C20 18.9869 20 18.6135 20 17.8667V14.1334C20 13.3867 20 13.0133 19.8547 12.7281C19.7268 12.4772 19.5229 12.2732 19.272 12.1454C18.9868 12.0001 18.6134 12.0001 17.8667 12.0001H14.1333C13.3866 12.0001 13.0132 12.0001 12.728 12.1454C12.4771 12.2732 12.2731 12.4772 12.1453 12.7281C12 13.0133 12 13.3867 12 14.1334V17.8667C12 18.6135 12 18.9869 12.1453 19.2721C12.2731 19.523 12.4771 19.7269 12.728 19.8548C13.0132 20.0001 13.3866 20.0001 14.1333 20.0001Z" stroke="#B1060F" stroke-width="2" stroke-linecap="round" stroke-linejoin="round"/>
</svg>
