<svg width="11" height="11" viewBox="0 0 11 11" fill="none" xmlns="http://www.w3.org/2000/svg">
<path d="M1.83332 5.95848C2.08646 5.95848 2.29166 5.75328 2.29166 5.50015C2.29166 5.24702 2.08646 5.04182 1.83332 5.04182C1.58019 5.04182 1.37499 5.24702 1.37499 5.50015C1.37499 5.75328 1.58019 5.95848 1.83332 5.95848Z" fill="#B1060F" fill-opacity="0.5"/>
<path d="M1.83332 3.20849C2.08646 3.20849 2.29166 3.00329 2.29166 2.75016C2.29166 2.49702 2.08646 2.29182 1.83332 2.29182C1.58019 2.29182 1.37499 2.49702 1.37499 2.75016C1.37499 3.00329 1.58019 3.20849 1.83332 3.20849Z" fill="#B1060F" fill-opacity="0.5"/>
<path d="M1.83332 8.70848C2.08646 8.70848 2.29166 8.50328 2.29166 8.25015C2.29166 7.99702 2.08646 7.79182 1.83332 7.79182C1.58019 7.79182 1.37499 7.99702 1.37499 8.25015C1.37499 8.50328 1.58019 8.70848 1.83332 8.70848Z" fill="#B1060F" fill-opacity="0.5"/>
<path d="M9.62498 5.50015L4.12499 5.50015M9.62498 2.75016L4.12499 2.75016M9.62498 8.25015L4.12499 8.25015M2.29166 5.50015C2.29166 5.75328 2.08646 5.95848 1.83332 5.95848C1.58019 5.95848 1.37499 5.75328 1.37499 5.50015C1.37499 5.24702 1.58019 5.04182 1.83332 5.04182C2.08646 5.04182 2.29166 5.24702 2.29166 5.50015ZM2.29166 2.75016C2.29166 3.00329 2.08646 3.20849 1.83332 3.20849C1.58019 3.20849 1.37499 3.00329 1.37499 2.75016C1.37499 2.49702 1.58019 2.29182 1.83332 2.29182C2.08646 2.29182 2.29166 2.49702 2.29166 2.75016ZM2.29166 8.25015C2.29166 8.50328 2.08646 8.70848 1.83332 8.70848C1.58019 8.70848 1.37499 8.50328 1.37499 8.25015C1.37499 7.99702 1.58019 7.79182 1.83332 7.79182C2.08646 7.79182 2.29166 7.99702 2.29166 8.25015Z" stroke="#B1060F" stroke-width="0.529885" stroke-linecap="round" stroke-linejoin="round"/>
</svg>
