<svg width="6" height="6" viewBox="0 0 6 6" fill="none" xmlns="http://www.w3.org/2000/svg">
<g clip-path="url(#clip0_0_337)">
<g opacity="0.8">
<path d="M0.830403 1.6975V1.69778L0.8068 1.68126C0.781028 1.66321 0.76082 1.63811 0.748467 1.60887C0.736116 1.57964 0.732109 1.54746 0.736893 1.51602C0.741678 1.48458 0.755068 1.45513 0.775557 1.43108C0.796048 1.40703 0.822811 1.38937 0.852775 1.38018L0.85279 1.38018L2.93099 0.745269L2.931 0.745266L0.830403 1.6975ZM0.830403 1.6975L1.63482 2.2564V3.20526C1.63482 3.31015 1.70791 3.39881 1.84177 3.47129C1.7469 3.66901 1.70189 3.88793 1.71096 4.10812C1.72022 4.33317 1.78566 4.55207 1.90107 4.74396C2.01649 4.93584 2.17803 5.09433 2.37034 5.20428C2.56265 5.31423 2.77931 5.37197 2.99965 5.37197C3.22 5.37197 3.43665 5.31423 3.62897 5.20428C3.82128 5.09433 3.98282 4.93584 4.09823 4.74396C4.21364 4.55207 4.27909 4.33317 4.28835 4.10812C4.29741 3.88793 4.25241 3.66901 4.15754 3.47129C4.29139 3.39881 4.36448 3.31015 4.36448 3.20526V2.25625L4.63444 2.0687V2.36512C4.58537 2.3854 4.54418 2.42172 4.51737 2.46848C4.48879 2.51834 4.47837 2.57689 4.48791 2.63381C4.49746 2.69073 4.52637 2.74243 4.56963 2.77975C4.6129 2.81707 4.66773 2.83758 4.72443 2.83758C4.78114 2.83758 4.83597 2.81707 4.87924 2.77975C4.9225 2.74243 4.95141 2.69073 4.96096 2.63381C4.9705 2.57689 4.96008 2.51834 4.9315 2.46848C4.90469 2.42172 4.8635 2.3854 4.81442 2.36512V1.94367L5.19298 1.68068L5.19302 1.68065C5.21878 1.66263 5.23898 1.63754 5.2513 1.60832C5.26362 1.57911 5.26759 1.54694 5.26276 1.51553C5.25792 1.48412 5.24448 1.45473 5.22394 1.43076L0.830403 1.6975ZM5.14665 1.38017C5.14664 1.38017 5.14663 1.38017 5.14662 1.38016L3.06809 0.745269L5.14665 1.38017ZM2.98259 0.920733L2.98264 0.920717C2.99364 0.917314 3.00537 0.917314 3.01637 0.920718L3.01642 0.920733L4.63444 1.41521V1.84704L4.31411 2.06957C4.27348 2.01546 4.20968 1.96849 4.12971 1.92825C4.0435 1.88486 3.93735 1.84871 3.81834 1.81977C3.58032 1.76189 3.28925 1.73246 2.99965 1.73246C2.71005 1.73246 2.41896 1.76189 2.18093 1.81974C2.06191 1.84867 1.95576 1.88479 1.86954 1.92815C1.78957 1.96836 1.72577 2.01528 1.68513 2.06934L0.933833 1.5467L2.98259 0.920733ZM4.72443 2.65318C4.71265 2.65318 4.7011 2.6496 4.69124 2.64287C4.68138 2.63612 4.67364 2.6265 4.66906 2.61519C4.66447 2.60386 4.66327 2.59139 4.66561 2.57935C4.66795 2.56731 4.67372 2.55629 4.68214 2.54768C4.69055 2.53907 4.70122 2.53325 4.7128 2.5309C4.72436 2.52854 4.73636 2.52975 4.74728 2.53438C4.7582 2.53901 4.7676 2.54687 4.77423 2.55703C4.78086 2.56719 4.78443 2.57917 4.78443 2.59145C4.78443 2.60793 4.77802 2.62367 4.76673 2.63522C4.75546 2.64676 4.74023 2.65318 4.72443 2.65318ZM1.8148 2.95611V2.20782C1.8148 2.19918 1.81903 2.18758 1.83069 2.17326C1.84224 2.15909 1.86012 2.14345 1.88484 2.12705C1.93424 2.09428 2.00898 2.05979 2.10895 2.0284C2.30873 1.96565 2.60712 1.91591 2.99965 1.91591C3.39218 1.91591 3.69058 1.96565 3.89036 2.0284C3.99033 2.05979 4.06506 2.09428 4.11446 2.12705C4.13918 2.14345 4.15706 2.15909 4.16861 2.17326C4.18027 2.18758 4.1845 2.19918 4.1845 2.20782V2.95611C4.06427 2.88333 3.89175 2.82816 3.69383 2.79053C3.4824 2.75034 3.24059 2.72991 2.99965 2.72991C2.75871 2.72991 2.51691 2.75034 2.30548 2.79053C2.10755 2.82816 1.93504 2.88333 1.8148 2.95611ZM1.8148 3.20526C1.8148 3.19416 1.82192 3.17837 1.84182 3.15877C1.86133 3.13955 1.89127 3.11857 1.93204 3.09721C2.00117 3.06098 2.09984 3.02447 2.22744 2.99363C2.11219 3.08203 2.01203 3.18952 1.93116 3.31177C1.88908 3.28941 1.86011 3.26805 1.84153 3.24948C1.82071 3.22869 1.8148 3.21336 1.8148 3.20526ZM2.99964 5.18515C2.78021 5.18514 2.56568 5.11857 2.38318 4.9938C2.20067 4.86903 2.05837 4.69165 1.97432 4.48405C1.89028 4.27645 1.86828 4.048 1.91113 3.82759C1.95398 3.60718 2.05974 3.40477 2.21498 3.24593C2.37022 3.0871 2.56797 2.97897 2.78319 2.93517C2.99842 2.89137 3.22151 2.91385 3.42426 2.99977C3.62703 3.08571 3.80039 3.23125 3.92238 3.41805C4.04437 3.60485 4.10951 3.82451 4.10951 4.04924C4.10918 4.3505 3.99206 4.63927 3.78395 4.85219C3.57585 5.06511 3.29378 5.18481 2.99964 5.18515ZM4.15777 3.24952C4.13918 3.26811 4.11021 3.28953 4.06814 3.31198C3.98724 3.18971 3.88705 3.0822 3.77177 2.99379C3.89942 3.02455 3.99812 3.06102 4.06727 3.09724C4.10804 3.11859 4.13797 3.13956 4.15749 3.15877C4.17739 3.17837 4.1845 3.19416 4.1845 3.20526C4.1845 3.21336 4.17859 3.22869 4.15777 3.24952ZM5.06583 1.54728L4.81442 1.72171V1.4702L5.06583 1.54728Z" fill="#696969" stroke="#696969" stroke-width="0.0264052"/>
<path d="M2.5347 4.43269L2.5347 4.43266C2.5347 4.40845 2.5441 4.38515 2.56093 4.36793C2.57778 4.35069 2.60071 4.34094 2.62469 4.34094C2.64866 4.34094 2.67159 4.35069 2.68844 4.36793L2.5347 4.43269ZM2.5347 4.43269C2.5349 4.54482 2.57383 4.65332 2.64468 4.739C2.71282 4.8214 2.80627 4.87762 2.90965 4.89856V4.96975C2.90965 4.99397 2.91905 5.01726 2.93588 5.03449C2.95273 5.05172 2.97566 5.06147 2.99964 5.06147C3.02362 5.06147 3.04654 5.05172 3.06339 5.03449C3.08023 5.01726 3.08963 4.99397 3.08963 4.96975V4.89858C3.19308 4.8778 3.28662 4.82162 3.35478 4.73918C3.42566 4.65345 3.46451 4.54485 3.46451 4.43266C3.46451 4.32048 3.42566 4.21188 3.35478 4.12615C3.28662 4.04371 3.19308 3.98753 3.08963 3.96675V3.38958M2.5347 4.43269L3.07463 3.38493M3.2846 3.66543C3.28461 3.68964 3.29401 3.71292 3.31084 3.73014M3.2846 3.66543C3.2846 3.66542 3.2846 3.66541 3.2846 3.6654H3.2996M3.2846 3.66543C3.2846 3.66544 3.2846 3.66545 3.2846 3.66546L3.2996 3.6654M3.2846 3.66543C3.28436 3.60082 3.2632 3.53816 3.22449 3.48723C3.18982 3.44161 3.14283 3.40772 3.08963 3.38958M3.31084 3.73014L3.2996 3.6654M3.31084 3.73014C3.32769 3.74738 3.35061 3.75713 3.37459 3.75713C3.39857 3.75713 3.4215 3.74738 3.43834 3.73014C3.45518 3.71291 3.46458 3.68962 3.46458 3.6654L3.46458 3.66537C3.46438 3.55324 3.42545 3.44475 3.35459 3.35906C3.28646 3.27666 3.193 3.22044 3.08963 3.19951V3.12832C3.08963 3.1041 3.08023 3.08081 3.06339 3.06358C3.04654 3.04634 3.02362 3.03659 2.99964 3.03659C2.97566 3.03659 2.95273 3.04634 2.93588 3.06358C2.91905 3.08081 2.90965 3.1041 2.90965 3.12832V3.19949M3.31084 3.73014L2.90965 3.19949M3.2996 3.6654C3.29935 3.59756 3.27714 3.53171 3.23644 3.47816C3.19893 3.42881 3.14768 3.39246 3.08963 3.37378V3.38958M3.08963 3.38958C3.08468 3.3879 3.07968 3.38634 3.07463 3.38493M3.07463 3.38493V3.36939V3.38493ZM2.69968 4.43266C2.69968 4.41232 2.69178 4.3928 2.67771 4.37841C2.66365 4.36402 2.64457 4.35594 2.62469 4.35594C2.6048 4.35594 2.58572 4.36402 2.57166 4.37841C2.5576 4.3928 2.54969 4.41232 2.54969 4.43266C2.54989 4.54135 2.58763 4.64647 2.65624 4.72944C2.72485 4.81242 2.81992 4.86791 2.92465 4.88612L2.65606 3.36844C2.58742 3.45146 2.54977 3.55667 2.54977 3.6654C2.54977 3.77413 2.58742 3.87934 2.65606 3.96236C2.72469 4.04537 2.81985 4.10082 2.92465 4.11885V4.71313C2.9196 4.71172 2.9146 4.71017 2.90965 4.70848M2.69968 4.43266C2.69992 4.50051 2.72214 4.56635 2.76284 4.61991C2.80034 4.66926 2.8516 4.70561 2.90965 4.72428V4.70848M2.69968 4.43266H2.71468C2.71468 4.43265 2.71468 4.43265 2.71468 4.43264C2.71492 4.49724 2.73607 4.5599 2.77478 4.61083C2.80945 4.65645 2.85644 4.69034 2.90965 4.70848M2.69968 4.43266L2.71468 4.43261L2.90965 3.19949M2.90965 4.70848V4.13131C2.8062 4.11054 2.71265 4.05436 2.6445 3.97192C2.57362 3.88618 2.53477 3.77758 2.53477 3.6654C2.53477 3.55322 2.57362 3.44462 2.6445 3.35889C2.71265 3.27644 2.8062 3.22027 2.90965 3.19949M3.2996 4.43266L3.2846 4.43261C3.28436 4.49722 3.26321 4.5599 3.22449 4.61083C3.18982 4.65645 3.14283 4.69034 3.08963 4.70848V4.15685C3.14283 4.17498 3.18982 4.20888 3.22449 4.25449C3.26321 4.30543 3.28436 4.36811 3.2846 4.43272L3.2996 4.43266ZM3.2996 4.43266C3.29935 4.50051 3.27714 4.56635 3.23644 4.61991C3.19893 4.66926 3.14768 4.70561 3.08963 4.72428V4.14104C3.14768 4.15972 3.19893 4.19607 3.23644 4.24542C3.27714 4.29898 3.29935 4.36482 3.2996 4.43266ZM2.90965 3.38958V3.94122L2.77478 3.48723C2.80945 3.44161 2.85644 3.40772 2.90965 3.38958Z" fill="#696969" stroke="#696969" stroke-width="0.0264052"/>
</g>
</g>
<defs>
<clipPath id="clip0_0_337">
<rect width="5.28105" height="5.28105" fill="white" transform="scale(1.13609)"/>
</clipPath>
</defs>
</svg>
