<svg width="6" height="6" viewBox="0 0 6 6" fill="none" xmlns="http://www.w3.org/2000/svg">
<g clip-path="url(#clip0_0_268)">
<path d="M4.79999 2.8711C4.72902 2.8711 4.67143 2.9287 4.67143 2.99967C4.67143 3.92122 3.92164 4.67101 3.00008 4.67101C2.07853 4.67101 1.32874 3.92122 1.32874 2.99967C1.32874 2.07811 2.07853 1.32832 3.00008 1.32832C3.07105 1.32832 3.12865 1.27072 3.12865 1.19976C3.12865 1.12879 3.07105 1.07119 3.00008 1.07119C1.93672 1.07119 1.07161 1.9363 1.07161 2.99967C1.07161 4.06303 1.93672 4.92814 3.00008 4.92814C4.06344 4.92814 4.92856 4.06303 4.92856 2.99967C4.92856 2.9287 4.87096 2.8711 4.79999 2.8711Z" fill="#696969"/>
<path d="M2.99985 1.58543C2.22011 1.58543 1.58564 2.2199 1.58564 2.99964C1.58564 3.77939 2.22011 4.41386 2.99985 4.41386C3.7796 4.41386 4.41407 3.77939 4.41407 2.99964C4.41407 2.92868 4.35647 2.87108 4.2855 2.87108C4.21453 2.87108 4.15694 2.92868 4.15694 2.99964C4.15694 3.63758 3.63779 4.15673 2.99985 4.15673C2.36191 4.15673 1.84277 3.63758 1.84277 2.99964C1.84277 2.3617 2.36191 1.84256 2.99985 1.84256C3.07082 1.84256 3.12842 1.78496 3.12842 1.71399C3.12842 1.64303 3.07082 1.58543 2.99985 1.58543Z" fill="#696969"/>
<path d="M2.99983 2.3568C3.0708 2.3568 3.1284 2.2992 3.1284 2.22823C3.1284 2.15726 3.0708 2.09967 2.99983 2.09967C2.50357 2.09967 2.09988 2.50336 2.09988 2.99962C2.09988 3.49588 2.50357 3.89958 2.99983 3.89958C3.49609 3.89958 3.89979 3.49588 3.89979 2.99962C3.89979 2.92865 3.84219 2.87106 3.77122 2.87106C3.70025 2.87106 3.64266 2.92865 3.64266 2.99962C3.64266 3.35408 3.35428 3.64245 2.99983 3.64245C2.64538 3.64245 2.35701 3.35408 2.35701 2.99962C2.35701 2.64517 2.64538 2.3568 2.99983 2.3568Z" fill="#696969"/>
<path d="M3.12843 2.61402C3.12843 2.54306 3.07083 2.48546 2.99987 2.48546C2.9289 2.48546 2.8713 2.54306 2.8713 2.61402V2.99972C2.8713 3.01643 2.87477 3.03315 2.8812 3.04883C2.89431 3.0802 2.91926 3.10527 2.95075 3.11838C2.96644 3.12494 2.98315 3.12828 2.99987 3.12828H3.38556C3.45653 3.12828 3.51413 3.07069 3.51413 2.99972C3.51413 2.92875 3.45653 2.87115 3.38556 2.87115H3.31022L3.82448 2.35689H4.28552C4.31959 2.35689 4.35237 2.34339 4.37641 2.31922L4.89067 1.80496C4.92744 1.76819 4.9385 1.71291 4.91857 1.66483C4.89864 1.61687 4.85172 1.5855 4.79978 1.5855H4.41408V1.19981C4.41408 1.14787 4.38271 1.10094 4.33476 1.08101C4.28655 1.06109 4.23139 1.07201 4.19462 1.10891L3.68036 1.62317C3.65619 1.64721 3.64269 1.68 3.64269 1.71407V2.1751L3.12843 2.68936V2.61402ZM3.89982 1.76729L4.15695 1.51016V1.71407C4.15695 1.78504 4.21455 1.84263 4.28552 1.84263H4.48942L4.23229 2.09976H3.89982V1.76729Z" fill="#696969"/>
</g>
<defs>
<clipPath id="clip0_0_268">
<rect width="5.28105" height="5.28105" fill="white" transform="scale(1.13609)"/>
</clipPath>
</defs>
</svg>
