<svg width="24" height="24" viewBox="0 0 24 24" fill="none" xmlns="http://www.w3.org/2000/svg">
<path d="M14.0518 3.67032C13.4417 3.27149 12.7287 3.05908 11.9998 3.05908C11.2709 3.05908 10.5579 3.27149 9.94781 3.67032L1.8388 8.96983C1.72345 9.04514 1.63107 9.15078 1.5718 9.27514C1.51253 9.3995 1.48866 9.53779 1.5028 9.67482L1.4998 9.74983V15.7498C1.4998 15.9487 1.57882 16.1395 1.71947 16.2802C1.86013 16.4208 2.05089 16.4998 2.2498 16.4998C2.44872 16.4998 2.63948 16.4208 2.78014 16.2802C2.92079 16.1395 2.9998 15.9487 2.9998 15.7498V11.0128L4.4998 12.0283V17.5483C4.49979 17.7271 4.56363 17.9 4.6798 18.0358L4.6828 18.0403L4.6918 18.0508L4.7218 18.0838L4.8238 18.1948C4.9123 18.2878 5.0398 18.4168 5.2048 18.5698C5.5348 18.8743 6.0193 19.2763 6.6433 19.6798C7.8883 20.4838 9.71681 21.2998 11.9998 21.2998C14.2828 21.2998 16.1098 20.4838 17.3563 19.6798C17.9803 19.2763 18.4648 18.8743 18.7948 18.5698C18.9619 18.414 19.123 18.2519 19.2778 18.0838L19.3078 18.0508L19.3168 18.0403L19.3198 18.0373L19.3213 18.0343C19.4363 17.899 19.4995 17.7274 19.4998 17.5498V12.0268L22.1698 10.2193C22.2775 10.1557 22.3654 10.0633 22.4237 9.95261C22.482 9.84189 22.5083 9.71715 22.4998 9.59233C22.4988 9.46852 22.4672 9.34688 22.4078 9.23826C22.3484 9.12964 22.263 9.03742 22.1593 8.96983L14.0518 3.67032ZM17.9998 13.0438V17.2528C17.9398 17.3128 17.8653 17.3843 17.7763 17.4673C17.3936 17.8194 16.981 18.1375 16.5433 18.4183C15.4633 19.1143 13.9168 19.7983 11.9998 19.7983C10.0828 19.7983 8.53481 19.1143 7.45631 18.4183C6.93175 18.0813 6.44362 17.6907 5.9998 17.2528V13.0438L9.8983 15.6823C10.5187 16.1021 11.2507 16.3265 11.9998 16.3265C12.7489 16.3265 13.4809 16.1021 14.1013 15.6823L17.9998 13.0438ZM10.7683 4.92582C11.1344 4.6864 11.5624 4.55888 11.9998 4.55888C12.4372 4.55888 12.8652 4.6864 13.2313 4.92582L20.3953 9.59983L13.2613 14.4403C12.8889 14.6925 12.4495 14.8272 11.9998 14.8272C11.5501 14.8272 11.1107 14.6925 10.7383 14.4403L3.6028 9.61033L10.7683 4.92582Z" fill="#B1060F"/>
</svg>
