<svg width="5" height="5" viewBox="0 0 5 5" fill="none" xmlns="http://www.w3.org/2000/svg">
<path d="M2.92734 0.764603C2.80025 0.681515 2.6517 0.637265 2.49986 0.637265C2.34802 0.637265 2.19947 0.681515 2.07237 0.764603L0.38306 1.86863C0.359029 1.88432 0.339784 1.90632 0.327436 1.93223C0.315088 1.95814 0.310115 1.98695 0.313062 2.0155L0.312437 2.03112V3.28107C0.312437 3.32251 0.328899 3.36225 0.3582 3.39156C0.387502 3.42086 0.427243 3.43732 0.468682 3.43732C0.51012 3.43732 0.549861 3.42086 0.579163 3.39156C0.608464 3.36225 0.624926 3.32251 0.624926 3.28107V2.29424L0.937415 2.50579V3.65575C0.937412 3.69299 0.95071 3.72901 0.974913 3.75731L0.975538 3.75825L0.977413 3.76043L0.983663 3.76731L1.00491 3.79043C1.02335 3.80981 1.04991 3.83668 1.08428 3.86855C1.15303 3.93199 1.25397 4.01574 1.38396 4.09979C1.64333 4.26729 2.02425 4.43728 2.49986 4.43728C2.97547 4.43728 3.35608 4.26729 3.61576 4.09979C3.74575 4.01574 3.84668 3.93199 3.91543 3.86855C3.95025 3.83609 3.98381 3.80232 4.01605 3.76731L4.0223 3.76043L4.02418 3.75825L4.0248 3.75762L4.02512 3.75699C4.04907 3.72881 4.06224 3.69305 4.0623 3.65606V2.50548L4.61853 2.12893C4.64097 2.11567 4.65928 2.09643 4.67142 2.07336C4.68356 2.0503 4.68905 2.02431 4.68728 1.99831C4.68708 1.97252 4.68049 1.94718 4.66812 1.92455C4.65574 1.90192 4.63795 1.88271 4.61634 1.86863L2.92734 0.764603ZM3.74981 2.71734V3.59419C3.73731 3.60669 3.72179 3.62158 3.70325 3.63887C3.62351 3.71221 3.53757 3.7785 3.44639 3.83699C3.22139 3.98199 2.89922 4.12448 2.49986 4.12448C2.1005 4.12448 1.77801 3.98199 1.55333 3.83699C1.44405 3.76679 1.34236 3.68541 1.2499 3.59419V2.71734L2.06206 3.26701C2.19131 3.35447 2.3438 3.40121 2.49986 3.40121C2.65592 3.40121 2.8084 3.35447 2.93765 3.26701L3.74981 2.71734ZM2.2433 1.02616C2.31957 0.976277 2.40873 0.949712 2.49986 0.949712C2.59099 0.949712 2.68014 0.976277 2.75641 1.02616L4.24886 1.99987L2.76266 3.00827C2.68508 3.0608 2.59355 3.08887 2.49986 3.08887C2.40617 3.08887 2.31463 3.0608 2.23706 3.00827L0.750546 2.00206L2.2433 1.02616Z" fill="#0FA958"/>
</svg>
