<svg width="10" height="10" viewBox="0 0 10 10" fill="none" xmlns="http://www.w3.org/2000/svg">
<path d="M5.85481 1.52941C5.60062 1.36323 5.30352 1.27473 4.99983 1.27473C4.69614 1.27473 4.39903 1.36323 4.14484 1.52941L0.766148 3.73749C0.718085 3.76888 0.679594 3.81289 0.654899 3.86471C0.630203 3.91652 0.620256 3.97414 0.62615 4.03124L0.6249 4.06249V6.56245C0.6249 6.64533 0.657824 6.72481 0.716428 6.78341C0.775032 6.84202 0.854516 6.87494 0.937395 6.87494C1.02027 6.87494 1.09976 6.84202 1.15836 6.78341C1.21697 6.72481 1.24989 6.64533 1.24989 6.56245V4.58873L1.87488 5.01185V7.31181C1.87487 7.38629 1.90147 7.45833 1.94988 7.51493L1.95113 7.51681L1.95488 7.52118L1.96738 7.53493L2.00988 7.58118C2.04675 7.61993 2.09988 7.67368 2.16862 7.73743C2.30612 7.8643 2.50799 8.0318 2.76799 8.19992C3.28673 8.53491 4.04859 8.87491 4.99983 8.87491C5.95106 8.87491 6.7123 8.53491 7.23166 8.19992C7.49166 8.0318 7.69353 7.8643 7.83103 7.73743C7.90066 7.67251 7.96779 7.60496 8.03227 7.53493L8.04477 7.52118L8.04852 7.51681L8.04977 7.51556L8.0504 7.51431C8.0983 7.45794 8.12466 7.38641 8.12477 7.31243V5.01122L9.23725 4.25811C9.28213 4.23159 9.31876 4.19311 9.34304 4.14698C9.36732 4.10085 9.3783 4.04888 9.37475 3.99687C9.37435 3.94528 9.36118 3.8946 9.33643 3.84934C9.31167 3.80408 9.2761 3.76566 9.23288 3.73749L5.85481 1.52941ZM7.49978 5.43497V7.18869C7.47478 7.21369 7.44374 7.24348 7.40666 7.27806C7.24718 7.42474 7.07529 7.55731 6.89292 7.6743C6.44293 7.9643 5.79856 8.24929 4.99983 8.24929C4.20109 8.24929 3.5561 7.9643 3.10673 7.6743C2.88817 7.53389 2.68479 7.37114 2.49987 7.18869V5.43497L4.12422 6.53432C4.38273 6.70924 4.6877 6.80272 4.99983 6.80272C5.31195 6.80272 5.61693 6.70924 5.87544 6.53432L7.49978 5.43497ZM4.48671 2.05252C4.63925 1.95276 4.81756 1.89963 4.99983 1.89963C5.18209 1.89963 5.3604 1.95276 5.51294 2.05252L8.49789 3.99999L5.52544 6.01683C5.37028 6.12189 5.1872 6.17804 4.99983 6.17804C4.81245 6.17804 4.62937 6.12189 4.47421 6.01683L1.50114 4.00437L4.48671 2.05252Z" fill="#0FA958"/>
</svg>
