<svg width="3" height="4" viewBox="0 0 3 4" fill="none" xmlns="http://www.w3.org/2000/svg">
<path d="M0.892748 2.77408C0.62288 2.8568 0.347042 2.91861 0.0676813 2.95896C0.0158316 2.8152 -0.00661213 2.66249 0.00168171 2.5099C0.00997555 2.3573 0.048838 2.20792 0.115963 2.07063C0.124519 2.0526 0.133992 2.03488 0.143771 2.01716C0.158439 1.99088 0.174329 1.96521 0.19083 1.94015C0.218543 1.8986 0.249178 1.85908 0.282504 1.82189C0.29595 1.80692 0.309701 1.79133 0.324369 1.7785C0.41937 1.68539 0.533276 1.6138 0.658368 1.56856C0.857153 1.50207 1.06277 1.4581 1.27136 1.43747L1.38595 1.42402L1.55677 1.40569C1.57887 1.40346 1.60081 1.39989 1.62247 1.39499C1.66372 1.38851 1.70073 1.36599 1.72545 1.33235C1.72866 1.32757 1.73152 1.32257 1.73401 1.31737L1.73768 1.30912C1.74226 1.29703 1.74574 1.28456 1.74807 1.27184C1.7525 1.24396 1.75424 1.21572 1.75326 1.1875C1.75326 1.17375 1.75326 1.16 1.75326 1.14686C1.75143 1.10713 1.74807 1.06985 1.74348 1.03502C1.73899 1.0024 1.73266 0.970056 1.72454 0.938147C1.67473 0.749297 1.56014 0.659456 1.35784 0.655483C1.28458 0.655265 1.21148 0.662432 1.13966 0.676875C1.05104 0.693682 0.963031 0.716294 0.875941 0.741963C0.832549 0.754797 0.789156 0.768549 0.746069 0.782911C0.702983 0.797274 0.660201 0.811941 0.61742 0.826914C0.592738 0.836265 0.566963 0.842426 0.54072 0.845249C0.535223 0.845547 0.529715 0.845547 0.524218 0.845249C0.513912 0.845128 0.503655 0.843795 0.49366 0.841277C0.469622 0.834659 0.448719 0.819713 0.434683 0.799107C0.420789 0.777583 0.410469 0.753951 0.404125 0.729129C0.394958 0.698571 0.383346 0.668012 0.373567 0.637454C0.3699 0.627064 0.366233 0.616675 0.362872 0.606896C0.344843 0.550669 0.329564 0.502387 0.318563 0.460828C0.314081 0.444327 0.310108 0.428742 0.306645 0.414074C0.306645 0.40674 0.303895 0.399711 0.302367 0.392683C0.296338 0.363859 0.294792 0.334277 0.297783 0.304981C0.299112 0.295584 0.301469 0.286361 0.304812 0.277479C0.307997 0.268763 0.312203 0.260455 0.31734 0.252727C0.32593 0.241061 0.336233 0.230759 0.347898 0.222169C0.397097 0.182749 0.484798 0.153718 0.622921 0.113382C0.722396 0.084571 0.823265 0.0608066 0.92514 0.0421805L0.963032 0.0354577C1.00123 0.0290404 1.03912 0.0235403 1.07732 0.018651L1.11552 0.0143724C1.20471 0.00454487 1.29439 -0.000250209 1.38412 1.00493e-05C1.42232 1.00493e-05 1.46113 1.05344e-05 1.49963 0.00337193C1.61681 0.00996448 1.73323 0.0263191 1.84769 0.0522652C1.95342 0.0752911 2.05461 0.115665 2.14716 0.171748C2.16671 0.183666 2.18535 0.196194 2.20369 0.20964C2.2666 0.255396 2.32232 0.310293 2.36901 0.372514C2.46535 0.504072 2.51948 0.661782 2.52424 0.824776C2.53066 0.966566 2.53371 1.10897 2.53524 1.25106C2.5367 1.38637 2.49729 1.51896 2.42218 1.63151C2.27077 1.85403 2.08844 2.05385 1.88069 2.22495C1.58804 2.46733 1.2531 2.6535 0.892748 2.77408Z" fill="#F8F8F8"/>
<path d="M2.69336 3.27417C2.69336 3.27906 2.69336 3.28395 2.69184 3.28853C2.6904 3.29764 2.68794 3.30656 2.6845 3.31512C2.67751 3.33215 2.66638 3.34717 2.65211 3.35882C2.644 3.36549 2.63531 3.37142 2.62614 3.37654C2.61548 3.38263 2.60434 3.38785 2.59283 3.39213L2.50574 3.42696C2.41895 3.46272 2.33247 3.49847 2.24477 3.53178C2.03484 3.61123 2.01284 3.60023 1.92758 3.38663C1.92551 3.38126 1.92305 3.37606 1.92025 3.37104C1.90455 3.34308 1.87958 3.32146 1.84966 3.30993C1.83017 3.30255 1.80933 3.29942 1.78854 3.30076C1.77815 3.30161 1.7679 3.30366 1.75798 3.30687C1.75277 3.30848 1.74767 3.31042 1.7427 3.31268C1.7325 3.31736 1.72286 3.32321 1.71398 3.33009L1.69748 3.34323C1.68128 3.35607 1.66509 3.3689 1.64859 3.38113C1.62203 3.4018 1.59428 3.42088 1.56547 3.43827C1.53675 3.45573 1.50706 3.47155 1.47654 3.48563C1.43064 3.50705 1.38313 3.52483 1.33445 3.53881C1.25287 3.56265 1.16876 3.5768 1.08387 3.58098L1.03254 3.58281C0.964267 3.58333 0.896078 3.57801 0.828714 3.56692C0.811907 3.56417 0.7951 3.56081 0.778599 3.55745C0.745291 3.55042 0.712594 3.54186 0.680202 3.53208C0.647811 3.5223 0.616336 3.51069 0.585167 3.49786C0.5539 3.4854 0.5233 3.47132 0.493493 3.45569C0.376409 3.39513 0.27431 3.30921 0.194635 3.20419C0.158642 3.15555 0.127043 3.10381 0.100211 3.04957C0.497465 3.19594 1.01328 3.35515 1.44476 3.21031C1.81146 3.08807 2.21146 2.81885 2.55249 2.49066C2.55708 2.54261 2.56349 2.59456 2.57144 2.64651C2.58641 2.74552 2.60597 2.84422 2.62736 2.94262C2.64539 3.02421 2.66464 3.1058 2.68359 3.18708C2.68819 3.20556 2.69146 3.22436 2.69336 3.24331C2.69405 3.25358 2.69405 3.2639 2.69336 3.27417Z" fill="#F8F8F8"/>
<path d="M2.54089 2.31818C2.53844 2.26196 2.53386 2.21612 2.53569 2.17028C2.53569 2.1547 2.5522 2.13973 2.5635 2.12414C2.66159 2.00191 2.7603 1.87815 2.85533 1.75133C2.84953 1.75591 2.84311 1.76019 2.83761 1.76539C2.71538 1.88181 2.59314 1.99794 2.47091 2.11528C2.46383 2.12337 2.45445 2.12911 2.44402 2.13173C2.43359 2.13435 2.42261 2.13373 2.41255 2.12995C2.33187 2.10764 2.24998 2.08808 2.16289 2.06608L2.99254 1.58876C2.94731 1.81275 2.90361 2.02941 2.859 2.24851C2.79269 2.23079 2.73035 2.2149 2.66832 2.19656C2.65959 2.19242 2.64958 2.19186 2.64044 2.195C2.63131 2.19814 2.62376 2.20474 2.61942 2.21337C2.5962 2.24668 2.57114 2.27785 2.54089 2.31818Z" fill="#F8F8F8"/>
<path d="M0.18372 3.00887C0.18372 3.00887 1.43874 3.27962 2.41293 2.25683C2.41171 2.25683 1.69879 3.50605 0.18372 3.00887Z" fill="#F8F8F8"/>
</svg>
