<svg width="43" height="37" viewBox="0 0 43 37" fill="none" xmlns="http://www.w3.org/2000/svg">
<path d="M20.1175 0.481327C20.1175 0.481327 22.4203 1.68345 24.9326 2.26059C27.4448 2.8376 28.7378 3.07808 31.781 3.07808C34.8242 3.07808 38.7496 5.7228 39.0637 6.10756C39.0637 6.10756 35.5049 5.77089 33.8823 6.34804C32.2598 6.92505 30.0616 8.27146 28.7007 8.8486C27.34 9.42548 22.9438 10.9163 20.1175 11.0125V0.481327Z" fill="#FFCD19"/>
<path d="M37.9618 34.2537C35.3415 30.9648 32.756 27.6548 30.1436 24.3628C29.4176 23.4465 28.6328 23.4465 27.8917 24.3456C27.1674 25.2244 26.4699 26.122 25.7057 27.0802C24.4608 25.5097 23.3709 23.9491 22.0754 22.5497C20.6999 21.1534 20.267 17.5455 20.267 17.5455V1.03421C20.267 1.03421 20.0554 -0.0110835 19.1784 8.8927e-05C18.2203 -0.0110835 18.0218 1.03421 18.0218 1.03421V17.5455C18.0218 17.5455 17.5653 21.0717 16.3642 22.3804C15.0224 23.843 13.8844 25.4649 12.6059 27.0826C11.8434 26.1295 11.1716 25.2816 10.4901 24.4412C9.67152 23.4316 8.91524 23.422 8.12159 24.4283C5.56002 27.6754 3.02426 30.9404 0.444005 34.1744C0.355031 34.2511 0.277622 34.3387 0.213561 34.4342C-0.19928 35.0442 0.00447236 35.8469 0.669109 36.2263H37.6842C37.7829 36.1724 37.8737 36.1076 37.9555 36.0334C38.492 35.5437 38.4947 34.7465 37.9618 34.2537Z" fill="#FFCD19"/>
<path opacity="0.3" d="M41.2218 19.6123C41.108 19.6123 40.997 19.6232 40.8891 19.6421C40.8893 19.6321 40.89 19.6223 40.89 19.6123C40.89 17.7943 39.2976 16.3203 37.3335 16.3203C37.0746 16.3203 36.8224 16.3466 36.5793 16.3953C36.0558 13.8683 33.6565 11.9585 30.7739 11.9585C27.8563 11.9585 25.434 13.9155 24.9508 16.4883C24.5982 16.3799 24.2215 16.3203 23.8295 16.3203C21.8653 16.3203 20.2731 17.7943 20.2731 19.6123C20.2731 19.6989 20.2779 19.7842 20.2849 19.869C20.0096 19.7074 19.6842 19.6123 19.3339 19.6123C18.3518 19.6123 17.5557 20.3493 17.5557 21.2583C17.5557 22.1675 18.3518 22.9045 19.3339 22.9045H41.2218C42.2038 22.9045 43 22.1675 43 21.2583C43 20.3493 42.2038 19.6123 41.2218 19.6123Z" fill="#FFCD19"/>
</svg>
