<svg width="74" height="67" viewBox="0 0 74 67" fill="none" xmlns="http://www.w3.org/2000/svg">
<g clip-path="url(#clip0_1_8422)">
<path d="M18.4751 0.000978069L73.999 13.0022L55.5229 66.9519L-0.00101185 53.9507L18.4751 0.000978069Z" fill="#012169"/>
<path d="M73.999 13.0022L71.6895 19.7459L44.1564 35.1524L58.0129 59.6813L55.5229 66.9519L48.2571 65.2506L34.3283 40.5908L7.37326 55.6774L-0.00101185 53.9507L2.45285 46.7855L29.3718 31.8043L15.8047 7.7984L18.4751 0.000978069L25.1987 1.57534L39.236 26.2605L66.191 11.1739L73.999 13.0022Z" fill="white"/>
<path d="M26.7371 38.8133L26.7031 42.6753L4.55369 55.0172L-0.00101185 53.9507L0.107247 53.6346L26.7371 38.8133ZM40.6173 40.6976L46.1847 42.9118L57.1468 62.2102L55.5229 66.9519L40.6173 40.6976ZM73.999 13.0022L46.1047 28.7794L47.2587 24.0415L69.0106 11.8341L73.999 13.0022ZM18.439 0.106349L32.5487 24.9222L26.4391 22.5811L16.7069 5.16413L18.439 0.106349Z" fill="#1410C8"/>
<path d="M37.5615 4.47015L19.0853 58.4199L36.4366 62.4827L54.9127 8.53303L37.5615 4.47015ZM12.1239 18.5462L6.35016 35.4055L61.8741 48.4067L67.6479 31.5474L12.1239 18.5462Z" fill="white"/>
<path d="M10.9692 21.918L7.50492 32.0336L63.0288 45.0348L66.4931 34.9193L10.9692 21.918ZM41.0317 5.28272L22.5556 59.2324L32.9663 61.6702L51.4425 7.72045L41.0317 5.28272Z" fill="#1410C8"/>
</g>
<defs>
<clipPath id="clip0_1_8422">
<rect width="56.9379" height="56.9379" fill="white" transform="matrix(0.975166 0.22834 -0.324496 0.947518 18.4761 0)"/>
</clipPath>
</defs>
</svg>
