<svg width="54" height="49" viewBox="0 0 54 49" fill="none" xmlns="http://www.w3.org/2000/svg">
<g clip-path="url(#clip0_1_8441)">
<path d="M4.8546 0.0576936L54.008 -0.000115235L49.1613 48.9138L0.00793822 48.9716L4.8546 0.0576936Z" fill="#012169"/>
<path d="M54.008 -0.000115235L53.4022 6.11412L33.3441 24.4783L49.8145 42.3219L49.1613 48.9138L42.7292 48.9213L26.1723 30.9823L6.53612 48.9639L0.00793822 48.9716L0.651635 42.4752L20.2783 24.5892L4.1541 7.12728L4.8546 0.0576936L10.8068 0.0506933L27.4597 17.9896L47.0958 0.00801414L54.008 -0.000115235Z" fill="white"/>
<path d="M19.4521 30.9902L20.1863 34.2372L4.04005 48.9668L0.00793822 48.9716L0.0363367 48.685L19.4521 30.9902ZM31.47 29.8298L36.5784 30.588L49.5873 44.6147L49.1613 48.9138L31.47 29.8298ZM54.008 -0.000115235L33.7201 18.7464L33.7526 14.5433L49.5919 0.00507853L54.008 -0.000115235ZM4.84513 0.153229L21.5846 18.1875L15.9961 17.4299L4.39076 4.73891L4.84513 0.153229Z" fill="#C8102E"/>
<path d="M21.7511 0.0378218L16.9044 48.9517L32.2649 48.9337L37.1115 0.0197566L21.7511 0.0378218ZM3.18856 16.8718L1.67398 32.1574L50.8274 32.0996L52.342 16.814L3.18856 16.8718Z" fill="white"/>
<path d="M2.88564 19.929L1.97689 29.1003L51.1303 29.0425L52.039 19.8712L2.88564 19.929ZM24.8232 0.0342088L19.9765 48.9481L29.1928 48.9373L34.0394 0.0233696L24.8232 0.0342088Z" fill="#C8102E"/>
</g>
<defs>
<clipPath id="clip0_1_8441">
<rect width="48.2563" height="48.2563" fill="white" transform="matrix(1.01859 -0.00119796 -0.100436 1.01363 4.84664 0.0576936)"/>
</clipPath>
</defs>
</svg>
