<svg width="96" height="93" viewBox="0 0 96 93" fill="none" xmlns="http://www.w3.org/2000/svg">
<g clip-path="url(#clip0_1_7919)">
<path d="M5.62554 3.34765L95.3917 0.000273671L89.7661 89.6525L-2.05707e-05 92.9999L5.62554 3.34765Z" fill="#012169"/>
<path d="M95.3917 0.000273671L94.6885 11.2068L59.2673 46.0686L90.5243 77.5705L89.7661 89.6525L78.0194 90.0905L46.598 58.4201L11.922 92.5553L-2.05707e-05 92.9999L0.747124 81.0929L35.4121 47.1328L4.81247 16.3052L5.62554 3.34765L16.4957 2.9423L48.0923 34.6062L82.7683 0.470998L95.3917 0.000273671Z" fill="white"/>
<path d="M34.3253 58.8777L35.8803 64.7593L7.36361 92.7253L-2.05707e-05 92.9999L0.0329419 92.4746L34.3253 58.8777ZM56.1974 55.9658L65.577 57.0136L90.2606 81.7729L89.7661 89.6525L56.1974 55.9658ZM95.3917 0.000273671L59.5759 35.5755L59.358 27.8972L87.3268 0.301014L95.3917 0.000273671ZM5.61455 3.52275L37.3756 35.3552L27.1193 34.3401L5.08716 11.9276L5.61455 3.52275Z" fill="#C8102E"/>
<path d="M36.4827 2.19699L30.8571 91.8492L58.909 90.8032L64.5346 1.15093L36.4827 2.19699ZM3.69175 34.1656L1.93377 62.1819L91.6999 58.8345L93.4579 30.8182L3.69175 34.1656Z" fill="white"/>
<path d="M3.34016 39.7689L2.28536 56.5787L92.0515 53.2313L93.1063 36.4215L3.34016 39.7689ZM42.093 1.98778L36.4675 91.64L53.2986 91.0124L58.9242 1.36014L42.093 1.98778Z" fill="#C8102E"/>
</g>
<defs>
<clipPath id="clip0_1_7919">
<rect width="89.6191" height="89.6191" fill="white" transform="matrix(1.00164 -0.0373511 -0.0627719 1.00037 5.62554 3.34765)"/>
</clipPath>
</defs>
</svg>
