<svg width="67" height="61" viewBox="0 0 67 61" fill="none" xmlns="http://www.w3.org/2000/svg">
<g clip-path="url(#clip0_1_7994)">
<path d="M6.01344 0.0720019L67 0.000276196L60.9866 60.6897L1.56799e-06 60.7614L6.01344 0.0720019Z" fill="#012169"/>
<path d="M67 0.000276196L66.2483 7.58645L41.3615 30.3716L61.797 52.5108L60.9866 60.6897L53.0059 60.6991L32.4631 38.4414L8.09978 60.7519L1.56799e-06 60.7614L0.798662 52.7011L25.1502 30.5092L5.14431 8.84352L6.01344 0.0720019L13.3985 0.0633164L34.0604 22.3208L58.4238 0.0103626L67 0.000276196Z" fill="white"/>
<path d="M24.1251 38.4512L25.036 42.4799L5.00281 60.7555L1.56799e-06 60.7614L0.0352366 60.4058L24.1251 38.4512ZM39.0362 37.0115L45.3744 37.9522L61.5151 55.3557L60.9866 60.6897L39.0362 37.0115ZM67 0.000276196L41.828 23.2598L41.8683 18.0449L61.5207 0.00672031L67 0.000276196ZM6.0017 0.190536L26.771 22.5664L19.8372 21.6264L5.43794 5.88017L6.0017 0.190536Z" fill="#C8102E"/>
<path d="M26.9776 0.0473462L20.9641 60.7368L40.0224 60.7143L46.0359 0.0249319L26.9776 0.0473462ZM3.94632 20.934L2.06712 39.8994L63.0537 39.8277L64.9329 20.8623L3.94632 20.934Z" fill="white"/>
<path d="M3.57048 24.7271L2.44296 36.1063L63.4295 36.0346L64.557 24.6553L3.57048 24.7271ZM30.7892 0.0428634L24.7758 60.7323L36.2108 60.7188L42.2242 0.0294148L30.7892 0.0428634Z" fill="#C8102E"/>
</g>
<defs>
<clipPath id="clip0_1_7994">
<rect width="60.3828" height="60.3828" fill="white" transform="matrix(1.01 -0.00118785 -0.0995887 1.00508 6.01344 0.0720019)"/>
</clipPath>
</defs>
</svg>
