<svg width="70" height="64" viewBox="0 0 70 64" fill="none" xmlns="http://www.w3.org/2000/svg">
<g clip-path="url(#clip0_1_7908)">
<path d="M0 7.32555L57.0214 -0.000419927L70 56.0055L12.9786 63.3315L0 7.32555Z" fill="#012169"/>
<path d="M57.0214 -0.000419927L58.6437 7.00033L42.3504 30.7212L68.251 48.4579L70 56.0055L62.5382 56.9642L36.501 39.1325L20.5518 62.3585L12.9786 63.3315L11.2549 55.8932L27.2295 32.7765L1.87581 15.4202L0 7.32555L6.90494 6.43842L33.0536 24.2559L49.0028 1.02979L57.0214 -0.000419927Z" fill="white"/>
<path d="M28.7051 40.1341L30.792 43.6958L17.6561 62.7306L12.9786 63.3315L12.9026 63.0034L28.7051 40.1341ZM42.2108 37.0472L48.4276 37.1496L68.8593 51.0831L70 56.0055L42.2108 37.0472ZM57.0214 -0.000419927L40.6068 24.1866L39.0459 19.4308L51.8984 0.657773L57.0214 -0.000419927ZM0.0253488 7.43494L26.3107 25.3475L19.5371 25.3166L1.24209 12.6855L0.0253488 7.43494Z" fill="#C8102E"/>
<path d="M19.6011 4.80725L32.5797 60.8132L50.3989 58.5238L37.4203 2.51788L19.6011 4.80725ZM4.4614 26.5776L8.51721 44.0795L65.5386 36.7535L61.4828 19.2516L4.4614 26.5776Z" fill="white"/>
<path d="M5.27256 30.078L7.70605 40.5791L64.7275 33.2531L62.294 22.752L5.27256 30.078ZM23.165 4.34937L36.1436 60.3553L46.8351 58.9817L33.8565 2.97575L23.165 4.34937Z" fill="#C8102E"/>
</g>
<defs>
<clipPath id="clip0_1_7908">
<rect width="57.2574" height="57.2574" fill="white" transform="matrix(0.995878 -0.127948 0.226671 0.978143 0 7.32555)"/>
</clipPath>
</defs>
</svg>
