<svg width="71" height="64" viewBox="0 0 71 64" fill="none" xmlns="http://www.w3.org/2000/svg">
<g clip-path="url(#clip0_1_8009)">
<path d="M10.2022 0L70.7381 4.18328L60.5359 63.9998L-3.75738e-05 59.8165L10.2022 0Z" fill="#012169"/>
<path d="M70.7381 4.18328L69.4628 11.6603L43.1725 32.5391L61.9108 55.9385L60.5359 63.9998L52.6142 63.4523L33.7776 39.9279L8.03989 60.3721L-3.75738e-05 59.8165L1.35495 51.8721L27.0727 31.5448L8.72767 8.64535L10.2022 0L17.5327 0.506569L36.4876 24.0392L62.2253 3.595L70.7381 4.18328Z" fill="white"/>
<path d="M25.5012 39.356L26.1243 43.418L4.9658 60.1596L-3.75738e-05 59.8165L0.0597415 59.466L25.5012 39.356ZM40.4014 38.9672L46.6266 40.343L61.4326 58.7424L60.5359 63.9998L40.4014 38.9672ZM70.7381 4.18328L44.1316 25.513L44.5354 20.3399L65.2994 3.80744L70.7381 4.18328ZM10.1823 0.116829L29.2354 23.7744L22.419 22.3577L9.22582 5.72462L10.1823 0.116829Z" fill="#C8102E"/>
<path d="M31.0114 1.438L20.8092 61.2545L39.7267 62.5618L49.9289 2.74528L31.0114 1.438ZM6.69519 20.5619L3.50699 39.2546L64.0429 43.4378L67.2311 24.7452L6.69519 20.5619Z" fill="white"/>
<path d="M6.05755 24.3004L4.14463 35.516L64.6805 39.6993L66.5935 28.4837L6.05755 24.3004ZM34.7949 1.69946L24.5927 61.5159L35.9432 62.3003L46.1454 2.48382L34.7949 1.69946Z" fill="#C8102E"/>
</g>
<defs>
<clipPath id="clip0_1_8009">
<rect width="60.5238" height="60.5238" fill="white" transform="matrix(1.0002 0.0691179 -0.168566 0.988313 10.2022 0)"/>
</clipPath>
</defs>
</svg>
