<svg width="68" height="74" viewBox="0 0 68 74" fill="none" xmlns="http://www.w3.org/2000/svg">
<g clip-path="url(#clip0_1_7936)">
<path d="M0.683747 6.06255L68 -0.000289089L67.3162 67.585L-1.14701e-05 73.6478L0.683747 6.06255Z" fill="#012169"/>
<path d="M68 -0.000289089L67.9145 8.44787L42.6775 36.0422L67.4084 58.4768L67.3162 67.585L58.5073 68.3784L33.6462 45.8236L8.94043 72.8426L-1.14701e-05 73.6478L0.0908001 64.6716L24.7953 37.7847L0.584922 15.8307L0.683747 6.06255L8.83532 5.32837L33.8279 27.8713L58.5337 0.852297L68 -0.000289089Z" fill="white"/>
<path d="M24.4428 46.6525L25.8437 51.0103L5.52202 73.1505L-1.14701e-05 73.6478L0.00399492 73.2518L24.4428 46.6525ZM40.762 43.6001L47.8511 44.0167L67.3763 61.6449L67.3162 67.585L40.762 43.6001ZM68 -0.000289089L42.4947 28.1458L42.0275 22.385L61.9521 0.544419L68 -0.000289089ZM0.682411 6.19455L25.8051 28.8576L18.0586 28.5002L0.618309 12.5307L0.682411 6.19455Z" fill="#C8102E"/>
<path d="M23.8237 3.97845L23.14 71.5637L44.1763 69.6691L44.86 2.08381L23.8237 3.97845ZM0.448705 29.295L0.23503 50.4154L67.5513 44.3525L67.765 23.2321L0.448705 29.295Z" fill="white"/>
<path d="M0.40597 33.5191L0.277765 46.1913L67.594 40.1285L67.7222 27.4562L0.40597 33.5191ZM28.031 3.59952L27.3472 71.1848L39.969 70.048L40.6528 2.46274L28.031 3.59952Z" fill="#C8102E"/>
</g>
<defs>
<clipPath id="clip0_1_7936">
<rect width="67.0547" height="67.0547" fill="white" transform="matrix(1.0039 -0.0904162 -0.010197 1.00791 0.683747 6.06255)"/>
</clipPath>
</defs>
</svg>
