<svg width="72" height="65" viewBox="0 0 72 65" fill="none" xmlns="http://www.w3.org/2000/svg">
<g clip-path="url(#clip0_1_8407)">
<path d="M16.7538 0.000489812L71.8419 11.3164L55.0862 65.0007L-0.00195892 53.6848L16.7538 0.000489812Z" fill="#012169"/>
<path d="M71.8419 11.3164L69.7475 18.0269L43.0212 33.9593L57.3443 57.7659L55.0862 65.0007L47.8774 63.5199L33.4794 39.5863L7.31444 55.1877L-0.00195892 53.6848L2.22341 46.5548L28.3557 31.0583L14.332 7.75955L16.7538 0.000489812L23.4246 1.37077L37.9302 25.3264L64.0952 9.72508L71.8419 11.3164Z" fill="white"/>
<path d="M25.9478 38.0392L26.0187 41.8473L4.51699 54.613L-0.00195892 53.6848L0.0962189 53.3702L25.9478 38.0392ZM39.6822 39.5216L45.2305 41.5539L56.5589 60.2823L55.0862 65.0007L39.6822 39.5216ZM71.8419 11.3164L44.7696 27.6239L45.7791 22.922L66.8926 10.2997L71.8419 11.3164ZM16.721 0.105342L31.3015 24.1879L25.2152 22.0452L15.1502 5.13824L16.721 0.105342Z" fill="#C8102E"/>
<path d="M35.6903 3.89033L18.9346 57.5746L36.1497 61.1108L52.9054 7.42654L35.6903 3.89033ZM10.994 18.4545L5.75782 35.2308L60.846 46.5467L66.0822 29.7703L10.994 18.4545Z" fill="white"/>
<path d="M9.94676 21.8097L6.80506 31.8755L61.8932 43.1914L65.0349 33.1256L9.94676 21.8097ZM39.1333 4.59757L22.3776 58.2818L32.7066 60.4036L49.4624 6.7193L39.1333 4.59757Z" fill="#C8102E"/>
</g>
<defs>
<clipPath id="clip0_1_8407">
<rect width="56.0626" height="56.0626" fill="white" transform="matrix(0.982618 0.201844 -0.298875 0.957577 16.7557 0)"/>
</clipPath>
</defs>
</svg>
