<svg width="20" height="20" viewBox="0 0 20 20" fill="none" xmlns="http://www.w3.org/2000/svg">
<path d="M12.5 2.04801C11.7108 1.80013 10.871 1.6665 10 1.6665C5.39765 1.6665 1.66669 5.39746 1.66669 9.99984C1.66669 14.6022 5.39765 18.3332 10 18.3332C14.6024 18.3332 18.3334 14.6022 18.3334 9.99984C18.3334 8.5704 17.9734 7.22502 17.3393 6.04938M14.1667 4.7915H14.1709M8.75007 18.2401L8.75015 16.4039C8.75016 16.3045 8.78574 16.2083 8.85046 16.1328L10.9219 13.716C11.0922 13.5174 11.0394 13.2129 10.8123 13.0831L8.43213 11.723C8.36746 11.686 8.31388 11.6324 8.27697 11.5677L6.7254 8.84869C6.64465 8.70719 6.48883 8.62573 6.32655 8.64018L1.72017 9.05046M17.5 4.99984C17.5 6.84079 15.8334 8.33317 14.1667 9.99984C12.5 8.33317 10.8334 6.84079 10.8334 4.99984C10.8334 3.15889 12.3257 1.6665 14.1667 1.6665C16.0076 1.6665 17.5 3.15889 17.5 4.99984ZM14.375 4.7915C14.375 4.90656 14.2817 4.99984 14.1667 4.99984C14.0516 4.99984 13.9584 4.90656 13.9584 4.7915C13.9584 4.67644 14.0516 4.58317 14.1667 4.58317C14.2817 4.58317 14.375 4.67644 14.375 4.7915Z" stroke="#B1060F" stroke-width="1.25" stroke-linecap="round" stroke-linejoin="round"/>
</svg>
