<svg width="4" height="4" viewBox="0 0 4 4" fill="none" xmlns="http://www.w3.org/2000/svg">
<g clip-path="url(#clip0_1_7181)">
<path d="M2.83321 2.41678V1.91587C2.83321 1.88596 2.83321 1.87101 2.82865 1.8578C2.82462 1.84612 2.81805 1.83549 2.80941 1.82667C2.79963 1.81669 2.78626 1.81 2.7595 1.79662L1.99991 1.41682M0.666631 1.58348V2.71787C0.666631 2.77985 0.666631 2.81084 0.6763 2.83798C0.684848 2.86197 0.69878 2.88368 0.717025 2.90144C0.737664 2.92154 0.765839 2.93445 0.822183 2.96028L1.8888 3.44915C1.92967 3.46788 1.95011 3.47724 1.9714 3.48094C1.99026 3.48422 2.00955 3.48422 2.02842 3.48094C2.0497 3.47724 2.07014 3.46788 2.11101 3.44915L3.17763 2.96028C3.23398 2.93445 3.26215 2.92154 3.28279 2.90144C3.30103 2.88368 3.31497 2.86197 3.32351 2.83798C3.33318 2.81084 3.33318 2.77985 3.33318 2.71787V1.58348M0.333312 1.41682L1.94028 0.613338C1.96214 0.602407 1.97308 0.596941 1.98454 0.59479C1.9947 0.592885 2.00512 0.592885 2.01527 0.59479C2.02674 0.596941 2.03767 0.602407 2.05953 0.613338L3.6665 1.41682L2.05953 2.22031C2.03767 2.23124 2.02674 2.23671 2.01527 2.23886C2.00512 2.24076 1.9947 2.24076 1.98454 2.23886C1.97308 2.23671 1.96214 2.23124 1.94028 2.22031L0.333312 1.41682Z" stroke="#696969" stroke-width="0.235342" stroke-linecap="round" stroke-linejoin="round"/>
</g>
<defs>
<clipPath id="clip0_1_7181">
<rect width="3.76546" height="3.76546" fill="white" transform="scale(1.06224)"/>
</clipPath>
</defs>
</svg>
