<svg width="5" height="5" viewBox="0 0 5 5" fill="none" xmlns="http://www.w3.org/2000/svg">
<g clip-path="url(#clip0_0_166)">
<path fill-rule="evenodd" clip-rule="evenodd" d="M2.49852 1.06958C2.08199 0.582619 1.3874 0.451628 0.865518 0.897537C0.343635 1.34345 0.270161 2.08898 0.679999 2.61636C1.02075 3.05484 2.05199 3.97962 2.38997 4.27894C2.42778 4.31243 2.44669 4.32917 2.46874 4.33575C2.48799 4.3415 2.50905 4.3415 2.5283 4.33575C2.55036 4.32917 2.56926 4.31243 2.60708 4.27894C2.94506 3.97962 3.97629 3.05484 4.31705 2.61636C4.72689 2.08898 4.66238 1.33876 4.13153 0.897537C3.60067 0.456319 2.91505 0.582619 2.49852 1.06958Z" stroke="#B1060F" stroke-width="0.358616" stroke-linecap="round" stroke-linejoin="round"/>
</g>
<defs>
<clipPath id="clip0_0_166">
<rect width="4.30339" height="4.30339" fill="white" transform="scale(1.16187)"/>
</clipPath>
</defs>
</svg>
