<svg width="11" height="11" viewBox="0 0 11 11" fill="none" xmlns="http://www.w3.org/2000/svg">
<g clip-path="url(#clip0_1_7517)">
<path fill-rule="evenodd" clip-rule="evenodd" d="M5.49692 2.3538C4.58055 1.28248 3.05243 0.994295 1.90428 1.9753C0.756127 2.95631 0.594483 4.5965 1.49613 5.75674C2.2458 6.72141 4.51453 8.75595 5.2581 9.41446C5.34129 9.48813 5.38289 9.52496 5.43141 9.53944C5.47375 9.55207 5.52009 9.55207 5.56243 9.53944C5.61095 9.52496 5.65255 9.48813 5.73574 9.41446C6.47931 8.75595 8.74804 6.72141 9.49771 5.75674C10.3994 4.5965 10.2574 2.94599 9.08956 1.9753C7.92167 1.00461 6.41329 1.28248 5.49692 2.3538Z" stroke="#696969" stroke-width="0.909265" stroke-linecap="round" stroke-linejoin="round"/>
</g>
<defs>
<clipPath id="clip0_1_7517">
<rect width="10.9112" height="10.9112" fill="white" transform="scale(1.00814)"/>
</clipPath>
</defs>
</svg>
