<svg width="41" height="41" viewBox="0 0 41 41" fill="none" xmlns="http://www.w3.org/2000/svg">
<path d="M15.3749 35.875V23.2334C15.3749 22.2766 15.3749 21.7983 15.5611 21.4328C15.7249 21.1114 15.9863 20.8501 16.3077 20.6863C16.6731 20.5001 17.1515 20.5001 18.1083 20.5001H22.8916C23.8483 20.5001 24.3267 20.5001 24.6921 20.6863C25.0136 20.8501 25.2749 21.1114 25.4387 21.4328C25.6249 21.7983 25.6249 22.2766 25.6249 23.2334V35.875M3.41663 16.2293L18.8599 4.64679C19.448 4.20571 19.7421 3.98517 20.065 3.90016C20.3501 3.82511 20.6497 3.82511 20.9348 3.90016C21.2577 3.98517 21.5518 4.20571 22.1399 4.64679L37.5832 16.2293M6.83329 13.6668V30.4084C6.83329 32.3219 6.83329 33.2786 7.20568 34.0095C7.53325 34.6524 8.05593 35.1751 8.69882 35.5026C9.42968 35.875 10.3864 35.875 12.2999 35.875H28.6999C30.6134 35.875 31.5702 35.875 32.301 35.5026C32.9439 35.1751 33.4666 34.6524 33.7941 34.0095C34.1665 33.2786 34.1665 32.3219 34.1665 30.4084V13.6668L23.7799 5.87679C22.6037 4.99462 22.0156 4.55354 21.3697 4.38352C20.7995 4.23344 20.2003 4.23344 19.6301 4.38352C18.9842 4.55354 18.3961 4.99462 17.2199 5.87679L6.83329 13.6668Z" stroke="#B1060F" stroke-width="2.4171" stroke-linecap="round" stroke-linejoin="round"/>
</svg>
