<svg width="6" height="6" viewBox="0 0 6 6" fill="none" xmlns="http://www.w3.org/2000/svg">
<g clip-path="url(#clip0_0_100)">
<path d="M0.499468 2.37493L2.75938 0.679995C2.84544 0.615449 2.88847 0.583176 2.93573 0.570736C2.97745 0.559755 3.0213 0.559755 3.06301 0.570736C3.11027 0.583176 3.1533 0.615449 3.23936 0.679995L5.49928 2.37493M0.99945 1.99994V4.44985C0.99945 4.72987 0.99945 4.86987 1.05394 4.97683C1.10188 5.0709 1.17837 5.14739 1.27244 5.19533C1.3794 5.24982 1.5194 5.24982 1.79942 5.24982H4.19933C4.47934 5.24982 4.61935 5.24982 4.7263 5.19533C4.82038 5.14739 4.89687 5.0709 4.9448 4.97683C4.9993 4.86987 4.9993 4.72987 4.9993 4.44985V1.99994L3.47935 0.859989C3.30723 0.730897 3.22117 0.666351 3.12665 0.641469C3.04322 0.619507 2.95553 0.619507 2.87209 0.641469C2.77758 0.666351 2.69151 0.730897 2.51939 0.859989L0.99945 1.99994Z" stroke="#696969" stroke-width="0.396079" stroke-linecap="round" stroke-linejoin="round"/>
</g>
<defs>
<clipPath id="clip0_0_100">
<rect width="5.28105" height="5.28105" fill="white" transform="scale(1.13609)"/>
</clipPath>
</defs>
</svg>
