<svg width="20" height="20" viewBox="0 0 20 20" fill="none" xmlns="http://www.w3.org/2000/svg">
<path d="M10.1333 2.49992H9.86667L7.675 6.87492H12.325L10.1333 2.49992ZM13.7167 6.87492H18.0167L16.2917 3.42492C16.1537 3.14724 15.941 2.91356 15.6775 2.75015C15.414 2.58674 15.1101 2.50008 14.8 2.49992H11.525L13.7167 6.87492ZM17.8167 8.12492H10.625V16.7499L17.8167 8.12492ZM9.375 16.7499V8.12492H2.18334L9.375 16.7499ZM6.28334 6.87492L8.46667 2.49992H5.2C4.88993 2.50008 4.58606 2.58674 4.32254 2.75015C4.05902 2.91356 3.84632 3.14724 3.70834 3.42492L1.98334 6.87492H6.28334Z" fill="#B1060F"/>
</svg>
