<svg width="5" height="5" viewBox="0 0 5 5" fill="none" xmlns="http://www.w3.org/2000/svg">
<path d="M0.860004 1.90063C0.860156 1.74427 0.861466 1.64288 0.871626 1.56735C0.881678 1.49263 0.896518 1.47786 0.900976 1.47343C0.901055 1.47335 0.90113 1.47327 0.901202 1.4732C0.901274 1.47313 0.901348 1.47305 0.901426 1.47298C0.905863 1.46852 0.92063 1.45368 0.995353 1.44363C1.07818 1.43248 1.1921 1.43199 1.37553 1.43199H3.62527C3.8087 1.43199 3.92262 1.43248 4.00545 1.44363C4.08017 1.45368 4.09494 1.46852 4.09937 1.47298L4.0996 1.4732L4.09982 1.47343C4.10428 1.47786 4.11912 1.49263 4.12917 1.56735C4.13933 1.64288 4.14064 1.74427 4.1408 1.90063H0.860004ZM0.901202 4.10916L0.900976 4.10894C0.896518 4.1045 0.881678 4.08973 0.871626 4.01501C0.860484 3.93219 0.859986 3.81826 0.859986 3.63484V2.74434H4.14082V3.63484C4.14082 3.81826 4.14032 3.93219 4.12917 4.01501C4.11912 4.08973 4.10428 4.1045 4.09982 4.10894L4.0996 4.10916L4.09937 4.10939C4.09494 4.11385 4.08017 4.12869 4.00545 4.13874C3.92262 4.14988 3.8087 4.15038 3.62527 4.15038H1.37553C1.1921 4.15038 1.07818 4.14988 0.995353 4.13874C0.920629 4.12869 0.905863 4.11385 0.901426 4.10939L0.901202 4.10916L0.735474 4.27489L0.901202 4.10916ZM4.13947 2.62573V2.62573L4.13947 2.62572C4.13947 2.62572 4.13947 2.62573 4.13947 2.62573Z" stroke="#212121" stroke-width="0.403443"/>
<path d="M1.56311 0.822613V1.38505M3.4379 0.822613V1.38505" stroke="#212121" stroke-width="0.403443" stroke-linecap="round"/>
</svg>
