<svg width="6" height="6" viewBox="0 0 6 6" fill="none" xmlns="http://www.w3.org/2000/svg">
<g clip-path="url(#clip0_0_92)">
<path d="M2.49988 4.41431V4.99964C2.49988 5.27577 2.72373 5.49962 2.99986 5.49962C3.27599 5.49962 3.49984 5.27577 3.49984 4.99964V4.41431M2.99986 0.499815V0.749806M0.749944 2.99972H0.499954M1.37492 1.37478L1.2249 1.22476M4.6248 1.37478L4.77485 1.22476M5.49976 2.99972H5.24977M4.4998 2.99972C4.4998 3.82811 3.82825 4.49966 2.99986 4.49966C2.17146 4.49966 1.49992 3.82811 1.49992 2.99972C1.49992 2.17132 2.17146 1.49978 2.99986 1.49978C3.82825 1.49978 4.4998 2.17132 4.4998 2.99972Z" stroke="#696969" stroke-width="0.396079" stroke-linecap="round" stroke-linejoin="round"/>
</g>
<defs>
<clipPath id="clip0_0_92">
<rect width="5.28105" height="5.28105" fill="white" transform="scale(1.13609)"/>
</clipPath>
</defs>
</svg>
