<svg width="20" height="20" viewBox="0 0 20 20" fill="none" xmlns="http://www.w3.org/2000/svg">
<path d="M11.8746 1.6665H7.07829C6.92873 1.6665 6.85395 1.6665 6.78792 1.68928C6.72954 1.70942 6.67636 1.74228 6.63224 1.7855C6.58234 1.83436 6.5489 1.90125 6.48201 2.03503L2.98201 9.03503C2.82228 9.35449 2.74241 9.51423 2.76159 9.64407C2.77834 9.75745 2.84106 9.85892 2.93498 9.92461C3.04253 9.99984 3.22112 9.99984 3.57829 9.99984H8.7496L6.2496 18.3332L16.4105 7.79593C16.7533 7.44042 16.9247 7.26267 16.9348 7.11057C16.9435 6.97855 16.8889 6.85024 16.7879 6.76486C16.6714 6.6665 16.4245 6.6665 15.9306 6.6665H9.9996L11.8746 1.6665Z" stroke="#B1060F" stroke-width="1.25" stroke-linecap="round" stroke-linejoin="round"/>
</svg>
