<svg width="13" height="13" viewBox="0 0 13 13" fill="none" xmlns="http://www.w3.org/2000/svg">
<g clip-path="url(#clip0_1_7454)">
<path d="M6.4999 1.08333V1.62499M1.62499 6.4999H1.08333M2.97913 2.97913L2.65408 2.65408M10.0207 2.97913L10.3458 2.65408M11.9165 6.4999H11.3748M5.41658 7.31238H7.58321M6.4999 7.31238V10.0207M8.39569 9.13991C9.2158 8.54995 9.74984 7.58729 9.74984 6.4999C9.74984 4.70501 8.29479 3.24996 6.4999 3.24996C4.70501 3.24996 3.24996 4.70501 3.24996 6.4999C3.24996 7.58729 3.784 8.54995 4.6041 9.13991V10.1832C4.6041 10.7899 4.6041 11.0932 4.72217 11.325C4.82603 11.5288 4.99176 11.6945 5.1956 11.7984C5.42733 11.9165 5.73069 11.9165 6.3374 11.9165H6.66239C7.26911 11.9165 7.57246 11.9165 7.8042 11.7984C8.00803 11.6945 8.17376 11.5288 8.27762 11.325C8.39569 11.0932 8.39569 10.7899 8.39569 10.1832V9.13991Z" stroke="#B1060F" stroke-width="0.78917" stroke-linecap="round" stroke-linejoin="round"/>
</g>
<defs>
<clipPath id="clip0_1_7454">
<rect width="12.6267" height="12.6267" fill="white" transform="scale(1.02954)"/>
</clipPath>
</defs>
</svg>
