<svg width="6" height="6" viewBox="0 0 6 6" fill="none" xmlns="http://www.w3.org/2000/svg">
<g clip-path="url(#clip0_1_7361)">
<path d="M3.99988 4.24966L5.24983 2.99971M5.24983 2.99971L3.99988 1.74975M5.24983 2.99971H2.24994M2.99991 4.24966C2.99991 4.32355 2.99991 4.3605 2.99717 4.3925C2.96862 4.72513 2.72364 4.99884 2.3962 5.06395C2.3647 5.07021 2.32794 5.07429 2.25453 5.08245L1.99919 5.11082C1.61559 5.15344 1.42378 5.17475 1.2714 5.12599C1.06822 5.06098 0.902348 4.91251 0.815292 4.71776C0.75 4.5717 0.75 4.37871 0.75 3.99274V2.00667C0.75 1.6207 0.75 1.42772 0.815292 1.28165C0.902348 1.0869 1.06822 0.938435 1.2714 0.873418C1.42378 0.824656 1.61558 0.845967 1.99919 0.88859L2.25453 0.916962C2.32797 0.925122 2.36469 0.929202 2.3962 0.935466C2.72364 1.00057 2.96862 1.27428 2.99717 1.60691C2.99991 1.63892 2.99991 1.67586 2.99991 1.74975" stroke="#A0A0A0" stroke-width="0.440087" stroke-linecap="round" stroke-linejoin="round"/>
</g>
<defs>
<clipPath id="clip0_1_7361">
<rect width="5.28105" height="5.28105" fill="white" transform="scale(1.13609)"/>
</clipPath>
</defs>
</svg>
