<svg width="6" height="6" viewBox="0 0 6 6" fill="none" xmlns="http://www.w3.org/2000/svg">
<g clip-path="url(#clip0_0_172)">
<path d="M2.3293 0.963572H1.50317C1.36021 0.963754 1.22315 1.02063 1.12206 1.12172C1.02097 1.22281 0.964101 1.35986 0.963919 1.50282V2.32896C0.964101 2.47192 1.02097 2.60898 1.12206 2.71007C1.22315 2.81116 1.36021 2.86803 1.50317 2.86821H2.3293C2.47227 2.86803 2.60932 2.81116 2.71041 2.71007C2.8115 2.60898 2.86837 2.47192 2.86856 2.32896V1.50282C2.86837 1.35986 2.8115 1.22281 2.71041 1.12172C2.60932 1.02063 2.47227 0.963754 2.3293 0.963572ZM2.57442 2.32896C2.57442 2.39397 2.54859 2.45631 2.50263 2.50228C2.45666 2.54825 2.39431 2.57407 2.3293 2.57407H1.50317C1.43816 2.57407 1.37582 2.54825 1.32985 2.50228C1.28388 2.45631 1.25806 2.39397 1.25806 2.32896V1.50282C1.25806 1.43782 1.28388 1.37547 1.32985 1.3295C1.37582 1.28353 1.43816 1.25771 1.50317 1.25771H2.3293C2.39431 1.25771 2.45666 1.28353 2.50263 1.3295C2.54859 1.37547 2.57442 1.43782 2.57442 1.50282V2.32896ZM2.3293 3.13058H1.50317C1.36021 3.13076 1.22315 3.18763 1.12206 3.28872C1.02097 3.38981 0.964101 3.52687 0.963919 3.66983V4.49596C0.964101 4.63893 1.02097 4.77598 1.12206 4.87707C1.22315 4.97816 1.36021 5.03503 1.50317 5.03522H2.3293C2.47227 5.03503 2.60932 4.97816 2.71041 4.87707C2.8115 4.77598 2.86837 4.63893 2.86856 4.49596V3.66983C2.86837 3.52687 2.8115 3.38981 2.71041 3.28872C2.60932 3.18763 2.47227 3.13076 2.3293 3.13058ZM2.57442 4.49596C2.57442 4.56097 2.54859 4.62332 2.50263 4.66929C2.45666 4.71525 2.39431 4.74108 2.3293 4.74108H1.50317C1.43816 4.74108 1.37582 4.71525 1.32985 4.66929C1.28388 4.62332 1.25806 4.56097 1.25806 4.49596V3.66983C1.25806 3.60482 1.28388 3.54248 1.32985 3.49651C1.37582 3.45054 1.43816 3.42472 1.50317 3.42472H2.3293C2.39431 3.42472 2.45666 3.45054 2.50263 3.49651C2.54859 3.54248 2.57442 3.60482 2.57442 3.66983V4.49596ZM4.49612 3.13058H3.67018C3.52721 3.13074 3.39014 3.1876 3.28904 3.28869C3.18795 3.38979 3.13108 3.52686 3.13093 3.66983V4.49596C3.13108 4.63893 3.18795 4.776 3.28904 4.8771C3.39014 4.9782 3.52721 5.03506 3.67018 5.03522H4.49621C4.63918 5.03503 4.77623 4.97816 4.87732 4.87707C4.97841 4.77598 5.03528 4.63893 5.03547 4.49596V3.66983C5.03528 3.52687 4.97841 3.38981 4.87732 3.28872C4.77623 3.18763 4.63908 3.13076 4.49612 3.13058ZM4.74123 4.49596C4.74123 4.56097 4.71541 4.62332 4.66944 4.66929C4.62347 4.71525 4.56112 4.74108 4.49612 4.74108H3.67018C3.60517 4.74108 3.54282 4.71525 3.49686 4.66929C3.45089 4.62332 3.42506 4.56097 3.42506 4.49596V3.66983C3.42506 3.60482 3.45089 3.54248 3.49686 3.49651C3.54282 3.45054 3.60517 3.42472 3.67018 3.42472H4.49621C4.56122 3.42472 4.62357 3.45054 4.66954 3.49651C4.7155 3.54248 4.74133 3.60482 4.74133 3.66983L4.74123 4.49596ZM3.30839 2.59447L3.39369 2.15326L4.04863 1.49831L4.51925 1.96893L3.86431 2.6229L3.4231 2.70918C3.40739 2.71218 3.39117 2.7113 3.37588 2.70659C3.36059 2.70189 3.34668 2.69352 3.33536 2.68221C3.32405 2.67089 3.31567 2.65698 3.31097 2.64169C3.30627 2.62639 3.30538 2.61018 3.30839 2.59447ZM4.72711 1.76108L4.25649 1.29046L4.38591 1.16104C4.40412 1.1428 4.42575 1.12834 4.44955 1.11847C4.47336 1.1086 4.49888 1.10353 4.52465 1.10353C4.55042 1.10353 4.57593 1.1086 4.59974 1.11847C4.62354 1.12834 4.64517 1.1428 4.66338 1.16104L4.85653 1.35419C4.87476 1.3724 4.88923 1.39402 4.89909 1.41783C4.90896 1.44164 4.91404 1.46715 4.91404 1.49292C4.91404 1.51869 4.90896 1.54421 4.89909 1.56801C4.88923 1.59182 4.87476 1.61344 4.85653 1.63166L4.72711 1.76108Z" fill="#696969"/>
</g>
<defs>
<clipPath id="clip0_0_172">
<rect width="5.28105" height="5.28105" fill="white" transform="scale(1.13609)"/>
</clipPath>
</defs>
</svg>
