<svg width="13" height="13" viewBox="0 0 13 13" fill="none" xmlns="http://www.w3.org/2000/svg">
<path d="M3.79163 4.60405H6.49991M3.79163 6.49985H8.12488M3.79163 9.74978V11.0148C3.79163 11.3034 3.79163 11.4478 3.85079 11.5219C3.90224 11.5863 3.98027 11.6238 4.06275 11.6237C4.15758 11.6236 4.27027 11.5335 4.49565 11.3532L5.78775 10.3195C6.0517 10.1084 6.18367 10.0028 6.33063 9.92769C6.46102 9.86108 6.5998 9.8124 6.74323 9.78296C6.90489 9.74978 7.0739 9.74978 7.41192 9.74978H8.77487C9.68493 9.74978 10.14 9.74978 10.4876 9.57267C10.7933 9.41688 11.0419 9.16829 11.1977 8.86254C11.3748 8.51494 11.3748 8.0599 11.3748 7.14983V4.22489C11.3748 3.31482 11.3748 2.85979 11.1977 2.51219C11.0419 2.20643 10.7933 1.95784 10.4876 1.80205C10.14 1.62494 9.68493 1.62494 8.77487 1.62494H4.22495C3.31488 1.62494 2.85985 1.62494 2.51225 1.80205C2.20649 1.95784 1.9579 2.20643 1.80211 2.51219C1.625 2.85979 1.625 3.31482 1.625 4.22489V7.58316C1.625 8.08688 1.625 8.33875 1.68037 8.54539C1.83063 9.10615 2.26863 9.54416 2.8294 9.69442C3.03604 9.74979 3.2879 9.74978 3.79163 9.74978Z" stroke="#B1060F" stroke-width="0.80275" stroke-linecap="round" stroke-linejoin="round"/>
</svg>
