<svg width="12" height="12" viewBox="0 0 12 12" fill="none" xmlns="http://www.w3.org/2000/svg">
<path d="M3.49999 4.25024H5.99999M3.49999 6.00024H7.49999M3.49999 9.00024V10.168C3.49999 10.4344 3.49999 10.5676 3.55461 10.636C3.6021 10.6955 3.67413 10.7302 3.75026 10.7301C3.8378 10.73 3.94183 10.6468 4.14987 10.4803L5.3426 9.52615C5.58625 9.33123 5.70807 9.23377 5.84373 9.16446C5.96409 9.10297 6.0922 9.05803 6.2246 9.03086C6.37382 9.00024 6.52984 9.00024 6.84186 9.00024H8.09999C8.94007 9.00024 9.3601 9.00024 9.68097 8.83675C9.96322 8.69294 10.1927 8.46347 10.3365 8.18122C10.5 7.86036 10.5 7.44032 10.5 6.60024V3.90024C10.5 3.06016 10.5 2.64012 10.3365 2.31925C10.1927 2.03701 9.96322 1.80754 9.68097 1.66373C9.3601 1.50024 8.94007 1.50024 8.09999 1.50024H3.89999C3.05991 1.50024 2.63987 1.50024 2.31901 1.66373C2.03676 1.80754 1.80729 2.03701 1.66348 2.31925C1.49999 2.64012 1.49999 3.06016 1.49999 3.90024V7.00024C1.49999 7.46522 1.49999 7.69772 1.5511 7.88847C1.6898 8.4061 2.09413 8.81042 2.61176 8.94912C2.80251 9.00024 3.03501 9.00024 3.49999 9.00024Z" stroke="#A0A0A0" stroke-width="0.736942" stroke-linecap="round" stroke-linejoin="round"/>
</svg>
