<svg width="6" height="6" viewBox="0 0 6 6" fill="none" xmlns="http://www.w3.org/2000/svg">
<g clip-path="url(#clip0_0_137)">
<path d="M1.08232 3.71598C1.03938 3.87686 1.06198 4.04509 1.14581 4.18951C1.42449 4.66957 2.14597 4.5709 2.28834 4.03753C2.33128 3.87672 2.30875 3.70864 2.22499 3.56422C1.94698 3.08501 1.22506 3.1808 1.08232 3.71598ZM2.14865 4.00024C2.03817 4.41431 1.48262 4.48158 1.27088 4.11691C1.20648 4.00588 1.1891 3.87679 1.22201 3.75327C1.33128 3.34416 1.8848 3.26606 2.09985 3.63675C2.16426 3.74776 2.18156 3.87686 2.14865 4.00024Z" fill="#696969" stroke="#696969" stroke-width="0.0792157"/>
<path d="M5.28018 3.61905C5.23321 3.44258 5.14081 3.29047 5.01977 3.17013L4.45841 1.9561C4.38937 1.80693 4.27069 1.69501 4.12984 1.63226L4.0733 1.41994C4.0459 1.31697 3.98001 1.23081 3.88771 1.17728C3.79534 1.12381 3.68771 1.10962 3.58495 1.13681C3.48149 1.16435 3.39519 1.23017 3.34193 1.32219C3.28833 1.41471 3.27385 1.52241 3.30118 1.62538L3.35285 1.81951C3.34268 1.83209 3.33269 1.84484 3.32344 1.85822C3.258 1.95353 3.21903 2.0637 3.20931 2.1771L2.78938 2.16978C2.77717 2.04348 2.7293 1.92171 2.64676 1.8195C2.66657 1.69522 2.77439 1.52355 2.65767 1.32227C2.48146 1.0175 2.01786 1.07584 1.92623 1.41994L1.86974 1.63232C1.72891 1.69507 1.61022 1.80698 1.5412 1.9561L0.979926 3.16994C0.858845 3.29033 0.766437 3.44251 0.719438 3.61905C0.551285 4.25082 1.02938 4.8755 1.6857 4.8755C2.12765 4.8755 2.53295 4.57987 2.65181 4.13325C2.69586 3.96781 2.6963 3.79781 2.65597 3.63612L2.68073 3.38801L3.322 3.41939L3.34365 3.63612C3.30331 3.79781 3.30376 3.96781 3.3478 4.13325C3.4893 4.66493 4.03726 4.9836 4.57091 4.84174C5.10369 4.69986 5.42185 4.15133 5.28018 3.61905ZM2.18443 1.30241C2.30635 1.23181 2.4624 1.27362 2.53253 1.39479C2.60675 1.52271 2.53935 1.62954 2.52759 1.70489C2.3845 1.59817 2.20151 1.55616 2.03238 1.5837C2.05992 1.51062 2.0548 1.37749 2.18443 1.30241ZM2.51198 4.0961C2.39079 4.55133 1.92165 4.82316 1.46585 4.70191C1.01019 4.58058 0.738082 4.1115 0.859271 3.65619C0.901505 3.49746 0.986464 3.36153 1.09799 3.25631C1.72723 2.65896 2.72997 3.27785 2.51198 4.0961ZM2.57381 3.00315L2.53861 3.35576C2.25818 2.89671 1.6736 2.75228 1.22256 2.98973L1.67242 2.01683C1.90341 1.51792 2.67571 1.69355 2.64596 2.25932L2.57381 3.00315ZM2.78792 2.3144L3.21237 2.32183C3.213 2.32935 3.26986 3.00709 3.26623 2.96395L2.72469 2.94771L2.78792 2.3144ZM2.69513 3.24388L2.71028 3.09204L3.29104 3.10944L3.30747 3.27384L2.69513 3.24388ZM3.46708 1.39472C3.50098 1.33611 3.55607 1.29416 3.62216 1.27664C3.68771 1.25913 3.75635 1.26837 3.81517 1.30241C3.874 1.33653 3.91602 1.39147 3.93346 1.45708L3.96722 1.58371C3.87658 1.56885 3.77733 1.57538 3.69448 1.59734C3.62464 1.61591 3.54663 1.65061 3.47626 1.70203C3.47488 1.70305 3.47339 1.70388 3.47201 1.7049L3.44101 1.58823C3.42358 1.52254 3.43283 1.45383 3.46708 1.39472ZM3.35363 2.26315C3.33885 2.01403 3.50053 1.79862 3.73164 1.73717C3.96538 1.67496 4.2214 1.78838 4.3272 2.01683L4.777 2.98973C4.32849 2.7535 3.74286 2.89405 3.46101 3.35576C3.45003 3.24405 3.50079 3.76047 3.35363 2.26315ZM4.53376 4.70191C4.07811 4.82302 3.60882 4.55148 3.48763 4.0961C3.42397 3.85713 3.48794 3.65376 3.487 3.661C3.70552 2.81596 4.91625 2.81418 5.14034 3.65619C5.26153 4.1115 4.98942 4.58058 4.53376 4.70191Z" fill="#696969" stroke="#696969" stroke-width="0.0792157"/>
<path d="M4.15316 3.27389C3.82018 3.36273 3.62137 3.70539 3.71001 4.03767C3.79864 4.36987 4.14143 4.56785 4.47358 4.47913C4.80866 4.39095 5.00441 4.04694 4.9161 3.71633C4.82853 3.38448 4.48643 3.18568 4.15316 3.27389ZM4.43671 4.3393L4.4365 4.33937C4.1812 4.40752 3.91778 4.25554 3.8497 4.00038C3.76875 3.69661 3.99936 3.39769 4.31305 3.39769C4.52541 3.39769 4.71976 3.53936 4.77634 3.75341C4.84443 4.00902 4.69256 4.27189 4.43671 4.3393Z" fill="#696969" stroke="#696969" stroke-width="0.0792157"/>
</g>
<defs>
<clipPath id="clip0_0_137">
<rect width="5.28105" height="5.28105" fill="white" transform="scale(1.13609)"/>
</clipPath>
</defs>
</svg>
