<svg width="7" height="7" viewBox="0 0 7 7" fill="none" xmlns="http://www.w3.org/2000/svg">
<g clip-path="url(#clip0_1_7321)">
<path d="M6.66801 2.08275C6.61866 2.03973 6.55764 2.01234 6.4927 2.00406C6.42775 1.99578 6.36181 2.00699 6.30325 2.03627L4.93035 2.71985L3.78413 0.815944C3.75466 0.767089 3.71308 0.726676 3.6634 0.698623C3.61372 0.67057 3.55763 0.655829 3.50058 0.655829C3.44353 0.655829 3.38744 0.67057 3.33776 0.698623C3.28809 0.726676 3.2465 0.767089 3.21703 0.815944L2.07081 2.72067L0.698457 2.03709C0.640036 2.00807 0.574347 1.99696 0.509634 2.00514C0.44492 2.01333 0.384065 2.04044 0.334704 2.08308C0.285344 2.12573 0.249678 2.182 0.232182 2.24484C0.214685 2.30768 0.216139 2.37428 0.236359 2.4363L1.24805 5.53591C1.25823 5.56705 1.27526 5.59551 1.2979 5.61919C1.32055 5.64286 1.34822 5.66115 1.37887 5.67269C1.40953 5.68424 1.44239 5.68876 1.47502 5.68591C1.50765 5.68306 1.53923 5.67291 1.56742 5.65622C1.57426 5.65212 2.27342 5.24936 3.50058 5.24936C4.72774 5.24936 5.4269 5.65212 5.43319 5.65595C5.46139 5.6728 5.49302 5.68308 5.52574 5.68603C5.55846 5.68898 5.59142 5.68453 5.62218 5.673C5.65294 5.66146 5.6807 5.64315 5.70342 5.61942C5.72613 5.59569 5.74321 5.56715 5.75338 5.53591L6.76508 2.43712C6.78588 2.37508 6.78775 2.30827 6.77047 2.24516C6.75318 2.18206 6.71752 2.12552 6.66801 2.08275ZM4.80868 4.28688C4.79975 4.33748 4.77329 4.38333 4.73394 4.41638C4.6946 4.44942 4.64487 4.46757 4.59349 4.46762C4.58066 4.4676 4.56785 4.4665 4.5552 4.46434C3.8565 4.34439 3.14247 4.34439 2.44377 4.46434C2.41547 4.46933 2.38647 4.4687 2.35842 4.46248C2.33037 4.45626 2.30382 4.44458 2.28028 4.4281C2.23275 4.39482 2.20038 4.34403 2.1903 4.28688C2.18022 4.22974 2.19325 4.17093 2.22653 4.12339C2.25981 4.07586 2.31061 4.04349 2.36775 4.03341C3.11676 3.90472 3.88222 3.90472 4.63122 4.03341C4.65961 4.03827 4.68677 4.04869 4.71113 4.06407C4.73549 4.07945 4.75657 4.0995 4.77316 4.12305C4.78975 4.1466 4.80152 4.1732 4.8078 4.20131C4.81409 4.22943 4.81476 4.25851 4.80977 4.28688H4.80868Z" fill="#B1060F"/>
</g>
<defs>
<clipPath id="clip0_1_7321">
<rect width="6.33726" height="6.33726" fill="white" transform="scale(1.10455)"/>
</clipPath>
</defs>
</svg>
