<svg width="20" height="20" viewBox="0 0 20 20" fill="none" xmlns="http://www.w3.org/2000/svg">
<path d="M19.0482 5.95201C18.9072 5.82908 18.7328 5.75082 18.5473 5.72718C18.3617 5.70353 18.1733 5.73556 18.006 5.8192L14.0833 7.77233L10.8083 2.33248C10.7241 2.19289 10.6053 2.07743 10.4634 1.99727C10.3214 1.91712 10.1612 1.875 9.99817 1.875C9.83516 1.875 9.67491 1.91712 9.53297 1.99727C9.39102 2.07743 9.2722 2.19289 9.18801 2.33248L5.91301 7.77467L1.99192 5.82155C1.82499 5.73865 1.63731 5.7069 1.45241 5.73028C1.26751 5.75366 1.09363 5.83113 0.952598 5.95297C0.811565 6.0748 0.70966 6.23558 0.659669 6.41513C0.609679 6.59467 0.61383 6.78498 0.671603 6.96217L3.56223 15.8184C3.59129 15.9074 3.63997 15.9887 3.70466 16.0563C3.76935 16.124 3.84841 16.1762 3.936 16.2092C4.02359 16.2422 4.11748 16.2551 4.21072 16.247C4.30396 16.2388 4.39419 16.2099 4.47473 16.1622C4.49426 16.1505 6.49192 14.9997 9.99817 14.9997C13.5044 14.9997 15.5021 16.1505 15.52 16.1614C15.6006 16.2095 15.691 16.2389 15.7845 16.2473C15.8779 16.2558 15.9721 16.243 16.06 16.2101C16.1479 16.1771 16.2272 16.1248 16.2921 16.057C16.357 15.9892 16.4058 15.9077 16.4349 15.8184L19.3255 6.96451C19.3849 6.78727 19.3903 6.59636 19.3409 6.41606C19.2915 6.23576 19.1896 6.07423 19.0482 5.95201ZM13.7357 12.2497C13.7102 12.3943 13.6346 12.5252 13.5221 12.6197C13.4097 12.7141 13.2676 12.7659 13.1208 12.7661C13.0842 12.766 13.0476 12.7629 13.0114 12.7567C11.0151 12.414 8.97497 12.414 6.97863 12.7567C6.89779 12.771 6.81493 12.7692 6.73478 12.7514C6.65463 12.7336 6.57877 12.7003 6.51152 12.6532C6.3757 12.5581 6.28322 12.4129 6.25442 12.2497C6.22562 12.0864 6.26285 11.9184 6.35794 11.7826C6.45303 11.6467 6.59817 11.5543 6.76145 11.5255C8.9015 11.1577 11.0886 11.1577 13.2286 11.5255C13.3098 11.5393 13.3874 11.5691 13.457 11.6131C13.5265 11.657 13.5868 11.7143 13.6342 11.7816C13.6816 11.8489 13.7152 11.9249 13.7332 12.0052C13.7511 12.0855 13.753 12.1686 13.7388 12.2497H13.7357Z" fill="#B1060F"/>
</svg>
