<svg width="56" height="56" viewBox="0 0 56 56" fill="none" xmlns="http://www.w3.org/2000/svg">
<path d="M53.331 16.6676C52.9362 16.3234 52.448 16.1043 51.9284 16.038C51.4089 15.9718 50.8813 16.0615 50.4128 16.2957L39.4294 21.7645L30.2594 6.53291C30.0237 6.14206 29.691 5.81874 29.2935 5.59431C28.8961 5.36988 28.4474 5.25195 27.991 5.25195C27.5345 5.25195 27.0858 5.36988 26.6884 5.59431C26.291 5.81874 25.9582 6.14206 25.7225 6.53291L16.5525 21.771L5.57346 16.3023C5.10608 16.0702 4.58055 15.9813 4.06283 16.0467C3.54511 16.1122 3.05826 16.3291 2.66337 16.6703C2.26848 17.0114 1.98314 17.4616 1.84317 17.9643C1.70319 18.467 1.71482 18.9999 1.87658 19.496L9.97033 44.2935C10.0517 44.5426 10.188 44.7703 10.3691 44.9597C10.5503 45.1491 10.7717 45.2954 11.0169 45.3878C11.2622 45.4802 11.525 45.5163 11.7861 45.4935C12.0472 45.4707 12.2998 45.3895 12.5253 45.256C12.58 45.2232 18.1735 42.001 27.991 42.001C37.8085 42.001 43.4019 45.2232 43.4522 45.2538C43.6778 45.3886 43.9309 45.4709 44.1926 45.4945C44.4543 45.5181 44.718 45.4825 44.9641 45.3902C45.2102 45.2979 45.4323 45.1515 45.614 44.9616C45.7958 44.7718 45.9324 44.5434 46.0138 44.2935L54.1075 19.5026C54.2739 19.0063 54.2889 18.4718 54.1507 17.9669C54.0124 17.4621 53.727 17.0098 53.331 16.6676ZM38.456 34.301C38.3845 34.7059 38.1729 35.0726 37.8581 35.337C37.5433 35.6014 37.1455 35.7465 36.7344 35.747C36.6318 35.7468 36.5293 35.738 36.4281 35.7207C30.8384 34.7611 25.126 34.7611 19.5363 35.7207C19.3099 35.7606 19.0779 35.7556 18.8535 35.7059C18.6291 35.6561 18.4166 35.5627 18.2283 35.4308C17.848 35.1646 17.5891 34.7582 17.5085 34.301C17.4278 33.8439 17.5321 33.3734 17.7983 32.9931C18.0646 32.6128 18.471 32.3539 18.9281 32.2732C24.9203 31.2436 31.0441 31.2436 37.0363 32.2732C37.2634 32.3121 37.4807 32.3954 37.6756 32.5185C37.8704 32.6416 38.0391 32.8019 38.1718 32.9903C38.3045 33.1788 38.3987 33.3915 38.449 33.6165C38.4993 33.8414 38.5046 34.074 38.4647 34.301H38.456Z" fill="white"/>
</svg>
