<svg width="24" height="24" viewBox="0 0 24 24" fill="none" xmlns="http://www.w3.org/2000/svg">
<path d="M22.8578 7.14242C22.6886 6.9949 22.4794 6.90099 22.2567 6.87261C22.034 6.84424 21.808 6.88267 21.6072 6.98304L16.9 9.32679L12.97 2.79898C12.869 2.63147 12.7264 2.49291 12.556 2.39673C12.3857 2.30054 12.1934 2.25 11.9978 2.25C11.8022 2.25 11.6099 2.30054 11.4396 2.39673C11.2692 2.49291 11.1266 2.63147 11.0256 2.79898L7.09561 9.3296L2.3903 6.98585C2.18999 6.88638 1.96477 6.84827 1.74289 6.87633C1.52101 6.90439 1.31236 6.99735 1.14312 7.14356C0.973879 7.28976 0.851592 7.4827 0.791603 7.69815C0.731615 7.9136 0.736597 8.14197 0.805924 8.3546L4.27467 18.9821C4.30955 19.0889 4.36796 19.1864 4.44559 19.2676C4.52323 19.3488 4.6181 19.4115 4.7232 19.4511C4.82831 19.4907 4.94097 19.5061 5.05286 19.4964C5.16475 19.4866 5.27302 19.4518 5.36967 19.3946C5.39311 19.3805 7.7903 17.9996 11.9978 17.9996C16.2053 17.9996 18.6025 19.3805 18.624 19.3937C18.7207 19.4514 18.8292 19.4867 18.9414 19.4968C19.0535 19.5069 19.1665 19.4916 19.272 19.4521C19.3775 19.4126 19.4727 19.3498 19.5506 19.2684C19.6284 19.1871 19.687 19.0892 19.7219 18.9821L23.1906 8.35742C23.2619 8.14473 23.2684 7.91563 23.2091 7.69927C23.1498 7.48291 23.0275 7.28907 22.8578 7.14242ZM16.4828 14.6996C16.4522 14.8731 16.3615 15.0303 16.2266 15.1436C16.0917 15.2569 15.9212 15.3191 15.745 15.3193C15.701 15.3192 15.6571 15.3155 15.6137 15.308C13.2181 14.8968 10.77 14.8968 8.37436 15.308C8.27735 15.3252 8.17791 15.323 8.08173 15.3017C7.98556 15.2804 7.89452 15.2403 7.81382 15.1838C7.65084 15.0697 7.53986 14.8955 7.5053 14.6996C7.47074 14.5037 7.51543 14.302 7.62953 14.1391C7.74363 13.9761 7.91781 13.8651 8.11374 13.8305C10.6818 13.3893 13.3063 13.3893 15.8744 13.8305C15.9717 13.8472 16.0648 13.8829 16.1483 13.9357C16.2319 13.9884 16.3041 14.0571 16.361 14.1379C16.4179 14.2186 16.4583 14.3098 16.4798 14.4062C16.5014 14.5026 16.5036 14.6023 16.4865 14.6996H16.4828Z" fill="#ED9C00"/>
</svg>
