<svg width="5" height="5" viewBox="0 0 5 5" fill="none" xmlns="http://www.w3.org/2000/svg">
<g clip-path="url(#clip0_1_7289)">
<path d="M4.76178 1.48767C4.72653 1.45694 4.68294 1.43737 4.63656 1.43146C4.59017 1.42555 4.54307 1.43356 4.50124 1.45447L3.52061 1.94273L2.70189 0.58282C2.68084 0.547924 2.65114 0.519058 2.61565 0.49902C2.58017 0.478983 2.54011 0.468453 2.49936 0.468453C2.45861 0.468453 2.41855 0.478983 2.38306 0.49902C2.34758 0.519058 2.31787 0.547924 2.29683 0.58282L1.47811 1.94332L0.497868 1.45505C0.456139 1.43433 0.409219 1.42639 0.362995 1.43224C0.316772 1.43808 0.273304 1.45745 0.238048 1.48791C0.202791 1.51837 0.177315 1.55856 0.164818 1.60344C0.152321 1.64833 0.153359 1.6959 0.167801 1.7402L0.890432 3.95418C0.897697 3.97642 0.909866 3.99675 0.926039 4.01366C0.942211 4.03057 0.961976 4.04363 0.983872 4.05188C1.00577 4.06013 1.02924 4.06335 1.05255 4.06132C1.07586 4.05928 1.09841 4.05204 1.11855 4.04012C1.12343 4.03719 1.62283 3.7495 2.49936 3.7495C3.37589 3.7495 3.87528 4.03719 3.87978 4.03992C3.89992 4.05196 3.92251 4.0593 3.94588 4.06141C3.96925 4.06352 3.99279 4.06033 4.01476 4.0521C4.03673 4.04386 4.05657 4.03078 4.07279 4.01383C4.08902 3.99688 4.10121 3.97649 4.10848 3.95418L4.83111 1.74079C4.84597 1.69648 4.84731 1.64875 4.83496 1.60368C4.82262 1.5586 4.79714 1.51822 4.76178 1.48767ZM3.4337 3.06203C3.42732 3.09817 3.40842 3.13092 3.38032 3.15452C3.35221 3.17813 3.3167 3.19109 3.27999 3.19112C3.27083 3.19111 3.26168 3.19033 3.25265 3.18878C2.75359 3.10311 2.24357 3.10311 1.7445 3.18878C1.72429 3.19235 1.70358 3.19189 1.68354 3.18745C1.6635 3.18301 1.64454 3.17467 1.62773 3.1629C1.59377 3.13913 1.57065 3.10284 1.56345 3.06203C1.55625 3.02121 1.56556 2.9792 1.58933 2.94525C1.61311 2.9113 1.64939 2.88818 1.69021 2.88098C2.2252 2.78906 2.77195 2.78906 3.30695 2.88098C3.32723 2.88445 3.34663 2.89189 3.36402 2.90288C3.38142 2.91387 3.39648 2.92818 3.40833 2.94501C3.42018 2.96183 3.42859 2.98083 3.43308 3.00091C3.43757 3.02099 3.43804 3.04176 3.43448 3.06203H3.4337Z" fill="#B1060F"/>
</g>
<defs>
<clipPath id="clip0_1_7289">
<rect width="4.62776" height="4.62776" fill="white" transform="scale(1.0804)"/>
</clipPath>
</defs>
</svg>
