<svg width="10" height="10" viewBox="0 0 10 10" fill="none" xmlns="http://www.w3.org/2000/svg">
<g clip-path="url(#clip0_1_6693)">
<path d="M9.52287 2.97702C9.45238 2.91556 9.36521 2.87643 9.27243 2.86461C9.17965 2.85278 9.08545 2.8688 9.00179 2.91062L7.0405 3.88717L5.40302 1.16729C5.36093 1.0975 5.30152 1.03976 5.23055 0.999687C5.15958 0.959611 5.07946 0.938552 4.99795 0.938552C4.91645 0.938552 4.83633 0.959611 4.76536 0.999687C4.69438 1.03976 4.63497 1.0975 4.59288 1.16729L2.95541 3.88834L0.994894 2.91179C0.911435 2.87034 0.817593 2.85447 0.725144 2.86616C0.632696 2.87785 0.545759 2.91658 0.475244 2.9775C0.404729 3.03842 0.353777 3.11881 0.328782 3.20858C0.303787 3.29835 0.305863 3.3935 0.334749 3.48209L1.78004 7.91014C1.79457 7.95463 1.81891 7.99528 1.85125 8.0291C1.8836 8.06292 1.92313 8.08905 1.96692 8.10554C2.01072 8.12204 2.05766 8.12849 2.10428 8.12442C2.1509 8.12035 2.19601 8.10586 2.23628 8.08202C2.24604 8.07616 3.24486 7.50078 4.99795 7.50078C6.75105 7.50078 7.74986 8.07616 7.75884 8.08163C7.79913 8.1057 7.84432 8.12038 7.89105 8.1246C7.93779 8.12881 7.98488 8.12245 8.02882 8.10598C8.07276 8.0895 8.11243 8.06334 8.14488 8.02944C8.17733 7.99554 8.20172 7.95477 8.21626 7.91014L9.66154 3.48327C9.69126 3.39465 9.69394 3.29919 9.66925 3.20904C9.64456 3.1189 9.5936 3.03813 9.52287 2.97702ZM6.86667 6.1258C6.85392 6.19809 6.81612 6.26358 6.75991 6.31079C6.7037 6.35801 6.63266 6.38392 6.55925 6.384C6.54093 6.38397 6.52263 6.38241 6.50457 6.37931C5.50642 6.20796 4.48636 6.20796 3.48821 6.37931C3.44779 6.38644 3.40636 6.38554 3.36629 6.37666C3.32621 6.36778 3.28828 6.35109 3.25466 6.32755C3.18675 6.28001 3.14051 6.20744 3.12611 6.1258C3.11171 6.04416 3.13033 5.96015 3.17787 5.89224C3.22541 5.82434 3.29798 5.7781 3.37962 5.7637C4.44963 5.57985 5.54315 5.57985 6.61316 5.7637C6.65372 5.77064 6.69252 5.78552 6.72732 5.8075C6.76211 5.82947 6.79223 5.85811 6.81593 5.89175C6.83963 5.9254 6.85645 5.96339 6.86543 6.00356C6.8744 6.04372 6.87536 6.08527 6.86823 6.1258H6.86667Z" fill="#B1060F"/>
</g>
<defs>
<clipPath id="clip0_1_6693">
<rect width="9.28109" height="9.28109" fill="white" transform="scale(1.07744)"/>
</clipPath>
</defs>
</svg>
