<svg width="11" height="11" viewBox="0 0 11 11" fill="none" xmlns="http://www.w3.org/2000/svg">
<g clip-path="url(#clip0_1_7444)">
<path d="M10.8968 4.57011C10.8649 4.53815 10.827 4.51279 10.7853 4.4955C10.7435 4.4782 10.6988 4.46929 10.6536 4.46929C10.6084 4.46929 10.5637 4.4782 10.522 4.4955C10.4803 4.51279 10.4423 4.53815 10.4104 4.57011L8.24737 6.73359L4.60835 3.09456L6.77182 0.931519C6.80376 0.899581 6.82909 0.861665 6.84638 0.819936C6.86366 0.778207 6.87256 0.733482 6.87256 0.688316C6.87256 0.643149 6.86366 0.598424 6.84638 0.556695C6.82909 0.514966 6.80376 0.47705 6.77182 0.445113C6.73988 0.413175 6.70197 0.38784 6.66024 0.370556C6.61851 0.353271 6.57379 0.344375 6.52862 0.344375C6.48345 0.344375 6.43873 0.353271 6.397 0.370556C6.35527 0.38784 6.31735 0.413175 6.28542 0.445113L4.12237 2.60859C4.01836 2.71262 3.95046 2.84727 3.92865 2.99275C3.90684 3.13823 3.93227 3.28687 4.0012 3.41683L3.09112 4.32734C2.96229 4.45626 2.88992 4.63106 2.88992 4.81331C2.88992 4.99557 2.96229 5.17037 3.09112 5.29929L3.29264 5.50081L0.785418 8.00761C0.74395 8.04905 0.713769 8.1004 0.697743 8.15679C0.681717 8.21318 0.680379 8.27274 0.693857 8.32979C0.707335 8.38684 0.735179 8.4395 0.774745 8.48276C0.814311 8.52602 0.864283 8.55844 0.91991 8.57694L4.01366 9.60819C4.0487 9.61994 4.08542 9.62589 4.12237 9.62581C4.16752 9.62585 4.21224 9.61699 4.25397 9.59973C4.2957 9.58248 4.33363 9.55718 4.36557 9.52526L5.84112 8.04929L6.04264 8.25081C6.17156 8.37965 6.34636 8.45202 6.52862 8.45202C6.71088 8.45202 6.88568 8.37965 7.01459 8.25081L7.9251 7.34073C8.05506 7.40967 8.2037 7.43509 8.34918 7.41328C8.49466 7.39147 8.62931 7.32357 8.73334 7.21956L10.8968 5.05652C10.9288 5.02459 10.9541 4.98668 10.9714 4.94495C10.9887 4.90322 10.9976 4.85849 10.9976 4.81331C10.9976 4.76814 10.9887 4.72341 10.9714 4.68168C10.9541 4.63995 10.9288 4.60204 10.8968 4.57011ZM4.02956 8.8889L1.66628 8.10042L3.77862 5.98679L5.35514 7.56331L4.02956 8.8889ZM6.52862 7.76484L3.5771 4.81331L4.46612 3.92429L7.41764 6.87581L6.52862 7.76484Z" fill="#696969"/>
<path d="M5.4984 7.56287L3.77965 5.84412L1.3734 8.25037L4.1234 8.93787L5.4984 7.56287Z" fill="#E1C700"/>
</g>
<defs>
<clipPath id="clip0_1_7444">
<rect width="10.481" height="10.481" fill="white" transform="scale(1.04952)"/>
</clipPath>
</defs>
</svg>
