<svg width="5" height="5" viewBox="0 0 5 5" fill="none" xmlns="http://www.w3.org/2000/svg">
<g clip-path="url(#clip0_1_7355)">
<path d="M2.92704 1.24997C3.13052 1.28967 3.31753 1.38919 3.46413 1.53579C3.61073 1.68239 3.71025 1.8694 3.74995 2.07289M2.92704 0.416643C3.3498 0.463608 3.74403 0.652928 4.045 0.953517C4.34597 1.25411 4.53578 1.6481 4.58328 2.0708M2.13058 2.88811C1.88025 2.63778 1.68259 2.35473 1.53759 2.05273C1.52511 2.02675 1.51888 2.01376 1.51409 1.99733C1.49706 1.93892 1.50929 1.8672 1.54471 1.81773C1.55468 1.80381 1.56658 1.79191 1.5904 1.76809C1.66323 1.69526 1.69965 1.65884 1.72346 1.62222C1.81325 1.48412 1.81325 1.30608 1.72346 1.16798C1.69965 1.13136 1.66323 1.09494 1.5904 1.02211L1.5498 0.98151C1.43908 0.870793 1.38373 0.815435 1.32427 0.785364C1.20603 0.725557 1.06639 0.725557 0.948151 0.785364C0.888697 0.815435 0.833339 0.870794 0.722622 0.98151L0.689782 1.01435C0.579444 1.12469 0.524275 1.17986 0.48214 1.25486C0.435386 1.33809 0.401769 1.46736 0.402053 1.56283C0.402309 1.64886 0.418997 1.70765 0.452374 1.82524C0.631742 2.4572 0.970173 3.05352 1.46767 3.55102C1.96516 4.04851 2.56148 4.38694 3.19344 4.56631C3.31103 4.59969 3.36983 4.61637 3.45586 4.61663C3.55132 4.61691 3.68059 4.5833 3.76382 4.53654C3.83883 4.49441 3.894 4.43924 4.00433 4.3289L4.03717 4.29606C4.14789 4.18534 4.20325 4.12999 4.23332 4.07053C4.29313 3.95229 4.29313 3.81265 4.23332 3.69441C4.20325 3.63496 4.14789 3.5796 4.03717 3.46888L3.99658 3.42828C3.92374 3.35545 3.88732 3.31903 3.8507 3.29522C3.7126 3.20543 3.53457 3.20543 3.39646 3.29522C3.35984 3.31903 3.32343 3.35545 3.25059 3.42828C3.22678 3.4521 3.21487 3.46401 3.20095 3.47397C3.15149 3.50939 3.07977 3.52162 3.02136 3.5046C3.00492 3.49981 2.99193 3.49357 2.96596 3.4811C2.66395 3.3361 2.38091 3.13843 2.13058 2.88811Z" stroke="#B1060F" stroke-width="0.35207" stroke-linecap="round" stroke-linejoin="round"/>
</g>
<defs>
<clipPath id="clip0_1_7355">
<rect width="4.22484" height="4.22484" fill="white" transform="scale(1.18347)"/>
</clipPath>
</defs>
</svg>
