<svg width="10" height="10" viewBox="0 0 10 10" fill="none" xmlns="http://www.w3.org/2000/svg">
<g clip-path="url(#clip0_1_6688)">
<path d="M5.85392 2.49997C6.26089 2.57937 6.63491 2.77841 6.9281 3.0716C7.22129 3.3648 7.42033 3.73881 7.49973 4.14578M5.85392 0.833333C6.69944 0.927264 7.48789 1.3059 8.08982 1.90707C8.69175 2.50824 9.07137 3.29621 9.16637 4.14161M4.26103 5.7762C3.76038 5.27555 3.36506 4.70946 3.07506 4.10546C3.05012 4.0535 3.03764 4.02753 3.02806 3.99466C2.99401 3.87784 3.01847 3.73441 3.08931 3.63548C3.10924 3.60764 3.13306 3.58383 3.18068 3.5362C3.32635 3.39053 3.39918 3.3177 3.4468 3.24446C3.62638 2.96826 3.62638 2.61219 3.4468 2.33599C3.39918 2.26275 3.32635 2.18992 3.18068 2.04425L3.09949 1.96305C2.87806 1.74162 2.76734 1.63091 2.64844 1.57077C2.41196 1.45115 2.13269 1.45115 1.89621 1.57077C1.7773 1.63091 1.66658 1.74162 1.44515 1.96305L1.37947 2.02873C1.1588 2.24941 1.04846 2.35974 0.964195 2.50975C0.870688 2.67621 0.803455 2.93475 0.804024 3.12567C0.804535 3.29773 0.837912 3.41532 0.904663 3.6505C1.26339 4.91439 1.94025 6.10702 2.93522 7.102C3.9302 8.09697 5.12283 8.77383 6.38672 9.13256C6.6219 9.19931 6.7395 9.23269 6.91155 9.2332C7.10248 9.23377 7.36101 9.16653 7.52747 9.07303C7.67748 8.98876 7.78781 8.87842 8.00849 8.65775L8.07417 8.59207C8.2956 8.37064 8.40631 8.25992 8.46646 8.14102C8.58607 7.90454 8.58607 7.62526 8.46646 7.38878C8.40631 7.26988 8.2956 7.15916 8.07417 6.93773L7.99297 6.85654C7.84731 6.71087 7.77447 6.63804 7.70123 6.59042C7.42503 6.41084 7.06896 6.41084 6.79276 6.59042C6.71952 6.63804 6.64669 6.71087 6.50102 6.85654C6.4534 6.90417 6.42958 6.92798 6.40174 6.94791C6.30282 7.01875 6.15938 7.04321 6.04256 7.00916C6.00969 6.99958 5.98372 6.9871 5.93176 6.96216C5.32777 6.67217 4.76167 6.27684 4.26103 5.7762Z" stroke="#B1060F" stroke-width="0.773425" stroke-linecap="round" stroke-linejoin="round"/>
</g>
<defs>
<clipPath id="clip0_1_6688">
<rect width="9.28109" height="9.28109" fill="white" transform="scale(1.07744)"/>
</clipPath>
</defs>
</svg>
