<svg width="5" height="5" viewBox="0 0 5 5" fill="none" xmlns="http://www.w3.org/2000/svg">
<g clip-path="url(#clip0_1_7284)">
<path d="M2.92689 1.25006C3.13037 1.28976 3.31737 1.38927 3.46396 1.53587C3.61056 1.68246 3.71007 1.86947 3.74977 2.07294M2.92689 0.416755C3.34964 0.463719 3.74386 0.653032 4.04481 0.953612C4.34577 1.25419 4.53558 1.64817 4.58308 2.07086M2.13045 2.88814C1.88013 2.63782 1.68248 2.35478 1.53748 2.05279C1.52501 2.02681 1.51877 2.01382 1.51398 1.99739C1.49696 1.93898 1.50919 1.86726 1.54461 1.8178C1.55457 1.80388 1.56648 1.79197 1.59029 1.76816C1.66312 1.69533 1.69954 1.65891 1.72335 1.62229C1.81314 1.4842 1.81314 1.30616 1.72335 1.16807C1.69954 1.13145 1.66313 1.09503 1.59029 1.0222L1.5497 0.981604C1.43898 0.870891 1.38363 0.815534 1.32417 0.785464C1.20594 0.725659 1.0663 0.725659 0.948066 0.785464C0.888613 0.815534 0.833257 0.870891 0.722544 0.981604L0.689704 1.01444C0.57937 1.12478 0.524203 1.17994 0.48207 1.25495C0.435317 1.33818 0.401701 1.46744 0.401985 1.5629C0.402241 1.64893 0.418929 1.70772 0.452304 1.82531C0.631667 2.45725 0.970086 3.05355 1.46756 3.55103C1.96504 4.0485 2.56135 4.38692 3.19328 4.56629C3.31087 4.59966 3.36966 4.61635 3.45569 4.61661C3.55115 4.61689 3.68042 4.58327 3.76364 4.53652C3.83865 4.49439 3.89381 4.43922 4.00415 4.32889L4.03699 4.29605C4.1477 4.18533 4.20306 4.12998 4.23313 4.07053C4.29293 3.95229 4.29293 3.81265 4.23313 3.69442C4.20306 3.63496 4.1477 3.57961 4.03699 3.46889L3.99639 3.4283C3.92356 3.35547 3.88714 3.31905 3.85052 3.29524C3.71243 3.20545 3.5344 3.20545 3.3963 3.29524C3.35968 3.31905 3.32326 3.35547 3.25043 3.4283C3.22662 3.45211 3.21471 3.46402 3.20079 3.47399C3.15133 3.5094 3.07961 3.52163 3.02121 3.50461C3.00477 3.49982 2.99178 3.49358 2.96581 3.48111C2.66381 3.33612 2.38077 3.13846 2.13045 2.88814Z" stroke="#B1060F" stroke-width="0.385647" stroke-linecap="round" stroke-linejoin="round"/>
</g>
<defs>
<clipPath id="clip0_1_7284">
<rect width="4.62776" height="4.62776" fill="white" transform="scale(1.0804)"/>
</clipPath>
</defs>
</svg>
