<svg width="24" height="24" viewBox="0 0 24 24" fill="none" xmlns="http://www.w3.org/2000/svg">
<path d="M17.7448 2.81286C18.7095 1.81638 20.3036 1.80349 21.2843 2.78424C22.2382 3.73811 22.2559 5.27908 21.3243 6.25469L18.5456 9.16445C18.3278 9.39252 18.219 9.50656 18.1518 9.64012C18.0924 9.75835 18.0571 9.8872 18.0478 10.0192C18.0374 10.1683 18.0728 10.3219 18.1438 10.6292L19.8717 18.1168C19.9444 18.4322 19.9808 18.5899 19.9691 18.7425C19.9587 18.8775 19.921 19.009 19.8582 19.129C19.7873 19.2646 19.6729 19.379 19.444 19.6079L19.0732 19.9787C18.4671 20.5848 18.164 20.8879 17.8538 20.9428C17.583 20.9907 17.3043 20.9249 17.0835 20.7609C16.8306 20.5731 16.695 20.1665 16.424 19.3533L14.4142 13.324L11.0689 16.6693C10.8692 16.869 10.7694 16.9689 10.7026 17.0864C10.6434 17.1906 10.6034 17.3045 10.5846 17.4228C10.5633 17.5564 10.5789 17.6967 10.61 17.9774L10.7937 19.6308C10.8249 19.9115 10.8405 20.0518 10.8192 20.1853C10.8004 20.3036 10.7604 20.4176 10.7012 20.5217C10.6344 20.6393 10.5346 20.7392 10.3349 20.9388L10.1374 21.1363C9.66434 21.6094 9.42781 21.8459 9.16496 21.9144C8.93442 21.9745 8.68999 21.9503 8.47571 21.8462C8.2314 21.7275 8.04585 21.4491 7.67475 20.8925L6.10643 18.54C6.04013 18.4406 6.00698 18.3908 5.96849 18.3457C5.9343 18.3057 5.89701 18.2684 5.85694 18.2342C5.81184 18.1957 5.76212 18.1626 5.66267 18.0963L3.31018 16.5279C2.75354 16.1568 2.47521 15.9713 2.35649 15.727C2.25236 15.5127 2.22816 15.2683 2.28824 15.0377C2.35674 14.7749 2.59327 14.5383 3.06633 14.0653L3.26384 13.8678C3.46352 13.6681 3.56337 13.5682 3.68095 13.5015C3.78511 13.4423 3.89906 13.4023 4.01736 13.3834C4.15089 13.3622 4.29123 13.3777 4.5719 13.4089L6.22529 13.5926C6.50596 13.6238 6.6463 13.6394 6.77983 13.6181C6.89813 13.5993 7.01208 13.5593 7.11624 13.5001C7.23382 13.4333 7.33366 13.3335 7.53335 13.1338L10.8787 9.78848L4.84939 7.77872C4.03616 7.50764 3.62955 7.3721 3.44176 7.11919C3.27777 6.89836 3.212 6.61972 3.2599 6.34886C3.31477 6.03867 3.61784 5.7356 4.22399 5.12945L4.59476 4.75868C4.82365 4.52979 4.9381 4.41534 5.07369 4.34445C5.1937 4.28171 5.3252 4.24399 5.46023 4.23359C5.61278 4.22184 5.77049 4.25824 6.0859 4.33103L13.545 6.05236C13.855 6.12389 14.01 6.15966 14.1596 6.14902C14.3041 6.13874 14.4446 6.09721 14.5714 6.0273C14.7028 5.95488 14.8134 5.84062 15.0347 5.61208L17.7448 2.81286Z" stroke="#B1060F" stroke-width="1.5" stroke-linecap="round" stroke-linejoin="round"/>
</svg>
