<svg width="41" height="41" viewBox="0 0 41 41" fill="none" xmlns="http://www.w3.org/2000/svg">
<path d="M30.314 4.80564C31.9621 3.10333 34.6852 3.08131 36.3607 4.75675C37.9902 6.38628 38.0205 9.01876 36.429 10.6854L31.6821 15.6562C31.3101 16.0459 31.124 16.2407 31.0094 16.4688C30.9079 16.6708 30.8475 16.8909 30.8317 17.1164C30.8139 17.3712 30.8744 17.6336 30.9956 18.1586L33.9474 30.9498C34.0717 31.4886 34.1339 31.758 34.1138 32.0186C34.0961 32.2493 34.0316 32.4739 33.9245 32.6789C33.8034 32.9106 33.6078 33.1061 33.2168 33.4971L32.5834 34.1305C31.5479 35.166 31.0302 35.6838 30.5003 35.7775C30.0375 35.8593 29.5616 35.747 29.1843 35.4668C28.7522 35.146 28.5207 34.4514 28.0576 33.0621L24.6243 22.7621L18.9094 28.477C18.5682 28.8182 18.3977 28.9887 18.2836 29.1896C18.1825 29.3675 18.1142 29.5622 18.082 29.7643C18.0456 29.9924 18.0722 30.2322 18.1255 30.7116L18.4394 33.5362C18.4926 34.0157 18.5193 34.2554 18.4829 34.4835C18.4506 34.6856 18.3824 34.8803 18.2813 35.0582C18.1672 35.2591 17.9966 35.4296 17.6555 35.7708L17.3181 36.1082C16.51 36.9163 16.1059 37.3204 15.6568 37.4374C15.263 37.54 14.8454 37.4987 14.4794 37.3208C14.062 37.118 13.745 36.6425 13.1111 35.6916L10.4319 31.6728C10.3186 31.5029 10.262 31.4179 10.1962 31.3409C10.1378 31.2725 10.0741 31.2087 10.0057 31.1503C9.92862 31.0846 9.84367 31.028 9.67378 30.9147L5.65497 28.2355C4.70403 27.6015 4.22856 27.2845 4.02575 26.8672C3.84786 26.5011 3.80651 26.0836 3.90916 25.6897C4.02618 25.2407 4.43025 24.8366 5.23839 24.0285L5.57579 23.6911C5.91692 23.3499 6.08749 23.1794 6.28835 23.0653C6.46629 22.9642 6.66095 22.8959 6.86305 22.8637C7.09117 22.8273 7.33091 22.8539 7.81039 22.9072L10.6349 23.221C11.1144 23.2743 11.3541 23.301 11.5823 23.2646C11.7844 23.2323 11.979 23.1641 12.157 23.063C12.3578 22.9489 12.5284 22.7783 12.8695 22.4372L18.5844 16.7223L8.28444 13.289C6.89518 12.8259 6.20055 12.5943 5.87973 12.1623C5.5996 11.785 5.48723 11.309 5.56907 10.8463C5.6628 10.3164 6.18055 9.79864 7.21604 8.76314L7.84944 8.12974C8.24046 7.73872 8.43598 7.54321 8.66761 7.4221C8.87263 7.31491 9.09728 7.25049 9.32794 7.23272C9.58856 7.21265 9.85797 7.27482 10.3968 7.39917L23.1395 10.3398C23.669 10.462 23.9337 10.5231 24.1893 10.5049C24.4361 10.4873 24.6761 10.4164 24.8928 10.297C25.1172 10.1733 25.3062 9.97804 25.6842 9.58763L30.314 4.80564Z" stroke="#B1060F" stroke-width="2.4171" stroke-linecap="round" stroke-linejoin="round"/>
</svg>
