<svg width="13" height="13" viewBox="0 0 13 13" fill="none" xmlns="http://www.w3.org/2000/svg">
<g clip-path="url(#clip0_1_7366)">
<path d="M4.06248 2.43724C4.06248 1.68936 4.66876 1.08308 5.41664 1.08308C6.16452 1.08308 6.7708 1.68936 6.7708 2.43724V3.24973H7.31246C8.06961 3.24973 8.44819 3.24973 8.74681 3.37343C9.14498 3.53835 9.46132 3.8547 9.62625 4.25287C9.74995 4.55149 9.74995 4.93007 9.74995 5.68722H10.5624C11.3103 5.68722 11.9166 6.29349 11.9166 7.04138C11.9166 7.78926 11.3103 8.39553 10.5624 8.39553H9.74995V9.31636C9.74995 10.2264 9.74995 10.6815 9.57283 11.0291C9.41704 11.3348 9.16845 11.5834 8.86269 11.7392C8.51508 11.9163 8.06004 11.9163 7.14996 11.9163H6.7708V10.9684C6.7708 10.2953 6.22515 9.74969 5.55206 9.74969C4.87896 9.74969 4.33331 10.2953 4.33331 10.9684V11.9163H3.68332C2.77324 11.9163 2.3182 11.9163 1.97059 11.7392C1.66483 11.5834 1.41624 11.3348 1.26045 11.0291C1.08333 10.6815 1.08333 10.2264 1.08333 9.31636V8.39553H1.89583C2.64371 8.39553 3.24999 7.78926 3.24999 7.04138C3.24999 6.29349 2.64371 5.68722 1.89583 5.68722H1.08333C1.08333 4.93007 1.08333 4.55149 1.20703 4.25287C1.37195 3.8547 1.6883 3.53835 2.08647 3.37343C2.38509 3.24973 2.76367 3.24973 3.52082 3.24973H4.06248V2.43724Z" fill="#B1060F" fill-opacity="0.5" stroke="#B1060F" stroke-width="0.625338" stroke-linecap="round" stroke-linejoin="round"/>
</g>
<defs>
<clipPath id="clip0_1_7366">
<rect width="12.5068" height="12.5068" fill="white" transform="scale(1.03943)"/>
</clipPath>
</defs>
</svg>
