<svg width="6" height="6" viewBox="0 0 6 6" fill="none" xmlns="http://www.w3.org/2000/svg">
<g clip-path="url(#clip0_0_284)">
<path d="M5.18561 1.98224C5.35663 1.93995 5.35617 1.66497 5.18547 1.62276L3.07346 1.10652C3.02508 1.09485 2.97358 1.09497 2.9265 1.10656L0.813553 1.62279C0.642994 1.66497 0.642614 1.93997 0.813722 1.98228L1.5208 2.15502V2.82968C1.5208 2.84843 1.52667 2.8666 1.53741 2.8809C1.77117 3.19284 2.44593 3.30399 2.9995 3.30399C3.55309 3.30399 4.22772 3.1928 4.46092 2.88082C4.47164 2.86652 4.47751 2.84839 4.47751 2.82968V2.15532L4.80555 2.07514V2.91865C4.69833 2.96536 4.62131 3.11472 4.62131 3.29873C4.62131 3.34165 4.62576 3.38329 4.63398 3.42271L2.99905 3.66538L1.03715 3.374C1.01665 3.37094 0.996214 3.37815 0.980969 3.39364C0.85867 3.51774 0.819699 3.85456 0.835317 4.13338C0.843354 4.2768 0.873845 4.53071 0.98791 4.61994C0.999716 4.6292 1.01372 4.63408 1.02798 4.63408C1.03062 4.63408 1.0333 4.63392 1.03594 4.63357L2.88411 4.39548L2.70376 4.84236C2.68766 4.88226 2.70328 4.92929 2.73861 4.94746C2.77448 4.96579 2.8158 4.94762 2.83177 4.90814L2.99957 4.49233L3.16736 4.9081C3.1835 4.94796 3.22526 4.96547 3.26051 4.94742C3.29585 4.92925 3.31147 4.88222 3.29536 4.84232L3.11508 4.39561L4.96353 4.63357C4.98053 4.63575 4.99773 4.63083 5.01177 4.61974C5.20343 4.46859 5.20158 3.79684 5.09036 3.51215C5.11593 3.44944 5.1304 3.3757 5.1304 3.29873C5.1304 3.11472 5.05341 2.96536 4.94619 2.91865V2.04076L5.18561 1.98224ZM3.16032 4.23984C3.15314 4.23901 2.99741 4.22086 3.00701 4.22198C2.99891 4.22092 2.84588 4.23888 2.83884 4.23977V3.80729L2.9916 3.8246C2.99627 3.82515 3.00101 3.82515 3.00561 3.8246L3.16032 3.80721V4.23984ZM0.975682 4.12339C0.962152 3.88187 0.997453 3.63392 1.05603 3.53683L2.6982 3.78074V4.25972L1.05236 4.47175C1.02001 4.42383 0.98585 4.30482 0.975682 4.12339ZM4.94756 4.47179L3.30096 4.25983V3.78061C3.37907 3.76903 2.88431 3.84243 4.94331 3.53691C5.05876 3.72674 5.0468 4.3309 4.94756 4.47179ZM4.98348 3.37447C4.966 3.37086 4.96906 3.37416 4.77424 3.40174C4.7662 3.36994 4.76195 3.33472 4.76195 3.29873C4.76195 3.16251 4.8221 3.06069 4.87587 3.06069C4.92964 3.06069 4.98976 3.16251 4.98976 3.29873C4.98976 3.32492 4.9876 3.35041 4.98348 3.37447ZM0.84346 1.77787L2.95644 1.2616C2.98525 1.25454 3.01599 1.2549 3.04383 1.26168L5.15553 1.77783C5.17923 1.78369 5.17929 1.82133 5.15567 1.82715C2.91835 2.37208 3.04239 2.34859 2.99995 2.34862C2.95869 2.34864 3.08688 2.3734 0.843629 1.82719C0.820023 1.82136 0.819854 1.78371 0.84346 1.77787ZM4.33687 2.79896C4.15513 3.007 3.62502 3.14531 2.9995 3.14531C2.37393 3.14531 1.84355 3.007 1.66144 2.79892V2.1897C2.93276 2.49711 2.93111 2.50727 2.9997 2.50727C3.06804 2.50727 3.02761 2.50607 4.33687 2.18974V2.79896Z" fill="#696969" stroke="#696969" stroke-width="0.0792157"/>
</g>
<defs>
<clipPath id="clip0_0_284">
<rect width="5.28105" height="5.28105" fill="white" transform="scale(1.13609)"/>
</clipPath>
</defs>
</svg>
