<svg width="41" height="41" viewBox="0 0 41 41" fill="none" xmlns="http://www.w3.org/2000/svg">
<path d="M15.7387 24.7707C16.272 25.7863 17.337 26.4791 18.5638 26.4791H22.2082C24.0952 26.4791 25.6249 24.9494 25.6249 23.0624C25.6249 21.1754 24.0952 19.6457 22.2082 19.6457H18.7915C16.9046 19.6457 15.3749 18.116 15.3749 16.2291C15.3749 14.3421 16.9046 12.8124 18.7915 12.8124H22.436C23.6627 12.8124 24.7277 13.5051 25.2611 14.5208M20.4999 10.2499V12.8124M20.4999 26.4791V29.0415M34.1665 20.4999C34.1665 28.8851 25.0202 34.9838 21.6923 36.9253C21.3141 37.1459 21.125 37.2562 20.8581 37.3135C20.651 37.3579 20.3488 37.3579 20.1417 37.3135C19.8748 37.2562 19.6857 37.1459 19.3075 36.9253C15.9796 34.9838 6.83325 28.8851 6.83325 20.4999V12.33C6.83325 10.9642 6.83325 10.2813 7.05663 9.69422C7.25397 9.17563 7.57464 8.71291 7.99091 8.34605C8.46213 7.93077 9.10157 7.69099 10.3804 7.21141L19.5401 3.77652C19.8953 3.64334 20.0729 3.57675 20.2556 3.55035C20.4176 3.52693 20.5822 3.52693 20.7442 3.55035C20.9269 3.57675 21.1045 3.64334 21.4596 3.77652L30.6193 7.21141C31.8982 7.69099 32.5376 7.93077 33.0088 8.34605C33.4251 8.71291 33.7458 9.17563 33.9431 9.69422C34.1665 10.2813 34.1665 10.9642 34.1665 12.33V20.4999Z" stroke="#B1060F" stroke-width="2.4171" stroke-linecap="round" stroke-linejoin="round"/>
</svg>
