<svg width="6" height="6" viewBox="0 0 6 6" fill="none" xmlns="http://www.w3.org/2000/svg">
<g clip-path="url(#clip0_0_205)">
<path d="M3.28516 3.49241L2.50911 3.04479V2.14576L1.65504 1.65588L0.800966 2.14904V4.03137L2.43109 4.97182L3.28516 4.47873V3.49241ZM2.35306 3.04434L1.73306 3.40236V2.6871L2.35306 2.32908V3.04434ZM2.43109 3.89545L1.81166 3.53776L2.4316 3.17987L3.05115 3.53756L2.43109 3.89545ZM1.65504 1.83605L2.26591 2.19857L1.65439 2.55163L1.03497 2.194L1.65504 1.83605ZM0.956948 3.94125V2.32908L1.57701 2.6871V3.58581L2.35306 4.03066V4.74663L0.956948 3.94125ZM2.50911 4.74657V4.03124L3.12918 3.67341V4.38868L2.50911 4.74657Z" fill="#696969" stroke="#696969" stroke-width="0.0792157"/>
<path d="M5.19753 1.52144L4.34327 1.02848L2.71334 1.97022V2.95641L4.34346 3.89699L5.19747 3.40518L5.19753 1.52144ZM2.94741 2.01518L4.33857 1.21128L4.96346 1.56653L3.56883 2.37159L2.94741 2.01518ZM2.86939 2.15039L3.48939 2.50847V3.22425L2.86939 2.86629V2.15039ZM3.7241 3.35913L3.72481 3.35868H3.72462L4.26544 3.04646V3.67174L3.7241 3.35913ZM5.04155 3.31378L4.42148 3.67174V2.77624L3.64544 3.22425V2.5084L5.04155 1.70187V3.31378Z" fill="#696969" stroke="#696969" stroke-width="0.0792157"/>
</g>
<defs>
<clipPath id="clip0_0_205">
<rect width="5.28105" height="5.28105" fill="white" transform="scale(1.13609)"/>
</clipPath>
</defs>
</svg>
