<svg width="12" height="12" viewBox="0 0 12 12" fill="none" xmlns="http://www.w3.org/2000/svg">
<g clip-path="url(#clip0_1_7421)">
<path d="M3.25001 6.49983L3.64224 7.28429C3.77499 7.54977 3.84136 7.68252 3.93003 7.79755C4.00871 7.89962 4.10022 7.99113 4.20229 8.06981C4.31732 8.15848 4.45007 8.22485 4.71556 8.3576L5.50001 8.74983L4.71556 9.14205C4.45007 9.2748 4.31732 9.34117 4.20229 9.42984C4.10022 9.50852 4.00871 9.60003 3.93003 9.7021C3.84136 9.81713 3.77499 9.94988 3.64224 10.2154L3.25002 10.9998L2.85779 10.2154C2.72504 9.94988 2.65867 9.81713 2.57 9.7021C2.49132 9.60003 2.39981 9.50852 2.29774 9.42984C2.18271 9.34117 2.04996 9.2748 1.78447 9.14205L1.00002 8.74983L1.78447 8.3576C2.04996 8.22485 2.18271 8.15848 2.29774 8.06981C2.39981 7.99113 2.49132 7.89962 2.57 7.79755C2.65867 7.68252 2.72504 7.54977 2.85779 7.28428L3.25001 6.49983Z" fill="#B1060F"/>
<path d="M7.50001 0.999829L8.08932 2.53204C8.23033 2.89865 8.30083 3.08196 8.41047 3.23615C8.50764 3.37281 8.62704 3.4922 8.76369 3.58937C8.91788 3.69901 9.10119 3.76951 9.4678 3.91052L11 4.49983L9.4678 5.08914C9.10119 5.23014 8.91788 5.30065 8.76369 5.41028C8.62704 5.50745 8.50764 5.62685 8.41047 5.76351C8.30083 5.9177 8.23033 6.101 8.08932 6.46762L7.50001 7.99983L6.9107 6.46762C6.7697 6.101 6.69919 5.9177 6.58956 5.76351C6.49239 5.62685 6.37299 5.50745 6.23633 5.41028C6.08215 5.30065 5.89884 5.23014 5.53222 5.08914L4.00001 4.49983L5.53222 3.91052C5.89884 3.76951 6.08214 3.69901 6.23633 3.58937C6.37299 3.4922 6.49239 3.37281 6.58956 3.23615C6.69919 3.08196 6.7697 2.89865 6.9107 2.53204L7.50001 0.999829Z" fill="#B1060F"/>
<path d="M3.25001 6.49983L3.64224 7.28429C3.77499 7.54977 3.84136 7.68252 3.93003 7.79755C4.00871 7.89962 4.10022 7.99113 4.20229 8.06981C4.31732 8.15848 4.45007 8.22485 4.71556 8.3576L5.50001 8.74983L4.71556 9.14205C4.45007 9.2748 4.31732 9.34117 4.20229 9.42984C4.10022 9.50852 4.00871 9.60003 3.93003 9.7021C3.84136 9.81713 3.77499 9.94988 3.64224 10.2154L3.25002 10.9998L2.85779 10.2154C2.72504 9.94988 2.65867 9.81713 2.57 9.7021C2.49132 9.60003 2.39981 9.50852 2.29774 9.42984C2.18271 9.34117 2.04996 9.2748 1.78447 9.14205L1.00002 8.74983L1.78447 8.3576C2.04996 8.22485 2.18271 8.15848 2.29774 8.06981C2.39981 7.99113 2.49132 7.89962 2.57 7.79755C2.65867 7.68252 2.72504 7.54977 2.85779 7.28428L3.25001 6.49983Z" stroke="#B1060F" stroke-width="0.982589" stroke-linecap="round" stroke-linejoin="round"/>
<path d="M7.50001 0.999829L8.08932 2.53204C8.23033 2.89865 8.30083 3.08196 8.41047 3.23615C8.50764 3.37281 8.62704 3.4922 8.76369 3.58937C8.91788 3.69901 9.10119 3.76951 9.4678 3.91052L11 4.49983L9.4678 5.08914C9.10119 5.23014 8.91788 5.30065 8.76369 5.41028C8.62704 5.50745 8.50764 5.62685 8.41047 5.76351C8.30083 5.9177 8.23033 6.101 8.08932 6.46762L7.50001 7.99983L6.9107 6.46762C6.7697 6.101 6.69919 5.9177 6.58956 5.76351C6.49239 5.62685 6.37299 5.50745 6.23633 5.41028C6.08215 5.30065 5.89884 5.23014 5.53222 5.08914L4.00001 4.49983L5.53222 3.91052C5.89884 3.76951 6.08214 3.69901 6.23633 3.58937C6.37299 3.4922 6.49239 3.37281 6.58956 3.23615C6.69919 3.08196 6.7697 2.89865 6.9107 2.53204L7.50001 0.999829Z" stroke="#B1060F" stroke-width="0.982589" stroke-linecap="round" stroke-linejoin="round"/>
</g>
<defs>
<clipPath id="clip0_1_7421">
<rect width="11.7911" height="11.7911" fill="white" transform="scale(1.01772)"/>
</clipPath>
</defs>
</svg>
