<svg width="14" height="14" viewBox="0 0 14 14" fill="none" xmlns="http://www.w3.org/2000/svg">
<path d="M3.79163 7.58346L4.24923 8.49865C4.4041 8.80839 4.48153 8.96326 4.58498 9.09746C4.67677 9.21654 4.78353 9.3233 4.90261 9.41509C5.03681 9.51854 5.19168 9.59597 5.50142 9.75084L6.41661 10.2084L5.50142 10.666C5.19168 10.8209 5.03681 10.8983 4.90261 11.0018C4.78353 11.0936 4.67677 11.2003 4.58498 11.3194C4.48153 11.4536 4.4041 11.6085 4.24923 11.9182L3.79163 12.8334L3.33403 11.9182C3.17916 11.6085 3.10173 11.4536 2.99828 11.3194C2.90649 11.2003 2.79973 11.0936 2.68065 11.0018C2.54645 10.8983 2.39158 10.8209 2.08184 10.666L1.16665 10.2084L2.08184 9.75084C2.39158 9.59598 2.54644 9.51854 2.68065 9.41509C2.79973 9.3233 2.90649 9.21654 2.99828 9.09746C3.10173 8.96326 3.17916 8.80839 3.33403 8.49865L3.79163 7.58346Z" fill="#B1060F" fill-opacity="0.7"/>
<path d="M8.74993 1.16683L9.43746 2.9544C9.60196 3.38211 9.68422 3.59597 9.81213 3.77586C9.92549 3.93529 10.0648 4.07458 10.2242 4.18795C10.4041 4.31585 10.618 4.39811 11.0457 4.56261L12.8332 5.25014L11.0457 5.93766C10.618 6.10217 10.4041 6.18442 10.2242 6.31233C10.0648 6.4257 9.92549 6.56499 9.81213 6.72442C9.68422 6.90431 9.60196 7.11817 9.43746 7.54588L8.74993 9.33345L8.06241 7.54588C7.8979 7.11817 7.81565 6.90431 7.68774 6.72442C7.57437 6.56499 7.43508 6.4257 7.27565 6.31233C7.09576 6.18442 6.88191 6.10217 6.45419 5.93766L4.66662 5.25014L6.45419 4.56261C6.8819 4.39811 7.09576 4.31585 7.27565 4.18795C7.43508 4.07458 7.57437 3.93529 7.68774 3.77586C7.81565 3.59597 7.8979 3.38211 8.06241 2.9544L8.74993 1.16683Z" fill="#B1060F" fill-opacity="0.7"/>
<path d="M3.79163 7.58346L4.24923 8.49865C4.4041 8.80839 4.48153 8.96326 4.58498 9.09746C4.67677 9.21654 4.78353 9.3233 4.90261 9.41509C5.03681 9.51854 5.19168 9.59597 5.50142 9.75084L6.41661 10.2084L5.50142 10.666C5.19168 10.8209 5.03681 10.8983 4.90261 11.0018C4.78353 11.0936 4.67677 11.2003 4.58498 11.3194C4.48153 11.4536 4.4041 11.6085 4.24923 11.9182L3.79163 12.8334L3.33403 11.9182C3.17916 11.6085 3.10173 11.4536 2.99828 11.3194C2.90649 11.2003 2.79973 11.0936 2.68065 11.0018C2.54645 10.8983 2.39158 10.8209 2.08184 10.666L1.16665 10.2084L2.08184 9.75084C2.39158 9.59598 2.54644 9.51854 2.68065 9.41509C2.79973 9.3233 2.90649 9.21654 2.99828 9.09746C3.10173 8.96326 3.17916 8.80839 3.33403 8.49865L3.79163 7.58346Z" stroke="#B1060F" stroke-width="0.69482" stroke-linecap="round" stroke-linejoin="round"/>
<path d="M8.74993 1.16683L9.43746 2.9544C9.60196 3.38211 9.68422 3.59597 9.81213 3.77586C9.92549 3.93529 10.0648 4.07458 10.2242 4.18795C10.4041 4.31585 10.618 4.39811 11.0457 4.56261L12.8332 5.25014L11.0457 5.93766C10.618 6.10217 10.4041 6.18442 10.2242 6.31233C10.0648 6.4257 9.92549 6.56499 9.81213 6.72442C9.68422 6.90431 9.60196 7.11817 9.43746 7.54588L8.74993 9.33345L8.06241 7.54588C7.8979 7.11817 7.81565 6.90431 7.68774 6.72442C7.57437 6.56499 7.43508 6.4257 7.27565 6.31233C7.09576 6.18442 6.88191 6.10217 6.45419 5.93766L4.66662 5.25014L6.45419 4.56261C6.8819 4.39811 7.09576 4.31585 7.27565 4.18795C7.43508 4.07458 7.57437 3.93529 7.68774 3.77586C7.81565 3.59597 7.8979 3.38211 8.06241 2.9544L8.74993 1.16683Z" stroke="#B1060F" stroke-width="0.69482" stroke-linecap="round" stroke-linejoin="round"/>
</svg>
