<svg width="9" height="9" viewBox="0 0 9 9" fill="none" xmlns="http://www.w3.org/2000/svg">
<path d="M4.23096 1.29474C4.31739 1.11964 4.3606 1.03209 4.41927 1.00412C4.47032 0.979779 4.52962 0.979779 4.58066 1.00412C4.63933 1.03209 4.68255 1.11964 4.76898 1.29474L5.58898 2.95598C5.6145 3.00767 5.62726 3.03352 5.6459 3.05358C5.66241 3.07135 5.68221 3.08575 5.7042 3.09598C5.72904 3.10753 5.75756 3.1117 5.81461 3.12003L7.64883 3.38813C7.84198 3.41636 7.93855 3.43048 7.98325 3.47766C8.02213 3.5187 8.04042 3.5751 8.03302 3.63116C8.02451 3.69558 7.95459 3.76368 7.81476 3.89989L6.488 5.19215C6.44664 5.23243 6.42596 5.25257 6.41262 5.27654C6.4008 5.29776 6.39322 5.32107 6.3903 5.34518C6.387 5.37241 6.39188 5.40086 6.40164 5.45777L6.71469 7.28303C6.74771 7.47554 6.76422 7.5718 6.73319 7.62892C6.7062 7.67862 6.65821 7.71348 6.60261 7.72379C6.53869 7.73563 6.45225 7.69018 6.27937 7.59926L4.6396 6.73692C4.58851 6.71005 4.56297 6.69662 4.53605 6.69134C4.51222 6.68667 4.48771 6.68667 4.46388 6.69134C4.43697 6.69662 4.41143 6.71005 4.36033 6.73692L2.72056 7.59926C2.54769 7.69018 2.46125 7.73563 2.39733 7.72379C2.34172 7.71348 2.29374 7.67862 2.26674 7.62892C2.23572 7.5718 2.25223 7.47554 2.28525 7.28303L2.5983 5.45777C2.60806 5.40086 2.61294 5.37241 2.60964 5.34518C2.60671 5.32107 2.59913 5.29776 2.58732 5.27654C2.57398 5.25257 2.5533 5.23243 2.51194 5.19215L1.18518 3.89988C1.04534 3.76368 0.975426 3.69558 0.966918 3.63116C0.959516 3.5751 0.977803 3.5187 1.01669 3.47766C1.06138 3.43048 1.15796 3.41637 1.35111 3.38813L3.18533 3.12003C3.24237 3.1117 3.2709 3.10753 3.29573 3.09598C3.31773 3.08575 3.33753 3.07135 3.35403 3.05358C3.37268 3.03352 3.38544 3.00767 3.41095 2.95598L4.23096 1.29474Z" stroke="#0079D0" stroke-width="0.687946" stroke-linecap="round" stroke-linejoin="round"/>
</svg>
