<svg width="12" height="12" viewBox="0 0 12 12" fill="none" xmlns="http://www.w3.org/2000/svg">
<g clip-path="url(#clip0_1_7377)">
<path d="M5.99985 9.99977C8.20895 9.99977 9.99977 8.20895 9.99977 5.99985C9.99977 3.79076 8.20895 1.99994 5.99985 1.99994C3.79076 1.99994 1.99994 3.79076 1.99994 5.99985C1.99994 8.20895 3.79076 9.99977 5.99985 9.99977Z" fill="#B1060F" fill-opacity="0.5"/>
<path d="M5.99985 7.49982C6.82826 7.49982 7.49982 6.82826 7.49982 5.99985C7.49982 5.17144 6.82826 4.49988 5.99985 4.49988C5.17144 4.49988 4.49988 5.17144 4.49988 5.99985C4.49988 6.82826 5.17144 7.49982 5.99985 7.49982Z" fill="#B1060F" fill-opacity="0.5"/>
<path d="M10.9997 5.99985H8.99979M2.99991 5.99985H0.999956M5.99985 2.99991V0.999956M5.99985 10.9997V8.99979M9.99977 5.99985C9.99977 8.20895 8.20895 9.99977 5.99985 9.99977C3.79076 9.99977 1.99994 8.20895 1.99994 5.99985C1.99994 3.79076 3.79076 1.99994 5.99985 1.99994C8.20895 1.99994 9.99977 3.79076 9.99977 5.99985ZM7.49982 5.99985C7.49982 6.82826 6.82826 7.49982 5.99985 7.49982C5.17144 7.49982 4.49988 6.82826 4.49988 5.99985C4.49988 5.17144 5.17144 4.49988 5.99985 4.49988C6.82826 4.49988 7.49982 5.17144 7.49982 5.99985Z" stroke="#B1060F" stroke-width="0.552845" stroke-linecap="round" stroke-linejoin="round"/>
</g>
<defs>
<clipPath id="clip0_1_7377">
<rect width="11.0569" height="11.0569" fill="white" transform="scale(1.08527)"/>
</clipPath>
</defs>
</svg>
