<svg width="8" height="8" viewBox="0 0 8 8" fill="none" xmlns="http://www.w3.org/2000/svg">
<g clip-path="url(#clip0_1_6624)">
<path d="M2.33328 7.33324V3.66667M0.666656 4.33332V6.66659C0.666656 7.03477 0.965125 7.33324 1.33331 7.33324H5.8086C6.30216 7.33324 6.7219 6.97314 6.79694 6.48532L7.15591 4.15205C7.2491 3.5463 6.78043 3.00002 6.16756 3.00002H4.99987C4.81578 3.00002 4.66655 2.85078 4.66655 2.66669V1.48867C4.66655 1.03474 4.29856 0.666748 3.84462 0.666748C3.73635 0.666748 3.63824 0.730512 3.59426 0.829452L2.42126 3.46872C2.36776 3.58909 2.24839 3.66667 2.11666 3.66667H1.33331C0.965125 3.66667 0.666656 3.96514 0.666656 4.33332Z" stroke="#219653" stroke-width="0.663963" stroke-linecap="round" stroke-linejoin="round"/>
</g>
<defs>
<clipPath id="clip0_1_6624">
<rect width="7.96756" height="7.96756" fill="white" transform="scale(1.00404)"/>
</clipPath>
</defs>
</svg>
