<svg width="9" height="9" viewBox="0 0 9 9" fill="none" xmlns="http://www.w3.org/2000/svg">
<g clip-path="url(#clip0_1_6651)">
<path d="M6.3748 0.750175V4.87506M8.24975 3.67509V1.95014C8.24975 1.53011 8.24975 1.3201 8.168 1.15967C8.0961 1.01855 7.98137 0.903821 7.84025 0.831918C7.67982 0.750175 7.46981 0.750175 7.04978 0.750175H3.04415C2.49611 0.750175 2.22209 0.750175 2.00077 0.85046C1.80571 0.938846 1.63992 1.08107 1.5229 1.26043C1.39013 1.46393 1.34847 1.73476 1.26513 2.27643L1.06898 3.55139C0.959073 4.26582 0.904117 4.62303 1.01013 4.90098C1.10318 5.14493 1.27819 5.34893 1.50516 5.47799C1.76376 5.62503 2.12517 5.62503 2.848 5.62503H3.14989C3.35991 5.62503 3.46491 5.62503 3.54513 5.66591C3.61569 5.70186 3.67305 5.75922 3.709 5.82978C3.74988 5.91 3.74988 6.015 3.74988 6.22502V7.3253C3.74988 7.83597 4.16386 8.24996 4.67454 8.24996C4.79634 8.24996 4.90672 8.17823 4.95619 8.06692L6.21644 5.23136C6.27376 5.10239 6.30242 5.03791 6.34772 4.99062C6.38777 4.94883 6.43694 4.91687 6.4914 4.89725C6.55301 4.87506 6.62358 4.87506 6.76471 4.87506H7.04978C7.46981 4.87506 7.67982 4.87506 7.84025 4.79331C7.98137 4.72141 8.0961 4.60668 8.168 4.46556C8.24975 4.30513 8.24975 4.09512 8.24975 3.67509Z" stroke="#ED9C00" stroke-width="0.697083" stroke-linecap="round" stroke-linejoin="round"/>
</g>
<defs>
<clipPath id="clip0_1_6651">
<rect width="8.36499" height="8.36499" fill="white" transform="scale(1.07588)"/>
</clipPath>
</defs>
</svg>
