<svg width="6" height="6" viewBox="0 0 6 6" fill="none" xmlns="http://www.w3.org/2000/svg">
<g clip-path="url(#clip0_0_103)">
<path d="M3.18732 0.986316C4.21346 1.05621 5.03362 1.87636 5.10351 2.90251H5.32179C5.40038 2.90251 5.46409 2.96622 5.46409 3.04481C5.46409 3.1234 5.40038 3.18711 5.32179 3.18711H5.10351C5.03362 4.21326 4.21346 5.03341 3.18732 5.1033V5.32158C3.18732 5.40017 3.12361 5.46388 3.04502 5.46388C2.96643 5.46388 2.90272 5.40017 2.90272 5.32158V5.1033C1.87657 5.03341 1.05642 4.21326 0.986522 3.18711H0.768246C0.689657 3.18711 0.625948 3.1234 0.625948 3.04481C0.625948 2.96622 0.689657 2.90251 0.768246 2.90251H0.986522C1.05642 1.87636 1.87657 1.05621 2.90272 0.986316V0.768038C2.90272 0.689449 2.96643 0.62574 3.04502 0.62574C3.12361 0.62574 3.18732 0.689449 3.18732 0.768038V0.986316ZM4.81814 3.18711H4.6103C4.53171 3.18711 4.468 3.1234 4.468 3.04481C4.468 2.96622 4.53171 2.90251 4.6103 2.90251H4.81814C4.74936 2.03362 4.0562 1.34047 3.18732 1.27169V1.47953C3.18732 1.55812 3.12361 1.62183 3.04502 1.62183C2.96643 1.62183 2.90272 1.55812 2.90272 1.47953V1.27169C2.03383 1.34047 1.34068 2.03362 1.2719 2.90251H1.47974C1.55833 2.90251 1.62204 2.96622 1.62204 3.04481C1.62204 3.1234 1.55833 3.18711 1.47974 3.18711H1.2719C1.34068 4.056 2.03383 4.74915 2.90272 4.81793V4.61009C2.90272 4.5315 2.96643 4.46779 3.04502 4.46779C3.12361 4.46779 3.18732 4.5315 3.18732 4.61009V4.81793C4.0562 4.74915 4.74936 4.056 4.81814 3.18711Z" fill="#696969"/>
<path d="M4.00913 2.805C4.0404 2.805 4.06568 2.78072 4.06568 2.75081V2.516C4.06568 2.49546 4.05358 2.47671 4.03441 2.4675L3.05421 1.99778C3.03832 1.99014 3.01955 1.99014 3.0036 1.99778L2.02346 2.4675C2.00429 2.47666 1.99219 2.49546 1.99219 2.516V2.75081C1.99219 2.78072 2.01752 2.805 2.04874 2.805H2.23726V3.6359H2.04874C2.01752 3.6359 1.99219 3.66012 1.99219 3.69009V3.92495C1.99219 3.95492 2.01752 3.97914 2.04874 3.97914H4.00913C4.0404 3.97914 4.06568 3.95492 4.06568 3.92495V3.69009C4.06568 3.66012 4.0404 3.6359 4.00913 3.6359H3.8206V2.805H4.00913ZM2.10528 2.54949L3.02893 2.10686L3.95258 2.54949V2.69662H2.10528V2.54949ZM3.33056 3.6359V2.805H3.46254V3.6359H3.33056ZM3.08548 3.6359V2.805H3.21746V3.6359H3.08548ZM2.8404 3.6359V2.805H2.97238V3.6359H2.8404ZM2.59544 3.6359V2.805H2.72731V3.6359H2.59544ZM2.35036 2.805H2.48234V3.6359H2.35036V2.805ZM3.95258 3.87076H2.10528V3.74428H3.95258V3.87076ZM3.7075 3.6359H3.57563V2.805H3.7075V3.6359Z" fill="#696969"/>
</g>
<defs>
<clipPath id="clip0_0_103">
<rect width="5.28105" height="5.28105" fill="white" transform="scale(1.13609)"/>
</clipPath>
</defs>
</svg>
