<svg width="6" height="27" viewBox="0 0 6 27" fill="none" xmlns="http://www.w3.org/2000/svg">
<path d="M5.78668 1.29284V4.49106C5.78705 4.66107 5.75389 4.82949 5.68909 4.98667C5.62428 5.14385 5.52911 5.28671 5.40903 5.40706C5.28894 5.52741 5.14629 5.62289 4.98925 5.68804C4.83222 5.75319 4.66387 5.78673 4.49386 5.78673H1.29565C1.1254 5.7871 0.956758 5.75384 0.799394 5.68886C0.642031 5.62388 0.499053 5.52845 0.378667 5.40806C0.25828 5.28767 0.162852 5.14469 0.0978714 4.98733C0.0328906 4.82996 -0.000369048 4.66131 3.08859e-06 4.49106V1.29284C2.68334e-06 1.12282 0.0335426 0.954475 0.0986898 0.797437C0.163837 0.640398 0.259317 0.49775 0.379666 0.377662C0.500015 0.257574 0.64287 0.162401 0.800049 0.0975965C0.957228 0.0327915 1.12564 -0.000368131 1.29565 3.08254e-06H4.49386C4.83674 3.08254e-06 5.16557 0.136207 5.40803 0.378661C5.65048 0.621115 5.78668 0.949956 5.78668 1.29284ZM0.0112966 25.7043V9.00471C0.0112966 8.66108 0.147805 8.33151 0.390787 8.08853C0.633769 7.84555 0.963319 7.70905 1.30695 7.70905H4.50515C4.84829 7.70979 5.17711 7.84663 5.41948 8.08953C5.66185 8.33243 5.79798 8.66156 5.79797 9.00471V25.7043C5.79798 26.0475 5.66185 26.3766 5.41948 26.6195C5.17711 26.8624 4.84829 26.9993 4.50515 27H1.29565C0.953986 26.997 0.627326 26.8592 0.386781 26.6165C0.146236 26.3739 0.0112836 26.046 0.0112966 25.7043Z" fill="#B1060F"/>
</svg>
