<svg width="642" height="101" viewBox="0 0 642 101" fill="none" xmlns="http://www.w3.org/2000/svg">
<path d="M642 19.2809H624.129V24.8805H617.063V33.3577H610.213V22.0705H604.819V12.6514H587.615V40.2321H579.232V19.091H576.063V6.5808H561.848V24.8805H558.008V13.8916H543.534V49.3592H531.083V44.8679H517.138V19.9182H502.663V24.8805H498.823V6.5808H484.606V19.091H481.436V40.2274H473.053V12.6467H455.85V22.0658H450.456V33.3577H443.606V24.8805H436.543V19.2887H420.804V38.8522H413.006V29.353H402.428V9.70796H384.155V45.926H375.11V24.598H360.107V27.4237H356.946V33.5367H351.591V29.565H331.123V37.2258H327.307V22.7204H306.842V30.3813H299.439V48.8992H292.214V15.3516H288.309V9.62004L281.456 5.978H271.445V22.7236H263.641V33.7298H250.939V30.7785H247.713V42.0515H243.578V49.3498H239.398V41.1866H235.493V36.1631H231.824V37.6387H229.443V40.8004H218.629V48.5649H198.855V49.3498H185.672V45.9165H170.176V49.3498H147.977V45.1551H138.959V33.0972H117.581V39.51H113.685V36.612H103.591V23.2133H99.6713V20.43H84.1781V23.2133H76.3235V39.1442H70.1203V34.5194H61.9763V21.9434H52.9875V9.88534H31.6099V16.2982H26.1925V21.3217H17.6261V0H6.11068e-05V100.871H642V19.2809ZM5.04241 22.4504H2.97462V20.6058H5.04241V22.4504ZM5.04241 18.8884H2.97462V17.0439H5.04241V18.8884ZM15.0237 7.59491H12.9559V5.75034H15.0237V7.59491ZM15.0237 4.03293H12.9559V2.18836H15.0237V4.03293ZM34.8149 34.9182H32.7472V33.0736H34.8149V34.9182ZM39.6269 27.7942H37.5592V25.9496H39.6269V27.7942ZM39.6269 24.2322H37.5592V22.3876H39.6269V24.2322ZM44.4211 13.5462H42.3534V11.7017H44.4211V13.5462ZM49.2301 20.6702H47.1624V18.8256H49.2301V20.6702ZM49.2301 17.1082H47.1624V15.2636H49.2301V17.1082ZM49.2301 13.5462H47.1624V11.7017H49.2301V13.5462ZM54.7273 33.7863H53.8412V23.6372H54.7273V33.7863ZM57.2352 33.7863H56.3491V23.6372H57.2352V33.7863ZM59.7402 33.7863H58.854V23.6372H59.7402V33.7863ZM96.5401 22.3907H88.6621V21.7738H96.5401V22.3907ZM100.998 30.8067H99.6743V28.9622H100.998V30.8067ZM100.998 27.2447H99.6743V25.4002H100.998V27.2447ZM125.607 49.3482H123.539V49.1614H125.607V49.3482ZM125.607 47.444H123.539V45.6026H125.607V47.444ZM130.419 36.758H128.351V34.9134H130.419V36.758ZM135.245 43.8757H133.178V42.0312H135.245V43.8757ZM135.245 40.3137H133.178V38.4755H135.245V40.3137ZM135.245 36.7518H133.178V34.9072H135.245V36.7518ZM140.743 49.342H139.857V46.8427H140.743V49.342ZM143.248 49.342H142.361V46.8427H143.248V49.342ZM145.756 49.342H144.869V46.8427H145.756V49.342ZM182.552 49.342H174.674V49.0562H182.552V49.342ZM182.552 47.871H174.674V47.254H182.552V47.871ZM237.073 48.5916H229.795V48.0295H237.073V48.5916ZM237.073 47.0766H229.795V46.5147H237.073V47.0766ZM237.073 45.5617H229.795V45.0013H237.073V45.5617ZM237.073 44.0484H229.795V43.4864H237.073V44.0484ZM272.491 35.1003H270.423V33.2557H272.491V35.1003ZM276.452 12.8586H274.384V11.0141H276.452V12.8586ZM276.452 9.29664H274.384V7.45521H276.452V9.29664ZM289.355 32.4284H287.287V30.5854H289.355V32.4284ZM289.886 24.2652H282.608V23.7047H289.892L289.886 24.2652ZM289.886 22.7518H282.608V22.1898H289.892L289.886 22.7518ZM289.886 21.2369H282.608V20.6749H289.892L289.886 21.2369ZM289.886 19.722H282.608V19.1616H289.892L289.886 19.722ZM289.886 18.2087H282.608V17.6592H289.892L289.886 18.2087ZM304.907 48.4016H302.839V46.557H304.907V48.4016ZM304.907 44.8396H302.839V42.995H304.907V44.8396ZM304.907 37.7156H302.839V35.8726H304.907V37.7156ZM310.966 48.4016H308.898V46.557H310.966V48.4016ZM310.966 44.8396H308.898V42.995H310.966V44.8396ZM310.966 27.0297H308.898V25.1945H310.966V27.0297ZM315.777 37.7156H313.71V35.8726H315.777V37.7156ZM315.777 30.5932H313.71V28.7581H315.777V30.5932ZM315.777 27.0297H313.71V25.1945H315.777V27.0297ZM329.179 44.5712H327.313V42.7266H329.179V44.5712ZM335.238 33.8852H333.17V32.0406H335.238V33.8852ZM340.05 44.5712H337.982V42.7266H340.05V44.5712ZM340.05 37.4472H337.982V35.6026H340.05V37.4472ZM340.05 33.8852H337.982V32.0406H340.05V33.8852ZM362.559 47.0484H360.491V45.2054H362.559V47.0484ZM362.559 43.4864H360.491V41.6434H362.559V43.4864ZM372.54 32.1929H370.472V30.3483H372.54V32.1929ZM372.54 28.6309H370.472V26.7863H372.54V28.6309ZM396.585 33.7816H395.203V32.5446H396.585V33.7816ZM396.585 31.3923H395.203V30.1537H396.585V31.3923ZM400.72 14.361H399.338V13.124H400.72V14.361ZM400.72 11.9701H399.338V10.733H400.72V11.9701ZM407.845 36.9307H407.255V30.1238H407.845V36.9307ZM409.526 36.9307H408.935V30.1238H409.526V36.9307ZM411.207 36.9307H410.616V30.1238H411.207V36.9307ZM424.045 35.8585H422.662V34.6215H424.045V35.8585ZM424.045 33.4692H422.662V32.2306H424.045V33.4692ZM424.045 31.0783H422.662V29.8413H424.045V31.0783ZM424.045 28.689H422.662V27.4519H424.045V28.689ZM424.045 26.2997H422.662V25.0611H424.045V26.2997ZM424.045 23.9088H422.662V22.6828H424.045V23.9088ZM424.045 21.5195H422.662V20.2809H424.045V21.5195ZM427.25 35.8695H425.87V34.6325H427.25V35.8695ZM427.25 33.4802H425.87V32.2416H427.25V33.4802ZM427.25 31.0893H425.87V29.8522H427.25V31.0893ZM427.25 28.7H425.87V27.4629H427.25V28.7ZM427.25 26.3107H425.87V25.0721H427.25V26.3107ZM427.25 23.9198H425.87V22.6828H427.25V23.9198ZM427.25 21.5305H425.87V20.2919H427.25V21.5305ZM442.273 36.229H437.388V35.8506H442.273V36.229ZM442.273 35.2117H437.388V34.8349H442.273V35.2117ZM442.273 34.196H437.388V33.8193H442.273V34.196ZM442.273 33.1804H437.388V32.8036H442.273V33.1804ZM442.273 32.1646H437.388V31.7879H442.273V32.1646ZM442.273 31.1474H437.388V30.7706H442.273V31.1474ZM442.273 30.1317H437.388V29.7471H442.273V30.1317ZM442.273 29.116H437.388V28.7392H442.273V29.116ZM442.273 28.1003H437.388V27.7236H442.273V28.1003ZM442.273 27.0846H437.388V26.7078H442.273V27.0846ZM442.273 26.0674H437.388V25.6906H442.273V26.0674ZM454.263 36.1835H452.881V34.9464H454.263V36.1835ZM454.263 33.7942H452.881V32.5555H454.263V33.7942ZM462.009 19.3939H460.629V18.1553H462.012L462.009 19.3939ZM462.009 17.003H460.629V15.7754H462.012L462.009 17.003ZM462.009 14.6137H460.629V13.3767H462.012L462.009 14.6137ZM465.237 14.6137H463.855V13.3767H465.237V14.6137ZM468.463 24.1741H467.083V22.9355H468.463V24.1741ZM468.463 21.7832H467.083V20.5462H468.463V21.7832ZM471.691 37.0108H470.312V35.7721H471.691V37.0108ZM471.691 34.6199H470.312V33.3828H471.691V34.6199ZM471.691 28.948H470.312V27.711H471.691V28.948ZM471.691 16.9983H470.312V15.7754H471.691V16.9983ZM471.691 14.609H470.312V13.372H471.691V14.609ZM484.535 33.5932H483.153V32.3562H484.535V33.5932ZM484.535 31.2039H483.153V29.9653H484.535V31.2039ZM487.675 15.8586H486.293V14.6216H487.675V15.8586ZM487.675 11.0784H486.293V9.84138H487.675V11.0784ZM487.675 8.68913H486.293V7.45521H487.675V8.68913ZM490.904 23.0281H489.521V21.7911H490.904V23.0281ZM490.904 20.6388H489.521V19.4002H490.904V20.6388ZM490.904 8.68913H489.521V7.45521H490.904V8.68913ZM497.361 23.0281H495.979V21.7911H497.361V23.0281ZM497.361 20.6388H495.979V19.4002H497.361V20.6388ZM497.361 15.8586H495.979V14.6216H497.361V15.8586ZM497.361 11.0784H495.979V9.84138H497.361V11.0784ZM497.361 8.68913H495.979V7.45521H497.361V8.68913ZM505.614 28.8617H500.327V28.4472H505.614V28.8617ZM505.614 27.6623H500.327V27.2479H505.614V27.6623ZM505.614 26.4614H500.327V26.0469H505.614V26.4614ZM560.356 28.8617H555.069V28.4472H560.356V28.8617ZM560.356 27.6623H555.069V27.2479H560.356V27.6623ZM560.356 26.4614H555.069V26.0469H560.356V26.4614ZM564.705 23.0281H563.322V21.7911H564.705V23.0281ZM564.705 20.6388H563.322V19.4002H564.705V20.6388ZM564.705 15.8586H563.322V14.6216H564.705V15.8586ZM564.705 11.0784H563.322V9.84138H564.705V11.0784ZM564.705 8.68913H563.322V7.45521H564.705V8.68913ZM571.162 23.0281H569.78V21.7911H571.162V23.0281ZM571.162 20.6388H569.78V19.4002H571.162V20.6388ZM571.162 8.68913H569.78V7.45521H571.162V8.68913ZM574.391 15.8586H573.008V14.6216H574.391V15.8586ZM574.391 11.0784H573.008V9.84138H574.391V11.0784ZM574.391 8.68913H573.008V7.45521H574.391V8.68913ZM577.531 33.5932H576.148V32.3562H577.531V33.5932ZM577.531 31.2039H576.148V29.9653H577.531V31.2039ZM590.374 37.0123H588.992V35.7737H590.374V37.0123ZM590.374 34.6215H588.992V33.3844H590.374V34.6215ZM590.374 28.9496H588.992V27.7126H590.374V28.9496ZM590.374 16.9999H588.992V15.7754H590.374V16.9999ZM590.374 14.6106H588.992V13.3735H590.374V14.6106ZM593.603 24.171H592.22V22.9324H593.603V24.171ZM593.603 21.7801H592.22V20.5431H593.603V21.7801ZM596.829 14.6106H595.449V13.3735H596.829V14.6106ZM600.054 19.3971H598.672V18.1584H600.054V19.3971ZM600.054 17.0062H598.672V15.7754H600.054V17.0062ZM600.054 14.6169H598.672V13.3798H600.054V14.6169ZM607.802 36.1835H606.42V34.9464H607.802V36.1835ZM607.802 33.7942H606.42V32.5555H607.802V33.7942ZM623.281 36.218H618.395V35.8397H623.281V36.218ZM623.281 35.2007H618.395V34.824H623.281V35.2007ZM623.281 34.185H618.395V33.8083H623.281V34.185ZM623.281 33.1694H618.395V32.7926H623.281V33.1694ZM623.281 32.1537H618.395V31.7879H623.281V32.1537ZM623.281 31.1364H618.395V30.7596H623.281V31.1364ZM623.281 30.1207H618.395V29.7471H623.281V30.1207ZM623.281 29.105H618.395V28.7282H623.281V29.105ZM623.281 28.0893H618.395V27.7126H623.281V28.0893ZM623.281 27.0736H618.395V26.6969H623.281V27.0736ZM623.281 26.0564H618.395V25.6796H623.281V26.0564ZM634.801 35.8585H633.419V34.6215H634.801V35.8585ZM634.801 33.4692H633.419V32.2306H634.801V33.4692ZM634.801 31.0783H633.419V29.8413H634.801V31.0783ZM634.801 28.689H633.419V27.4519H634.801V28.689ZM634.801 26.2997H633.419V25.0611H634.801V26.2997ZM634.801 23.9088H633.419V22.6828H634.801V23.9088ZM634.801 21.5195H633.419V20.2809H634.801V21.5195ZM638.03 35.8695H636.647V34.6325H638.03V35.8695ZM638.03 33.4802H636.647V32.2416H638.03V33.4802ZM638.03 31.0893H636.647V29.8522H638.03V31.0893ZM638.03 28.7H636.647V27.4629H638.03V28.7ZM638.03 26.3107H636.647V25.0721H638.03V26.3107ZM638.03 23.9198H636.647V22.6828H638.03V23.9198ZM638.03 21.5305H636.647V20.2919H638.03V21.5305Z" fill="#B1060F" fill-opacity="0.15"/>
</svg>
