<svg width="6" height="4" viewBox="0 0 6 4" fill="none" xmlns="http://www.w3.org/2000/svg">
<path d="M4.80989 1.98761C4.80989 1.45789 4.59796 1.19284 4.17412 1.19245C3.77625 1.19245 3.57751 1.4575 3.5779 1.98761V3.71404C3.57774 3.78336 3.5501 3.84979 3.50102 3.89875C3.45195 3.94771 3.38546 3.97521 3.31614 3.97521H2.64663C2.57731 3.97521 2.51082 3.94771 2.46175 3.89875C2.41268 3.84979 2.38503 3.78336 2.38488 3.71404V1.98761C2.38488 1.45789 2.2127 1.19284 1.86835 1.19245C1.55075 1.19245 1.32545 1.32507 1.19244 1.59032V3.71404C1.19244 3.7833 1.16492 3.84974 1.11594 3.89872C1.06696 3.9477 1.00053 3.97521 0.931265 3.97521H0.261755C0.227408 3.97529 0.193383 3.96859 0.161629 3.9555C0.129875 3.94241 0.101015 3.92318 0.0767011 3.89892C0.0523872 3.87466 0.0330972 3.84584 0.0199357 3.81412C0.00677415 3.78239 -8.51842e-08 3.74838 0 3.71404V0.261175C-8.51842e-08 0.226828 0.00677415 0.192819 0.0199357 0.161094C0.0330972 0.129369 0.0523872 0.100551 0.0767011 0.0762914C0.101015 0.0520314 0.129875 0.0328048 0.161629 0.0197137C0.193383 0.00662272 0.227408 -7.58066e-05 0.261755 6.90013e-07H0.931265C1.00053 6.90013e-07 1.06696 0.0275175 1.11594 0.0764973C1.16492 0.125477 1.19244 0.191907 1.19244 0.261175V0.397288C1.45768 0.132817 1.74852 0.000388478 2.06495 6.90013e-07C2.44343 6.90013e-07 2.74823 0.163066 2.97935 0.489195C3.20698 0.162678 3.61764 -0.000387098 4.21134 6.90013e-07C5.40378 6.90013e-07 6 0.662535 6 1.98761V3.71404C6 3.74833 5.99324 3.7823 5.98012 3.81398C5.96699 3.84567 5.94776 3.87446 5.9235 3.89872C5.89925 3.92297 5.87046 3.94221 5.83877 3.95533C5.80709 3.96846 5.77313 3.97521 5.73883 3.97521H5.07106C5.00179 3.97521 4.93536 3.9477 4.88638 3.89872C4.8374 3.84974 4.80989 3.7833 4.80989 3.71404V1.98761Z" fill="#B1060F"/>
</svg>
