<svg width="101" height="156" viewBox="0 0 101 156" fill="none" xmlns="http://www.w3.org/2000/svg">
<path d="M0.0533061 25.1922H6.02742C6.01377 24.9516 6.01377 24.7104 6.02742 24.4698C5.9971 22.054 6.87522 19.7125 8.49272 17.8962C10.1102 16.0799 12.3527 14.9172 14.7885 14.632V14.1985C14.233 13.9094 13.7681 13.4766 13.4438 12.9466C13.1196 12.4166 12.9482 11.8095 12.9482 11.1907C12.9482 10.5719 13.1196 9.96481 13.4438 9.4348C13.7681 8.9048 14.233 8.47196 14.7885 8.18287V1.86512H15.2685V0H16.882V1.86512H17.3754V7.99899C18.0323 8.24523 18.5978 8.68233 18.9968 9.25234C19.3957 9.82236 19.6094 10.4984 19.6094 11.1907C19.6094 11.883 19.3957 12.559 18.9968 13.1291C18.5978 13.6991 18.0323 14.1362 17.3754 14.3824V14.7239C19.6758 15.1497 21.7505 16.3598 23.2355 18.142C24.7205 19.9241 25.521 22.1644 25.4964 24.4698C25.4964 24.7194 25.4964 24.9558 25.4964 25.1922H32.1639V27.2544H31.4704V29.0144H29.7903V30.6825H28.2701V80.3445H29.7903V75.314H47.4324L47.9924 39.3908H48.8326L49.0059 34.439C48.8417 34.2622 48.7147 34.0551 48.6323 33.8296C48.5499 33.6042 48.5138 33.3649 48.5259 33.1255V30.3804C48.5235 30.1095 48.5807 29.8412 48.6935 29.5941C48.8062 29.347 48.972 29.1268 49.1793 28.9487L49.4726 20.385H51.2862L51.5795 28.9487C51.7886 29.1262 51.9564 29.3459 52.0715 29.5929C52.1865 29.84 52.2461 30.1086 52.2463 30.3804V33.1255C52.2635 33.6079 52.0916 34.0782 51.7663 34.439L51.9263 39.3908H52.7797L53.3264 75.314H71.1152V80.3445H72.6354V30.6825H71.1152V29.0144H69.4351V27.2544H68.3282V25.1922H74.3023C74.3023 24.9558 74.3023 24.7194 74.3023 24.4698C74.272 22.054 75.1501 19.7125 76.7676 17.8962C78.3851 16.0799 80.6276 14.9172 83.0634 14.632V14.1985C82.5116 13.9064 82.0506 13.4724 81.7292 12.9428C81.4078 12.4132 81.2381 11.8077 81.2381 11.1907C81.2381 10.5737 81.4078 9.96822 81.7292 9.43861C82.0506 8.909 82.5116 8.47505 83.0634 8.18287V1.86512H83.5568V0H85.0903V1.86512H85.5837V7.99899C86.2406 8.24523 86.8061 8.68233 87.205 9.25234C87.604 9.82236 87.8176 10.4984 87.8176 11.1907C87.8176 11.883 87.604 12.559 87.205 13.1291C86.8061 13.6991 86.2406 14.1362 85.5837 14.3824V14.7239C87.8841 15.1497 89.9588 16.3598 91.4438 18.142C92.9288 19.9241 93.7292 22.1644 93.7046 24.4698C93.7046 24.7194 93.7046 24.9558 93.7046 25.1922H100.372V27.2544H99.6787V29.0144H97.9852V30.6825H96.4783V80.3445H97.9852V80.9093H99.2253V82.9715H97.9852V83.5363H96.4783V102.831H97.9852V103.75H99.2253V108.545H97.9852V109.451H96.4783V156H4.46717V109.451H2.41362V108.545H1.18683V103.75H2.41362V102.831H4.30716V83.5363H3.09371V82.9715H2.41362V80.9093H3.09371V80.3445H4.30716V30.6825H2.78704V29.0144H1.10682V27.2544H-7.65453e-06L0.0533061 25.1922Z" fill="#B1060F" fill-opacity="0.15"/>
</svg>
