<svg width="60" height="279" viewBox="0 0 60 279" fill="none" xmlns="http://www.w3.org/2000/svg">
<path d="M59.7957 13.3593V46.4076C59.7995 48.1644 59.4569 49.9048 58.7872 51.5289C58.1176 53.1531 57.1341 54.6293 55.8932 55.8729C54.6523 57.1166 53.1783 58.1032 51.5556 58.7764C49.9329 59.4496 48.1933 59.7962 46.4365 59.7961H13.3884C11.6291 59.8 9.8865 59.4563 8.26041 58.7848C6.63432 58.1134 5.15688 57.1273 3.91289 55.8833C2.66889 54.6393 1.68281 53.1618 1.01134 51.5357C0.33987 49.9096 -0.00381349 48.1669 3.19155e-05 46.4076V13.3593C2.77279e-05 11.6025 0.346607 9.86291 1.01979 8.24018C1.69298 6.61744 2.6796 5.14341 3.92321 3.9025C5.16682 2.66159 6.64299 1.67815 8.26717 1.0085C9.89136 0.338845 11.6316 -0.00380402 13.3884 3.1853e-05H46.4365C49.9796 3.1853e-05 53.3776 1.40747 55.8829 3.91283C58.3883 6.41819 59.7957 9.81621 59.7957 13.3593ZM0.116731 265.611V93.0486C0.116731 89.4978 1.52732 86.0923 4.03813 83.5815C6.54894 81.0706 9.95429 79.6601 13.5051 79.6601H46.5532C50.099 79.6678 53.4968 81.0818 56.0013 83.5918C58.5058 86.1018 59.9124 89.5028 59.9124 93.0486V265.611C59.9124 269.157 58.5058 272.558 56.0013 275.068C53.4968 277.578 50.099 278.992 46.5532 279H13.3884C9.85785 278.969 6.48237 277.545 3.99674 275.037C1.51111 272.53 0.116597 269.142 0.116731 265.611Z" fill="#FFDFDF"/>
</svg>
