<svg width="6" height="6" viewBox="0 0 6 6" fill="none" xmlns="http://www.w3.org/2000/svg">
<path d="M4.65135 0H1.33982C1.16338 -1.68224e-06 0.988676 0.0348441 0.825739 0.102543C0.662802 0.170241 0.514851 0.269458 0.390361 0.394493C0.26587 0.519529 0.167292 0.66792 0.100305 0.831151C0.0333174 0.994383 -0.000757706 1.16924 1.278e-05 1.34569V4.65724C-0.000371924 4.83343 0.0339838 5.00797 0.101144 5.17086C0.168304 5.33376 0.266944 5.4818 0.391396 5.60653C0.515849 5.73125 0.663672 5.83021 0.826418 5.89772C0.989163 5.96524 1.16363 6 1.33982 6H4.65135C4.82779 6.00038 5.00258 5.96591 5.16567 5.89857C5.32875 5.83123 5.47693 5.73233 5.60169 5.60757C5.72645 5.4828 5.82533 5.33463 5.89267 5.17154C5.96002 5.00846 5.99449 4.83368 5.99411 4.65724V1.3486C5.99488 1.17178 5.96072 0.996551 5.89358 0.832964C5.82645 0.669377 5.72767 0.520657 5.6029 0.39535C5.47814 0.270043 5.32985 0.170611 5.16656 0.102766C5.00327 0.0349202 4.82818 -1.67857e-06 4.65135 0Z" fill="#B1060F"/>
</svg>
