<svg width="190" height="279" viewBox="0 0 190 279" fill="none" xmlns="http://www.w3.org/2000/svg">
<path d="M109.588 79.6769C162.705 79.6769 189.264 112.883 189.264 179.295C189.264 245.707 162.705 278.913 109.588 278.913C100.361 279.168 91.1806 277.53 82.6116 274.1C74.0427 270.67 66.2672 265.522 59.7645 258.972V261.508C59.7645 266.147 57.9215 270.596 54.6411 273.877C51.3607 277.157 46.9116 279 42.2724 279H15.8303C11.6318 279 7.60529 277.332 4.63654 274.363C1.66778 271.395 0 267.368 0 263.17V15.8013C0.00772267 11.6079 1.67894 7.58882 4.64686 4.62634C7.61477 1.66386 11.6369 -7.11115e-06 15.8303 0H42.389C47.0281 0 51.4773 1.84291 54.7577 5.12332C58.0381 8.40374 59.881 12.853 59.881 17.4922V99.7054C66.3658 93.1582 74.1197 88.0046 82.6671 84.5605C91.2144 81.1165 100.375 79.4547 109.588 79.6769ZM129.499 179.295C129.499 152.746 119.539 139.461 99.6171 139.442C79.6956 139.422 66.4114 146.069 59.7645 159.383V199.207C66.4114 212.501 79.6956 219.148 99.6171 219.148C119.539 219.148 129.499 205.863 129.499 179.295Z" fill="#FFDFDF"/>
</svg>
