<svg width="2" height="6" viewBox="0 0 2 6" fill="none" xmlns="http://www.w3.org/2000/svg">
<path d="M1.28594 0.2873V0.99802C1.28602 1.0358 1.27865 1.07323 1.26425 1.10816C1.24985 1.14309 1.2287 1.17483 1.20202 1.20158C1.17533 1.22832 1.14363 1.24954 1.10873 1.26402C1.07383 1.2785 1.03642 1.28595 0.998643 1.28595H0.287925C0.250091 1.28603 0.212615 1.27864 0.177645 1.2642C0.142675 1.24976 0.110902 1.22855 0.0841488 1.2018C0.0573961 1.17505 0.0361897 1.14327 0.0217494 1.1083C0.00730909 1.07333 -8.20113e-05 1.03585 6.8636e-07 0.99802V0.2873C5.96303e-07 0.249518 0.00745397 0.212107 0.0219312 0.17721C0.0364085 0.142312 0.0576264 0.110612 0.0843709 0.0839255C0.111115 0.057239 0.142861 0.0360895 0.17779 0.0216883C0.212719 0.00728705 0.250144 -8.18075e-05 0.287925 6.85015e-07H0.998643C1.07484 6.85015e-07 1.14791 0.0302684 1.20179 0.0841476C1.25567 0.138027 1.28594 0.211103 1.28594 0.2873ZM0.00251037 5.71212V2.00106C0.00251037 1.9247 0.0328459 1.85146 0.0868423 1.79747C0.140839 1.74347 0.214073 1.71313 0.290435 1.71313H1.00115C1.07741 1.7133 1.15048 1.74371 1.20434 1.79769C1.2582 1.85167 1.28845 1.92481 1.28845 2.00106V5.71212C1.28845 5.78838 1.2582 5.86151 1.20434 5.91549C1.15048 5.96947 1.07741 5.99988 1.00115 6.00005H0.287925C0.211999 5.99939 0.139407 5.96876 0.0859521 5.91483C0.0324972 5.86091 0.00250749 5.78805 0.00251037 5.71212Z" fill="#B1060F"/>
</svg>
