<svg width="6" height="27" viewBox="0 0 6 27" fill="none" xmlns="http://www.w3.org/2000/svg">
<path d="M5.79515 1.29283V4.49105C5.79515 4.83468 5.65864 5.16424 5.41566 5.40723C5.17267 5.65021 4.84312 5.78672 4.4995 5.78672H1.30129C1.13128 5.78672 0.962941 5.75318 0.805904 5.68803C0.648866 5.62289 0.506219 5.5274 0.386132 5.40705C0.266045 5.2867 0.170874 5.14385 0.106069 4.98667C0.0412647 4.82949 0.00809675 4.66107 0.00846796 4.49105V1.29283C0.00846796 0.949952 0.144679 0.621112 0.387132 0.378658C0.629584 0.136204 0.958413 0 1.30129 0H4.4995C4.84264 -8.14361e-07 5.17176 0.136112 5.41466 0.378485C5.65757 0.620859 5.7944 0.949693 5.79515 1.29283ZM0 25.7043V9.0047C-8.14301e-07 8.66156 0.13612 8.33243 0.378491 8.08952C0.620863 7.84662 0.949686 7.70979 1.29282 7.70904H4.49103C4.83443 7.70979 5.16355 7.84653 5.40637 8.08935C5.64919 8.33217 5.78593 8.6613 5.78668 9.0047V25.7043C5.78593 26.0477 5.64919 26.3769 5.40637 26.6197C5.16355 26.8625 4.83443 26.9992 4.49103 27H1.30129C1.13067 27.0007 0.96159 26.9678 0.803742 26.903C0.645894 26.8382 0.502391 26.7429 0.38148 26.6225C0.26057 26.5021 0.164626 26.359 0.0991605 26.2015C0.0336952 26.0439 -1.61968e-06 25.875 0 25.7043Z" fill="#B1060F"/>
</svg>
