<svg width="34" height="27" viewBox="0 0 34 27" fill="none" xmlns="http://www.w3.org/2000/svg">
<path d="M2.86417 3.86775C5.23173 1.30106 8.81429 0 13.5106 0H15.1981V4.75706L13.8413 5.02875C11.5295 5.49112 9.92129 6.40068 9.06066 7.73549C8.61161 8.45458 8.35693 9.27794 8.32154 10.125H13.5106C13.9581 10.125 14.3874 10.3028 14.7038 10.6192C15.0203 10.9357 15.1981 11.3649 15.1981 11.8125V23.625C15.1981 25.4863 13.6844 27 11.8231 27H1.69811C1.25056 27 0.821335 26.8222 0.504867 26.5057C0.1884 26.1893 0.0106107 25.76 0.0106107 25.3125V16.875L0.0156732 11.9492C0.00048575 11.7619 -0.320139 7.32374 2.86417 3.86775ZM30.3856 27H20.2606C19.813 27 19.3838 26.8222 19.0673 26.5057C18.7509 26.1893 18.5731 25.76 18.5731 25.3125V16.875L18.5782 11.9492C18.563 11.7619 18.2423 7.32374 21.4267 3.86775C23.7942 1.30106 27.3768 0 32.0731 0H33.7606V4.75706L32.4038 5.02875C30.092 5.49112 28.4838 6.40068 27.6231 7.73549C27.1741 8.45458 26.9194 9.27794 26.884 10.125H32.0731C32.5206 10.125 32.9499 10.3028 33.2663 10.6192C33.5828 10.9357 33.7606 11.3649 33.7606 11.8125V23.625C33.7606 25.4863 32.2469 27 30.3856 27Z" fill="#B1060F"/>
</svg>
