<svg width="4" height="6" viewBox="0 0 4 6" fill="none" xmlns="http://www.w3.org/2000/svg">
<path d="M2.31608 1.68393C3.4387 1.68393 4 2.38573 4 3.78931C4 5.1929 3.4387 5.89469 2.31608 5.89469C2.12109 5.90008 1.92706 5.86546 1.74596 5.79298C1.56486 5.7205 1.40053 5.61168 1.26309 5.47325V5.52685C1.26309 5.6249 1.22414 5.71893 1.15481 5.78826C1.08548 5.85759 0.991455 5.89654 0.893408 5.89654H0.334566C0.245833 5.89654 0.160734 5.86129 0.0979911 5.79855C0.0352478 5.7358 0 5.65071 0 5.56197V0.333953C0.000163215 0.245327 0.0354836 0.160386 0.0982092 0.0977756C0.160935 0.035165 0.24594 -1.50291e-07 0.334566 0H0.895872C0.993919 0 1.08795 0.038949 1.15728 0.108279C1.22661 0.177609 1.26556 0.271641 1.26556 0.369689V2.10723C1.40261 1.96886 1.56649 1.85994 1.74713 1.78715C1.92778 1.71436 2.12138 1.67924 2.31608 1.68393ZM2.73691 3.78931C2.73691 3.22821 2.52639 2.94745 2.10536 2.94704C1.68433 2.94663 1.40358 3.08711 1.26309 3.36848V4.21014C1.40358 4.49111 1.68433 4.63159 2.10536 4.63159C2.52639 4.63159 2.73691 4.35083 2.73691 3.78931Z" fill="#B1060F"/>
</svg>
