<svg width="301" height="200" viewBox="0 0 301 200" fill="none" xmlns="http://www.w3.org/2000/svg">
<path d="M241.296 99.7115C241.296 73.1374 230.665 59.8406 209.401 59.8211C189.442 59.8211 179.472 73.1179 179.491 99.7115V186.321C179.483 189.798 178.096 193.131 175.635 195.587C173.173 198.044 169.837 199.423 166.36 199.423H132.773C129.295 199.423 125.959 198.044 123.498 195.587C121.036 193.131 119.649 189.798 119.641 186.321V99.7115C119.641 73.1374 111.004 59.8406 93.7287 59.8211C77.796 59.8211 66.4933 66.4744 59.8206 79.7809V186.321C59.8206 189.796 58.4402 193.128 55.9831 195.586C53.526 198.043 50.1934 199.423 46.7185 199.423H13.1314C11.4083 199.427 9.70139 199.091 8.10839 198.434C6.51539 197.777 5.06758 196.813 3.84784 195.596C2.62809 194.379 1.66038 192.933 1.00011 191.342C0.339837 189.75 -4.27341e-06 188.044 0 186.321V13.1023C-4.27341e-06 11.3792 0.339837 9.67309 1.00011 8.08154C1.66038 6.49 2.62809 5.04433 3.84784 3.82728C5.06758 2.61024 6.51539 1.64571 8.10839 0.988973C9.70139 0.33224 11.4083 -0.00380297 13.1314 3.46156e-05H46.7185C50.1934 3.46156e-05 53.526 1.38046 55.9831 3.83761C58.4402 6.29477 59.8206 9.62735 59.8206 13.1023V19.9306C73.1271 6.663 87.7175 0.0194886 103.592 3.46156e-05C122.579 3.46156e-05 137.87 8.18046 149.464 24.5413C160.884 8.16101 181.485 -0.0194194 211.269 3.46156e-05C271.09 3.46156e-05 301 33.2372 301 99.7115V186.321C301 188.041 300.661 189.745 300.003 191.335C299.344 192.925 298.379 194.369 297.162 195.586C295.946 196.802 294.501 197.767 292.912 198.426C291.322 199.084 289.618 199.423 287.898 199.423H254.398C250.923 199.423 247.591 198.043 245.134 195.586C242.676 193.128 241.296 189.796 241.296 186.321V99.7115Z" fill="#FFDFDF"/>
</svg>
