<svg width="2" height="6" viewBox="0 0 2 6" fill="none" xmlns="http://www.w3.org/2000/svg">
<path d="M1.28782 0.287299V0.99802C1.28782 1.07438 1.25749 1.14762 1.20349 1.20162C1.14949 1.25561 1.07626 1.28595 0.999896 1.28595H0.289179C0.251397 1.28595 0.213989 1.2785 0.179091 1.26402C0.144194 1.24954 0.112494 1.22832 0.0858079 1.20158C0.0591216 1.17483 0.0379723 1.14309 0.0235711 1.10816C0.00917002 1.07323 0.00179929 1.0358 0.00188179 0.99802V0.287299C0.00188179 0.211102 0.0321512 0.138026 0.08603 0.0841469C0.139909 0.0302677 0.212982 0 0.289179 0H0.999896C1.07615 -1.80971e-07 1.14929 0.0302474 1.20327 0.0841086C1.25725 0.13797 1.28765 0.211045 1.28782 0.287299ZM0 5.71212V2.00106C-1.80957e-07 1.92481 0.0302491 1.85167 0.0841099 1.79769C0.137971 1.74371 0.211043 1.7133 0.287297 1.71313H0.998014C1.07433 1.7133 1.14746 1.74369 1.20143 1.79765C1.25539 1.85161 1.28577 1.92475 1.28594 2.00106V5.71212C1.28577 5.78843 1.25539 5.86157 1.20143 5.91553C1.14746 5.9695 1.07433 5.99988 0.998014 6.00005H0.289179C0.251262 6.00021 0.213688 5.99289 0.178611 5.97849C0.143533 5.9641 0.111643 5.94291 0.0847742 5.91616C0.0579048 5.88941 0.0365838 5.85761 0.0220358 5.8226C0.00748787 5.78758 -3.59932e-07 5.75004 0 5.71212Z" fill="#B1060F"/>
</svg>
