<svg width="642" height="88" viewBox="0 0 642 88" fill="none" xmlns="http://www.w3.org/2000/svg">
<path d="M0 16.6699H17.8712V21.5113H24.937V28.8405H31.7872V19.0818H37.181V10.9382H54.3847V34.784H62.7679V16.5057H65.9375V5.68965H80.1518V21.5113H83.9919V12.0104H98.4661V42.6751H110.917V38.792H124.862V17.221H139.337V21.5113H143.177V5.68965H157.394V16.5057H160.564V34.7799H168.947V10.9341H186.15V19.0777H191.544V28.8405H198.394V21.5113H205.457V16.6767H221.196V33.591H228.994V25.3782H239.572V8.39334H257.845V39.7068H266.89V21.267H281.893V23.7101H285.054V28.9953H290.409V25.5614H310.877V32.1848H314.693V19.6437H335.158V26.2672H342.561V42.2775H349.786V13.2727H353.691V8.31733L360.544 5.16848H370.555V19.6464H378.359V29.1622H391.061V26.6106H394.287V36.3571H398.422V42.667H402.602V35.6092H406.507V31.266H410.176V32.5418H412.557V35.2753H423.371V41.9884H443.145V42.667H456.328V39.6987H471.824V42.667H494.023V39.0404H503.041V28.6152H524.419V34.1597H528.315V31.6541H538.409V20.0699H542.329V17.6634H557.822V20.0699H565.676V33.8434H571.88V29.8449H580.024V18.9719H589.012V8.5467H610.39V14.0911H615.807V18.4344H624.374V0H642V87.2111H0V16.6699ZM636.958 19.4103H639.025V17.8155H636.958V19.4103ZM636.958 16.3306H639.025V14.7358H636.958V16.3306ZM626.976 6.56644H629.044V4.97165H626.976V6.56644ZM626.976 3.48681H629.044V1.89202H626.976V3.48681ZM607.185 30.1897H609.253V28.5949H607.185V30.1897ZM602.373 24.0304H604.441V22.4356H602.373V24.0304ZM602.373 20.9508H604.441V19.356H602.373V20.9508ZM597.579 11.7119H599.647V10.1171H597.579V11.7119ZM592.77 17.8711H594.838V16.2763H592.77V17.8711ZM592.77 14.7915H594.838V13.1967H592.77V14.7915ZM592.77 11.7119H594.838V10.1171H592.77V11.7119ZM587.273 29.2111H588.159V20.4364H587.273V29.2111ZM584.765 29.2111H585.651V20.4364H584.765V29.2111ZM582.26 29.2111H583.146V20.4364H582.26V29.2111ZM545.46 19.3587H553.338V18.8253H545.46V19.3587ZM541.002 26.635H542.326V25.0402H541.002V26.635ZM541.002 23.5554H542.326V21.9606H541.002V23.5554ZM516.393 42.6657H518.461V42.5041H516.393V42.6657ZM516.393 41.0193H518.461V39.4272H516.393V41.0193ZM511.581 31.7804H513.649V30.1856H511.581V31.7804ZM506.755 37.9342H508.822V36.3394H506.755V37.9342ZM506.755 34.8546H508.822V33.2652H506.755V34.8546ZM506.755 31.775H508.822V30.1802H506.755V31.775ZM501.257 42.6602H502.143V40.4994H501.257V42.6602ZM498.752 42.6602H499.638V40.4994H498.752V42.6602ZM496.244 42.6602H497.131V40.4994H496.244V42.6602ZM459.447 42.6602H467.326V42.4132H459.447V42.6602ZM459.447 41.3885H467.326V40.8551H459.447V41.3885ZM404.927 42.0115H412.205V41.5255H404.927V42.0115ZM404.927 40.7017H412.205V40.2158H404.927V40.7017ZM404.927 39.3919H412.205V38.9074H404.927V39.3919ZM404.927 38.0835H412.205V37.5976H404.927V38.0835ZM369.509 30.3471H371.577V28.7523H369.509V30.3471ZM365.548 11.1174H367.616V9.52257H365.548V11.1174ZM365.548 8.03772H367.616V6.44565H365.548V8.03772ZM352.645 28.037H354.713V26.4436H352.645V28.037ZM352.114 20.9793H359.392V20.4947H352.108L352.114 20.9793ZM352.114 19.6708H359.392V19.185H352.108L352.114 19.6708ZM352.114 18.3611H359.392V17.8752H352.108L352.114 18.3611ZM352.114 17.0513H359.392V16.5668H352.108L352.114 17.0513ZM352.114 15.7429H359.392V15.2679H352.108L352.114 15.7429ZM337.093 41.8472H339.161V40.2524H337.093V41.8472ZM337.093 38.7676H339.161V37.1728H337.093V38.7676ZM337.093 32.6083H339.161V31.0149H337.093V32.6083ZM331.035 41.8472H333.102V40.2524H331.035V41.8472ZM331.035 38.7676H333.102V37.1728H331.035V38.7676ZM331.035 23.3694H333.102V21.7828H331.035V23.3694ZM326.223 32.6083H328.29V31.0149H326.223V32.6083ZM326.223 26.4504H328.29V24.8637H326.223V26.4504ZM326.223 23.3694H328.29V21.7828H326.223V23.3694ZM312.821 38.5355H314.687V36.9407H312.821V38.5355ZM306.762 29.2966H308.83V27.7018H306.762V29.2966ZM301.95 38.5355H304.018V36.9407H301.95V38.5355ZM301.95 32.3762H304.018V30.7814H301.95V32.3762ZM301.95 29.2966H304.018V27.7018H301.95V29.2966ZM279.441 40.6772H281.509V39.0838H279.441V40.6772ZM279.441 37.5976H281.509V36.0042H279.441V37.5976ZM269.46 27.8335H271.528V26.2387H269.46V27.8335ZM269.46 24.7538H271.528V23.159H269.46V24.7538ZM245.415 29.207H246.797V28.1375H245.415V29.207ZM245.415 27.1412H246.797V26.0704H245.415V27.1412ZM241.279 12.4163H242.662V11.3468H241.279V12.4163ZM241.279 10.3492H242.662V9.27961H241.279V10.3492ZM234.155 31.9297H234.745V26.0446H234.155V31.9297ZM232.474 31.9297H233.065V26.0446H232.474V31.9297ZM230.793 31.9297H231.384V26.0446H230.793V31.9297ZM217.955 31.0027H219.338V29.9331H217.955V31.0027ZM217.955 28.9369H219.338V27.866H217.955V28.9369ZM217.955 26.8698H219.338V25.8003H217.955V26.8698ZM217.955 24.804H219.338V23.7345H217.955V24.804ZM217.955 22.7383H219.338V21.6674H217.955V22.7383ZM217.955 20.6712H219.338V19.6111H217.955V20.6712ZM217.955 18.6054H219.338V17.5345H217.955V18.6054ZM214.75 31.0122H216.13V29.9427H214.75V31.0122ZM214.75 28.9464H216.13V27.8755H214.75V28.9464ZM214.75 26.8793H216.13V25.8098H214.75V26.8793ZM214.75 24.8135H216.13V23.744H214.75V24.8135ZM214.75 22.7478H216.13V21.6769H214.75V22.7478ZM214.75 20.6806H216.13V19.6111H214.75V20.6806ZM214.75 18.6149H216.13V17.544H214.75V18.6149ZM199.727 31.323H204.612V30.9959H199.727V31.323ZM199.727 30.4435H204.612V30.1177H199.727V30.4435ZM199.727 29.5653H204.612V29.2396H199.727V29.5653ZM199.727 28.6872H204.612V28.3614H199.727V28.6872ZM199.727 27.809H204.612V27.4833H199.727V27.809ZM199.727 26.9295H204.612V26.6038H199.727V26.9295ZM199.727 26.0514H204.612V25.7188H199.727V26.0514ZM199.727 25.1732H204.612V24.8475H199.727V25.1732ZM199.727 24.2951H204.612V23.9693H199.727V24.2951ZM199.727 23.4169H204.612V23.0911H199.727V23.4169ZM199.727 22.5374H204.612V22.2116H199.727V22.5374ZM187.737 31.2836H189.119V30.2141H187.737V31.2836ZM187.737 29.2179H189.119V28.147H187.737V29.2179ZM179.991 16.7677H181.371V15.6968H179.988L179.991 16.7677ZM179.991 14.7006H181.371V13.6392H179.988L179.991 14.7006ZM179.991 12.6348H181.371V11.5653H179.988L179.991 12.6348ZM176.763 12.6348H178.145V11.5653H176.763V12.6348ZM173.537 20.9005H174.917V19.8297H173.537V20.9005ZM173.537 18.8334H174.917V17.7639H173.537V18.8334ZM170.309 31.9989H171.688V30.928H170.309V31.9989ZM170.309 29.9318H171.688V28.8622H170.309V29.9318ZM170.309 25.028H171.688V23.9585H170.309V25.028ZM170.309 14.6965H171.688V13.6392H170.309V14.6965ZM170.309 12.6307H171.688V11.5612H170.309V12.6307ZM157.465 29.0441H158.847V27.9746H157.465V29.0441ZM157.465 26.9784H158.847V25.9075H157.465V26.9784ZM154.325 13.7111H155.707V12.6416H154.325V13.7111ZM154.325 9.57823H155.707V8.50869H154.325V9.57823ZM154.325 7.51248H155.707V6.44565H154.325V7.51248ZM151.096 19.9097H152.479V18.8402H151.096V19.9097ZM151.096 17.844H152.479V16.7731H151.096V17.844ZM151.096 7.51248H152.479V6.44565H151.096V7.51248ZM144.639 19.9097H146.021V18.8402H144.639V19.9097ZM144.639 17.844H146.021V16.7731H144.639V17.844ZM144.639 13.7111H146.021V12.6416H144.639V13.7111ZM144.639 9.57823H146.021V8.50869H144.639V9.57823ZM144.639 7.51248H146.021V6.44565H144.639V7.51248ZM136.386 24.9533H141.673V24.595H136.386V24.9533ZM136.386 23.9164H141.673V23.5581H136.386V23.9164ZM136.386 22.8781H141.673V22.5197H136.386V22.8781ZM81.6435 24.9533H86.931V24.595H81.6435V24.9533ZM81.6435 23.9164H86.931V23.5581H81.6435V23.9164ZM81.6435 22.8781H86.931V22.5197H81.6435V22.8781ZM77.2953 19.9097H78.6778V18.8402H77.2953V19.9097ZM77.2953 17.844H78.6778V16.7731H77.2953V17.844ZM77.2953 13.7111H78.6778V12.6416H77.2953V13.7111ZM77.2953 9.57823H78.6778V8.50869H77.2953V9.57823ZM77.2953 7.51248H78.6778V6.44565H77.2953V7.51248ZM70.8381 19.9097H72.2205V18.8402H70.8381V19.9097ZM70.8381 17.844H72.2205V16.7731H70.8381V17.844ZM70.8381 7.51248H72.2205V6.44565H70.8381V7.51248ZM67.6094 13.7111H68.9919V12.6416H67.6094V13.7111ZM67.6094 9.57823H68.9919V8.50869H67.6094V9.57823ZM67.6094 7.51248H68.9919V6.44565H67.6094V7.51248ZM64.4694 29.0441H65.8518V27.9746H64.4694V29.0441ZM64.4694 26.9784H65.8518V25.9075H64.4694V26.9784ZM51.6257 32.0003H53.0082V30.9294H51.6257V32.0003ZM51.6257 29.9331H53.0082V28.8636H51.6257V29.9331ZM51.6257 25.0293H53.0082V23.9598H51.6257V25.0293ZM51.6257 14.6978H53.0082V13.6392H51.6257V14.6978ZM51.6257 12.6321H53.0082V11.5625H51.6257V12.6321ZM48.3971 20.8978H49.7795V19.8269H48.3971V20.8978ZM48.3971 18.8307H49.7795V17.7612H48.3971V18.8307ZM45.1714 12.6321H46.5509V11.5625H45.1714V12.6321ZM41.9457 16.7704H43.3282V15.6995H41.9457V16.7704ZM41.9457 14.7033H43.3282V13.6392H41.9457V14.7033ZM41.9457 12.6375H43.3282V11.568H41.9457V12.6375ZM34.1976 31.2836H35.58V30.2141H34.1976V31.2836ZM34.1976 29.2179H35.58V28.147H34.1976V29.2179ZM18.719 31.3135H23.6048V30.9864H18.719V31.3135ZM18.719 30.434H23.6048V30.1082H18.719V30.434ZM18.719 29.5558H23.6048V29.2301H18.719V29.5558ZM18.719 28.6777H23.6048V28.3519H18.719V28.6777ZM18.719 27.7995H23.6048V27.4833H18.719V27.7995ZM18.719 26.92H23.6048V26.5943H18.719V26.92ZM18.719 26.0418H23.6048V25.7188H18.719V26.0418ZM18.719 25.1637H23.6048V24.838H18.719V25.1637ZM18.719 24.2855H23.6048V23.9598H18.719V24.2855ZM18.719 23.4074H23.6048V23.0817H18.719V23.4074ZM18.719 22.5279H23.6048V22.2022H18.719V22.5279ZM7.19871 31.0027H8.58115V29.9331H7.19871V31.0027ZM7.19871 28.9369H8.58115V27.866H7.19871V28.9369ZM7.19871 26.8698H8.58115V25.8003H7.19871V26.8698ZM7.19871 24.804H8.58115V23.7345H7.19871V24.804ZM7.19871 22.7383H8.58115V21.6674H7.19871V22.7383ZM7.19871 20.6712H8.58115V19.6111H7.19871V20.6712ZM7.19871 18.6054H8.58115V17.5345H7.19871V18.6054ZM3.97007 31.0122H5.35251V29.9427H3.97007V31.0122ZM3.97007 28.9464H5.35251V27.8755H3.97007V28.9464ZM3.97007 26.8793H5.35251V25.8098H3.97007V26.8793ZM3.97007 24.8135H5.35251V23.744H3.97007V24.8135ZM3.97007 22.7478H5.35251V21.6769H3.97007V22.7478ZM3.97007 20.6806H5.35251V19.6111H3.97007V20.6806ZM3.97007 18.6149H5.35251V17.544H3.97007V18.6149Z" fill="#B1060F" fill-opacity="0.15"/>
</svg>
