<svg width="19" height="27" viewBox="0 0 19 27" fill="none" xmlns="http://www.w3.org/2000/svg">
<path d="M10.6052 7.71066C15.7456 7.71066 18.3158 10.9241 18.3158 17.3511C18.3158 23.7781 15.7456 26.9915 10.6052 26.9915C9.71238 27.0162 8.82392 26.8577 7.99467 26.5258C7.16542 26.1939 6.41295 25.6956 5.78365 25.0618V25.3072C5.78365 25.7562 5.6053 26.1867 5.28784 26.5042C4.97039 26.8217 4.53983 27 4.09088 27H1.53196C1.12566 27 0.735995 26.8386 0.448697 26.5513C0.161398 26.264 0 25.8743 0 25.468V1.52916C0.000747354 1.12334 0.162478 0.734401 0.449695 0.44771C0.736913 0.161019 1.12615 -6.88175e-07 1.53196 0H4.10216C4.55111 0 4.98167 0.178346 5.29913 0.495805C5.61659 0.813265 5.79493 1.24383 5.79493 1.69279V9.6489C6.4225 9.0153 7.17287 8.51656 8.00003 8.18327C8.8272 7.84998 9.71372 7.68915 10.6052 7.71066ZM12.5322 17.3511C12.5322 14.7818 11.5682 13.4962 9.64036 13.4944C7.71247 13.4925 6.42691 14.1357 5.78365 15.4241V19.2781C6.42691 20.5646 7.71247 21.2078 9.64036 21.2078C11.5682 21.2078 12.5322 19.9223 12.5322 17.3511Z" fill="#B1060F"/>
</svg>
