<svg width="29" height="20" viewBox="0 0 29 20" fill="none" xmlns="http://www.w3.org/2000/svg">
<path d="M23.2478 9.60676C23.2478 7.04646 22.2235 5.76537 20.1749 5.7635C18.2519 5.7635 17.2913 7.04458 17.2932 9.60676V17.9512C17.2924 18.2862 17.1588 18.6073 16.9216 18.844C16.6844 19.0806 16.3631 19.2135 16.028 19.2135H12.7921C12.457 19.2135 12.1356 19.0806 11.8984 18.844C11.6613 18.6073 11.5276 18.2862 11.5269 17.9512V9.60676C11.5269 7.04646 10.6947 5.76537 9.03034 5.7635C7.4953 5.7635 6.40633 6.40451 5.76345 7.68654V17.9512C5.76345 18.286 5.63045 18.6071 5.39372 18.8438C5.15699 19.0805 4.83591 19.2135 4.50111 19.2135H1.26515C1.09914 19.2139 0.934685 19.1815 0.781207 19.1182C0.627728 19.055 0.488238 18.962 0.370722 18.8448C0.253205 18.7275 0.15997 18.5882 0.0963558 18.4349C0.0327417 18.2816 -4.11724e-07 18.1172 0 17.9512V1.26235C-4.11724e-07 1.09634 0.0327417 0.931959 0.0963558 0.77862C0.15997 0.625282 0.253205 0.485998 0.370722 0.368742C0.488238 0.251485 0.627728 0.158556 0.781207 0.0952831C0.934685 0.0320098 1.09914 -0.000366399 1.26515 3.33506e-06H4.50111C4.83591 3.33506e-06 5.15699 0.133001 5.39372 0.369737C5.63045 0.606473 5.76345 0.927552 5.76345 1.26235V1.92023C7.04547 0.64195 8.45119 0.00187764 9.98061 3.33506e-06C11.8099 3.33506e-06 13.2831 0.78815 14.4002 2.36444C15.5004 0.786276 17.4853 -0.00187097 20.3548 3.33506e-06C26.1183 3.33506e-06 29 3.20225 29 9.60676V17.9512C29 18.1169 28.9673 18.2811 28.9039 18.4343C28.8405 18.5874 28.7475 18.7266 28.6303 18.8438C28.513 18.961 28.3739 19.054 28.2207 19.1174C28.0676 19.1809 27.9034 19.2135 27.7377 19.2135H24.5101C24.1753 19.2135 23.8543 19.0805 23.6175 18.8438C23.3808 18.6071 23.2478 18.286 23.2478 17.9512V9.60676Z" fill="#B1060F"/>
</svg>
