<svg width="21" height="21" viewBox="0 0 21 21" fill="none" xmlns="http://www.w3.org/2000/svg">
<rect width="21" height="21" rx="6.16901" fill="#DEFFCE"/>
<g clip-path="url(#clip0_1_6856)">
<path d="M9.4698 6.7345C9.21542 6.95128 8.89913 7.08229 8.56596 7.10888C7.78848 7.17093 7.1711 7.78831 7.10906 8.56579C7.08247 8.89895 6.95146 9.21524 6.73467 9.46963C6.22878 10.0633 6.22878 10.9364 6.73467 11.53C6.95146 11.7844 7.08247 12.1007 7.10906 12.4338C7.1711 13.2113 7.78848 13.8287 8.56596 13.8907C8.89913 13.9173 9.21542 14.0483 9.4698 14.2651C10.0634 14.771 10.9365 14.771 11.5302 14.2651C11.7846 14.0483 12.1009 13.9173 12.434 13.8907C13.2115 13.8287 13.8289 13.2113 13.8909 12.4338C13.9175 12.1007 14.0485 11.7844 14.2653 11.53C14.7712 10.9364 14.7712 10.0633 14.2653 9.46963C14.0485 9.21524 13.9175 8.89895 13.8909 8.56579C13.8289 7.78831 13.2115 7.17093 12.434 7.10888C12.1009 7.0823 11.7846 6.95128 11.5302 6.7345C10.9365 6.22861 10.0634 6.22861 9.4698 6.7345Z" fill="#329801" stroke="#329801" stroke-width="0.79142" stroke-linecap="round" stroke-linejoin="round"/>
<path d="M8.8421 10.7761L9.94736 11.8814L12.4342 9.39453" stroke="white" stroke-width="0.79142" stroke-linecap="round" stroke-linejoin="round"/>
</g>
<defs>
<clipPath id="clip0_1_6856">
<rect width="9.49703" height="9.49703" fill="white" transform="translate(5.52631 5.52656) scale(1.04742)"/>
</clipPath>
</defs>
</svg>
