<svg width="6" height="6" viewBox="0 0 6 6" fill="none" xmlns="http://www.w3.org/2000/svg">
<path opacity="0.7" d="M3.85145 0.513662L3.85146 0.51366C3.93678 0.493642 4.02057 0.509754 4.08569 0.561238C4.0857 0.561244 4.0857 0.561249 4.08571 0.561254L4.0671 0.584784C4.12524 0.630682 4.15857 0.704272 4.15857 0.786637L3.85145 0.513662ZM3.85145 0.513662L1.66156 1.02813L1.66156 1.02813C1.49563 1.06712 1.3628 1.23827 1.3628 1.41116V1.73719V5.14645C1.3628 5.33801 1.51897 5.4937 1.71082 5.4937H4.1818C4.37365 5.4937 4.52982 5.33801 4.52982 5.14645V1.73725C4.52982 1.54795 4.37731 1.39368 4.18857 1.39006L3.85145 0.513662ZM4.02115 1.39H1.71082C1.64474 1.39 1.58289 1.40851 1.53023 1.44058V1.41122L1.53023 1.4112C1.5302 1.36359 1.54935 1.31365 1.58116 1.27249C1.613 1.23129 1.65568 1.20128 1.69993 1.19087L3.88981 0.676403L3.88984 0.676396C3.92736 0.667541 3.95932 0.674541 3.98185 0.692329L3.98185 0.692332C4.00587 0.711296 4.02115 0.74357 4.02115 0.786637V1.39ZM4.36245 5.1465C4.36245 5.2457 4.28147 5.32659 4.18185 5.32659H1.71082C1.6112 5.32659 1.53023 5.2457 1.53023 5.1465V1.73725C1.53023 1.63805 1.6112 1.55716 1.71082 1.55716H4.1818C4.28142 1.55716 4.36239 1.63805 4.36239 1.73725L4.36245 5.1465ZM2.94631 1.9308C2.43616 1.9308 2.02109 2.34476 2.02109 2.85384C2.02109 3.36293 2.43616 3.77694 2.94631 3.77694C3.45646 3.77694 3.87153 3.36298 3.87153 2.8539C3.87153 2.34481 3.45646 1.9308 2.94631 1.9308ZM3.30324 2.47939C3.28132 2.35306 3.24779 2.23573 3.20238 2.14244C3.37294 2.20371 3.51533 2.32442 3.60435 2.47939H3.30324ZM3.70416 2.8539C3.70416 2.9258 3.69398 2.99535 3.67507 3.06124H3.32504C3.33128 2.9927 3.33444 2.92297 3.33444 2.8539C3.33444 2.78482 3.33128 2.7151 3.32504 2.64656H3.67507C3.69398 2.71244 3.70416 2.782 3.70416 2.8539ZM2.94631 3.60983C2.93769 3.60983 2.92404 3.60513 2.90601 3.58825C2.8883 3.57167 2.86901 3.5457 2.84978 3.50975C2.8147 3.44419 2.78177 3.34921 2.75864 3.2284H3.13403C3.11087 3.3492 3.07793 3.44419 3.04285 3.50974C3.02361 3.54569 3.00432 3.57167 2.98661 3.58825C2.96858 3.60513 2.95493 3.60983 2.94631 3.60983ZM2.73511 3.06124C2.729 2.99679 2.72555 2.92761 2.72555 2.8539C2.72555 2.78018 2.729 2.71101 2.73511 2.64656H3.15756C3.16368 2.71101 3.16712 2.78018 3.16712 2.8539C3.16712 2.92761 3.16368 2.99679 3.15756 3.06124H2.73511ZM2.18846 2.8539C2.18846 2.782 2.19864 2.71244 2.21755 2.64656H2.56758C2.56134 2.7151 2.55818 2.78482 2.55818 2.8539C2.55818 2.92297 2.56134 2.9927 2.56758 3.06124H2.21755C2.19864 2.99531 2.18846 2.9258 2.18846 2.8539ZM2.94631 2.09796C2.95493 2.09796 2.96858 2.10266 2.98661 2.11954C3.00432 2.13612 3.02361 2.1621 3.04284 2.19805C3.07792 2.2636 3.11085 2.35859 3.13398 2.47939H2.75859C2.78175 2.35859 2.81469 2.2636 2.84977 2.19805C2.86901 2.1621 2.8883 2.13612 2.90601 2.11954C2.92404 2.10266 2.93769 2.09796 2.94631 2.09796ZM2.69025 2.14244C2.64484 2.23575 2.6113 2.35308 2.58938 2.47939H2.28827C2.37729 2.32442 2.51968 2.2037 2.69025 2.14244ZM2.58938 3.22835C2.6113 3.35469 2.64483 3.47203 2.69025 3.56534C2.51967 3.50404 2.37728 3.38335 2.28827 3.22835H2.58938ZM3.30324 3.22835H3.60435C3.51534 3.38335 3.37295 3.50404 3.20237 3.56534C3.24779 3.47203 3.28132 3.35469 3.30324 3.22835ZM2.44463 4.19911C2.44463 4.24534 2.48217 4.28269 2.52834 4.28269H3.36428C3.41045 4.28269 3.44799 4.24534 3.44799 4.19911C3.44799 4.15287 3.41045 4.11553 3.36428 4.11553H2.52834C2.48217 4.11553 2.44463 4.15287 2.44463 4.19911ZM3.68645 4.65053C3.73262 4.65053 3.77017 4.61318 3.77017 4.56695C3.77017 4.52071 3.73262 4.48336 3.68645 4.48336H2.20616C2.15999 4.48336 2.12245 4.52071 2.12245 4.56695C2.12245 4.61318 2.15999 4.65053 2.20616 4.65053H3.68645ZM3.68645 4.96478C3.73262 4.96478 3.77017 4.92744 3.77017 4.8812C3.77017 4.83496 3.73262 4.79762 3.68645 4.79762H2.20616C2.15999 4.79762 2.12245 4.83496 2.12245 4.8812C2.12245 4.92744 2.15999 4.96478 2.20616 4.96478H3.68645Z" fill="#212121" stroke="#212121" stroke-width="0.0528105"/>
</svg>
