<svg width="6" height="6" viewBox="0 0 6 6" fill="none" xmlns="http://www.w3.org/2000/svg">
<g clip-path="url(#clip0_0_118)">
<path d="M2.01379 2.72225C2.00238 2.72225 1.99108 2.71989 1.98054 2.71531C1.97 2.71072 1.96042 2.704 1.95235 2.69553L1.70663 2.43759C1.69034 2.42048 1.68119 2.39729 1.68119 2.3731C1.68119 2.34891 1.69034 2.32572 1.70663 2.30861L2.79754 1.16341C2.81414 1.14694 2.83612 1.13776 2.85896 1.13776C2.88181 1.13776 2.90379 1.14694 2.92039 1.16341L3.16612 1.42135C3.18241 1.43846 3.19156 1.46165 3.19156 1.48584C3.19156 1.51002 3.18241 1.53322 3.16612 1.55032L2.07522 2.69553C2.06716 2.704 2.05758 2.71073 2.04704 2.71531C2.0365 2.7199 2.0252 2.72226 2.01379 2.72225ZM1.89093 2.3731L2.01379 2.50207L2.98183 1.48584L2.85896 1.35687L1.89093 2.3731Z" fill="#696969"/>
<path d="M1.65928 3.2303C1.57335 3.2303 1.48936 3.20355 1.41792 3.15344C1.34648 3.10333 1.2908 3.03211 1.25792 2.94878C1.22504 2.86545 1.21644 2.77376 1.2332 2.6853C1.24996 2.59684 1.29134 2.51558 1.35209 2.4518C1.41285 2.38802 1.49025 2.34459 1.57452 2.327C1.65879 2.3094 1.74614 2.31843 1.82552 2.35295C1.9049 2.38746 1.97275 2.44591 2.02048 2.52091C2.06822 2.5959 2.0937 2.68407 2.0937 2.77427C2.09356 2.89517 2.04775 3.01108 1.96631 3.09657C1.88487 3.18207 1.77445 3.23016 1.65928 3.2303ZM1.65928 2.50065C1.60772 2.50065 1.55733 2.51669 1.51446 2.54676C1.4716 2.57682 1.43819 2.61956 1.41846 2.66956C1.39873 2.71955 1.39357 2.77457 1.40363 2.82765C1.41369 2.88072 1.43851 2.92948 1.47496 2.96774C1.51142 3.00601 1.55786 3.03207 1.60842 3.04263C1.65899 3.05319 1.71139 3.04777 1.75902 3.02706C1.80665 3.00635 1.84736 2.97128 1.876 2.92628C1.90464 2.88128 1.91993 2.82838 1.91993 2.77427C1.91985 2.70172 1.89237 2.63217 1.8435 2.58088C1.79464 2.52958 1.72838 2.50073 1.65928 2.50065Z" fill="#696969"/>
<path d="M3.65756 5.23687H2.09363C2.07059 5.23687 2.04849 5.22726 2.0322 5.21015C2.0159 5.19305 2.00675 5.16985 2.00675 5.14566C2.00694 4.97639 2.07107 4.81411 2.18509 4.69442C2.29911 4.57473 2.4537 4.50741 2.61494 4.50721H3.13625C3.29749 4.50741 3.45208 4.57473 3.5661 4.69442C3.68012 4.81411 3.74425 4.97639 3.74444 5.14566C3.74444 5.16985 3.73529 5.19305 3.71899 5.21015C3.7027 5.22726 3.6806 5.23687 3.65756 5.23687ZM2.18926 5.05445H3.56193C3.54177 4.95152 3.48843 4.85903 3.41089 4.79258C3.33335 4.72612 3.23635 4.68976 3.13625 4.68962H2.61494C2.51484 4.68976 2.41784 4.72612 2.3403 4.79258C2.26276 4.85903 2.20942 4.95152 2.18926 5.05445Z" fill="#696969"/>
<path d="M2.27017 4.82716C2.25371 4.82718 2.23759 4.82229 2.22368 4.81305C2.20977 4.80382 2.19865 4.79063 2.19161 4.77501L1.46091 3.15518C1.45567 3.14431 1.45255 3.13245 1.45174 3.1203C1.45093 3.10815 1.45245 3.09596 1.45621 3.08443C1.45996 3.07291 1.46588 3.06229 1.4736 3.05321C1.48133 3.04412 1.49071 3.03675 1.5012 3.03154C1.51168 3.02632 1.52306 3.02336 1.53465 3.02283C1.54624 3.0223 1.55781 3.02422 1.56869 3.02846C1.57956 3.0327 1.58952 3.03919 1.59797 3.04754C1.60642 3.05589 1.61319 3.06593 1.61788 3.07707L2.34858 4.6969C2.35485 4.71079 2.35768 4.72612 2.35679 4.74147C2.35591 4.75682 2.35134 4.77168 2.34352 4.78468C2.33569 4.79768 2.32487 4.80839 2.31205 4.81582C2.29922 4.82324 2.28482 4.82714 2.27017 4.82716Z" fill="#696969"/>
<path d="M2.59248 4.69048C2.57602 4.6905 2.5599 4.68561 2.54598 4.67638C2.53207 4.66715 2.52095 4.65395 2.51391 4.63833L1.81275 3.08417C1.80751 3.07331 1.80439 3.06145 1.80358 3.0493C1.80277 3.03715 1.80429 3.02495 1.80805 3.01343C1.8118 3.0019 1.81772 2.99129 1.82544 2.9822C1.83317 2.97312 1.84255 2.96575 1.85304 2.96053C1.86352 2.95531 1.8749 2.95235 1.88649 2.95182C1.89808 2.9513 1.90965 2.95321 1.92053 2.95745C1.9314 2.9617 1.94136 2.96819 1.94981 2.97653C1.95826 2.98488 1.96503 2.99492 1.96972 3.00606L2.67088 4.56018C2.67715 4.57407 2.67997 4.5894 2.67909 4.60475C2.67821 4.6201 2.67364 4.63496 2.66582 4.64796C2.65799 4.66096 2.64717 4.67167 2.63434 4.6791C2.62152 4.68652 2.60713 4.69047 2.59248 4.69048Z" fill="#696969"/>
<path d="M3.41182 2.54503C3.40041 2.54503 3.38911 2.54267 3.37857 2.53808C3.36803 2.5335 3.35845 2.52678 3.35039 2.5183C3.27725 2.4422 3.21916 2.35169 3.17944 2.25195C3.13971 2.15222 3.11915 2.04523 3.11892 1.93713C3.1187 1.82903 3.13881 1.72195 3.17811 1.62203C3.21741 1.52212 3.27513 1.43133 3.34794 1.35489C3.42076 1.27845 3.50724 1.21787 3.60242 1.17661C3.6976 1.13535 3.79961 1.11423 3.90258 1.11446C4.00556 1.1147 4.10748 1.13628 4.20249 1.17798C4.29749 1.21967 4.38372 1.28065 4.45622 1.35742C4.47251 1.37453 4.48166 1.39772 4.48166 1.42191C4.48166 1.44609 4.47251 1.46929 4.45622 1.48639L3.47325 2.5183C3.46519 2.52677 3.45561 2.5335 3.44507 2.53808C3.43453 2.54267 3.42323 2.54503 3.41182 2.54503ZM3.90335 1.2997C3.79045 1.2996 3.67977 1.33251 3.58369 1.39474C3.48761 1.45696 3.40993 1.54604 3.35936 1.65199C3.30879 1.75795 3.28733 1.87659 3.29737 1.99463C3.30742 2.11266 3.34858 2.22543 3.41624 2.3203L4.26751 1.42654C4.16239 1.34403 4.03461 1.29952 3.90335 1.2997Z" fill="#696969"/>
<path d="M3.90338 2.39329C3.84634 2.3934 3.78984 2.38168 3.73713 2.35879C3.68442 2.33591 3.63654 2.30232 3.59623 2.25996C3.58051 2.24274 3.57183 2.21973 3.57207 2.19588C3.57231 2.17202 3.58145 2.14921 3.59752 2.13235C3.61359 2.11548 3.63532 2.10589 3.65804 2.10564C3.68077 2.10539 3.70268 2.1145 3.71909 2.13101C3.74329 2.15642 3.77203 2.17658 3.80366 2.19033C3.83528 2.20408 3.86918 2.21116 3.90341 2.21116C3.93765 2.21116 3.97154 2.20408 4.00317 2.19033C4.0348 2.17658 4.06353 2.15642 4.08774 2.13101C4.11194 2.1056 4.13115 2.07543 4.14425 2.04223C4.15735 2.00904 4.16409 1.97345 4.16409 1.93752C4.16409 1.90158 4.15735 1.866 4.14425 1.8328C4.13115 1.7996 4.11194 1.76943 4.08774 1.74402C4.07185 1.72683 4.06305 1.70377 4.06322 1.67982C4.0634 1.65587 4.07254 1.63296 4.08867 1.61602C4.1048 1.59909 4.12663 1.5895 4.14945 1.58931C4.17226 1.58913 4.19423 1.59838 4.2106 1.61505C4.27139 1.6788 4.31279 1.76005 4.32957 1.84852C4.34635 1.93698 4.33774 2.02868 4.30485 2.11201C4.27195 2.19533 4.21624 2.26654 4.14477 2.31661C4.0733 2.36669 3.9893 2.39337 3.90338 2.39329Z" fill="#696969"/>
<path d="M3.22754 1.70634C3.21613 1.70634 3.20483 1.70398 3.19429 1.69939C3.18375 1.69481 3.17418 1.68809 3.16611 1.67962L2.79751 1.29265C2.78122 1.27555 2.77207 1.25235 2.77207 1.22817C2.77207 1.20398 2.78122 1.18079 2.79751 1.16369L3.16618 0.776724C3.17424 0.76825 3.18382 0.761528 3.19436 0.756943C3.2049 0.752357 3.2162 0.749998 3.22761 0.75C3.23902 0.749999 3.25032 0.752359 3.26086 0.756944C3.2714 0.76153 3.28097 0.768251 3.28904 0.776724L3.65762 1.16369C3.67391 1.18079 3.68306 1.20398 3.68306 1.22817C3.68306 1.25235 3.67391 1.27555 3.65762 1.29265L3.28895 1.67962C3.28089 1.68809 3.27131 1.69481 3.26078 1.69939C3.25024 1.70398 3.23894 1.70634 3.22754 1.70634ZM2.9818 1.22814L3.22754 1.48616L3.47333 1.22814L3.22761 0.970182L2.9818 1.22814Z" fill="#696969"/>
<path d="M4.90718 5.23659H1.03337C1.01503 5.23659 0.99743 5.22698 0.984457 5.20988C0.971485 5.19277 0.964197 5.16958 0.964197 5.14539C0.964197 5.1212 0.971485 5.098 0.984457 5.08089C0.99743 5.06379 1.01503 5.05418 1.03337 5.05418H4.90718C4.92553 5.05418 4.94312 5.06379 4.95609 5.08089C4.96907 5.098 4.97635 5.1212 4.97635 5.14539C4.97635 5.16958 4.96907 5.19277 4.95609 5.20988C4.94312 5.22698 4.92553 5.23659 4.90718 5.23659Z" fill="#696969"/>
</g>
<defs>
<clipPath id="clip0_0_118">
<rect width="5.28105" height="5.28105" fill="white" transform="scale(1.13609)"/>
</clipPath>
</defs>
</svg>
